0
SECTION
2
HEADER
9
$ACADVER
1
AC1009
0
ENDSEC
0
SECTION
2
ENTITIES
0
TEXT
8
TEXT
10
80.0
20
65.0
30
0.0
40
14.0
1
======  N1A FACE  ======  88 holes  |  0 VS plates + 5 HS plates
0
TEXT
8
TEXT
10
80.0
20
90.0
30
0.0
40
13.0
1
-- HS PLATES - Horizontal Struts --  (5 plates)
0
LINE
8
PLATE_OUTLINE
10
80.0
20
120.0
30
0.0
11
1963.0
21
120.0
31
0.0
0
LINE
8
PLATE_OUTLINE
10
1963.0
20
120.0
30
0.0
11
1963.0
21
336.5
31
0.0
0
LINE
8
PLATE_OUTLINE
10
1963.0
20
336.5
30
0.0
11
80.0
21
336.5
31
0.0
0
LINE
8
PLATE_OUTLINE
10
80.0
20
336.5
30
0.0
11
80.0
21
120.0
31
0.0
0
TEXT
8
TEXT
10
80.0
20
342.5
30
0.0
40
10.0
1
HS-PLATE-01  1883 x 217 mm  (24 holes)
0
LINE
8
DIMS
10
80.0
20
100.0
30
0.0
11
1963.0
21
100.0
31
0.0
0
LINE
8
DIMS
10
80.0
20
96.0
30
0.0
11
80.0
21
104.0
31
0.0
0
LINE
8
DIMS
10
1963.0
20
96.0
30
0.0
11
1963.0
21
104.0
31
0.0
0
TEXT
8
DIMS
10
1017.5
20
105.0
30
0.0
40
7.0
1
1883 mm
0
LINE
8
DIMS
10
60.0
20
120.0
30
0.0
11
60.0
21
336.5
31
0.0
0
LINE
8
DIMS
10
56.0
20
120.0
30
0.0
11
64.0
21
120.0
31
0.0
0
LINE
8
DIMS
10
56.0
20
336.5
30
0.0
11
64.0
21
336.5
31
0.0
0
TEXT
8
DIMS
10
65.0
20
228.3
30
0.0
40
7.0
1
217 mm
0
CIRCLE
8
HOLES
10
121.5
20
295.0
30
0.0
40
16.50
0
TEXT
8
TEXT
10
105.0
20
314.5
30
0.0
40
6.0
1
P7349-CPLR-001
0
CIRCLE
8
HOLES
10
125.5
20
161.5
30
0.0
40
16.50
0
TEXT
8
TEXT
10
109.0
20
181.0
30
0.0
40
6.0
1
P7349-CPLR-002
0
CIRCLE
8
HOLES
10
157.5
20
161.5
30
0.0
40
16.50
0
TEXT
8
TEXT
10
141.0
20
181.0
30
0.0
40
6.0
1
P7349-CPLR-003
0
CIRCLE
8
HOLES
10
157.5
20
295.0
30
0.0
40
16.50
0
TEXT
8
TEXT
10
141.0
20
314.5
30
0.0
40
6.0
1
P7349-CPLR-004
0
CIRCLE
8
HOLES
10
321.5
20
161.5
30
0.0
40
16.50
0
TEXT
8
TEXT
10
305.0
20
181.0
30
0.0
40
6.0
1
P7349-CPLR-005
0
CIRCLE
8
HOLES
10
321.5
20
295.0
30
0.0
40
16.50
0
TEXT
8
TEXT
10
305.0
20
314.5
30
0.0
40
6.0
1
P7349-CPLR-006
0
CIRCLE
8
HOLES
10
354.5
20
161.5
30
0.0
40
16.50
0
TEXT
8
TEXT
10
338.0
20
181.0
30
0.0
40
6.0
1
P7349-CPLR-007
0
CIRCLE
8
HOLES
10
354.5
20
295.0
30
0.0
40
16.50
0
TEXT
8
TEXT
10
338.0
20
314.5
30
0.0
40
6.0
1
P7349-CPLR-008
0
CIRCLE
8
HOLES
10
521.5
20
161.5
30
0.0
40
16.50
0
TEXT
8
TEXT
10
505.0
20
181.0
30
0.0
40
6.0
1
P7349-CPLR-009
0
CIRCLE
8
HOLES
10
521.5
20
295.0
30
0.0
40
16.50
0
TEXT
8
TEXT
10
505.0
20
314.5
30
0.0
40
6.0
1
P7349-CPLR-010
0
CIRCLE
8
HOLES
10
721.5
20
161.5
30
0.0
40
16.50
0
TEXT
8
TEXT
10
705.0
20
181.0
30
0.0
40
6.0
1
P7349-CPLR-011
0
CIRCLE
8
HOLES
10
721.5
20
295.0
30
0.0
40
16.50
0
TEXT
8
TEXT
10
705.0
20
314.5
30
0.0
40
6.0
1
P7349-CPLR-012
0
CIRCLE
8
HOLES
10
921.5
20
161.5
30
0.0
40
16.50
0
TEXT
8
TEXT
10
905.0
20
181.0
30
0.0
40
6.0
1
P7349-CPLR-013
0
CIRCLE
8
HOLES
10
921.5
20
295.0
30
0.0
40
16.50
0
TEXT
8
TEXT
10
905.0
20
314.5
30
0.0
40
6.0
1
P7349-CPLR-014
0
CIRCLE
8
HOLES
10
1121.5
20
161.5
30
0.0
40
16.50
0
TEXT
8
TEXT
10
1105.0
20
181.0
30
0.0
40
6.0
1
P7349-CPLR-015
0
CIRCLE
8
HOLES
10
1121.5
20
295.0
30
0.0
40
16.50
0
TEXT
8
TEXT
10
1105.0
20
314.5
30
0.0
40
6.0
1
P7349-CPLR-016
0
CIRCLE
8
HOLES
10
1321.5
20
161.5
30
0.0
40
16.50
0
TEXT
8
TEXT
10
1305.0
20
181.0
30
0.0
40
6.0
1
P7349-CPLR-017
0
CIRCLE
8
HOLES
10
1321.5
20
295.0
30
0.0
40
16.50
0
TEXT
8
TEXT
10
1305.0
20
314.5
30
0.0
40
6.0
1
P7349-CPLR-018
0
CIRCLE
8
HOLES
10
1521.5
20
161.5
30
0.0
40
16.50
0
TEXT
8
TEXT
10
1505.0
20
181.0
30
0.0
40
6.0
1
P7349-CPLR-019
0
CIRCLE
8
HOLES
10
1521.5
20
295.0
30
0.0
40
16.50
0
TEXT
8
TEXT
10
1505.0
20
314.5
30
0.0
40
6.0
1
P7349-CPLR-020
0
CIRCLE
8
HOLES
10
1721.5
20
161.5
30
0.0
40
16.50
0
TEXT
8
TEXT
10
1705.0
20
181.0
30
0.0
40
6.0
1
P7349-CPLR-021
0
CIRCLE
8
HOLES
10
1721.5
20
295.0
30
0.0
40
16.50
0
TEXT
8
TEXT
10
1705.0
20
314.5
30
0.0
40
6.0
1
P7349-CPLR-022
0
CIRCLE
8
HOLES
10
1921.5
20
161.5
30
0.0
40
16.50
0
TEXT
8
TEXT
10
1905.0
20
181.0
30
0.0
40
6.0
1
P7349-CPLR-023
0
CIRCLE
8
HOLES
10
1921.5
20
295.0
30
0.0
40
16.50
0
TEXT
8
TEXT
10
1905.0
20
314.5
30
0.0
40
6.0
1
P7349-CPLR-024
0
LINE
8
DIMS
10
80.0
20
295.0
30
0.0
11
105.0
21
295.0
31
0.0
0
LINE
8
DIMS
10
80.0
20
291.0
30
0.0
11
80.0
21
299.0
31
0.0
0
LINE
8
DIMS
10
105.0
20
291.0
30
0.0
11
105.0
21
299.0
31
0.0
0
TEXT
8
DIMS
10
88.5
20
300.0
30
0.0
40
7.0
1
25
0
LINE
8
DIMS
10
1938.0
20
295.0
30
0.0
11
1963.0
21
295.0
31
0.0
0
LINE
8
DIMS
10
1938.0
20
291.0
30
0.0
11
1938.0
21
299.0
31
0.0
0
LINE
8
DIMS
10
1963.0
20
291.0
30
0.0
11
1963.0
21
299.0
31
0.0
0
TEXT
8
DIMS
10
1946.5
20
300.0
30
0.0
40
7.0
1
25
0
LINE
8
DIMS
10
125.5
20
120.0
30
0.0
11
125.5
21
145.0
31
0.0
0
LINE
8
DIMS
10
121.5
20
120.0
30
0.0
11
129.5
21
120.0
31
0.0
0
LINE
8
DIMS
10
121.5
20
145.0
30
0.0
11
129.5
21
145.0
31
0.0
0
TEXT
8
DIMS
10
130.5
20
132.5
30
0.0
40
7.0
1
25
0
LINE
8
DIMS
10
1921.5
20
311.5
30
0.0
11
1921.5
21
336.5
31
0.0
0
LINE
8
DIMS
10
1917.5
20
311.5
30
0.0
11
1925.5
21
311.5
31
0.0
0
LINE
8
DIMS
10
1917.5
20
336.5
30
0.0
11
1925.5
21
336.5
31
0.0
0
TEXT
8
DIMS
10
1926.5
20
324.0
30
0.0
40
7.0
1
25
0
LINE
8
PLATE_OUTLINE
10
80.0
20
478.5
30
0.0
11
1935.0
21
478.5
31
0.0
0
LINE
8
PLATE_OUTLINE
10
1935.0
20
478.5
30
0.0
11
1935.0
21
695.0
31
0.0
0
LINE
8
PLATE_OUTLINE
10
1935.0
20
695.0
30
0.0
11
80.0
21
695.0
31
0.0
0
LINE
8
PLATE_OUTLINE
10
80.0
20
695.0
30
0.0
11
80.0
21
478.5
31
0.0
0
TEXT
8
TEXT
10
80.0
20
701.0
30
0.0
40
10.0
1
HS-PLATE-02  1855 x 217 mm  (20 holes)
0
LINE
8
DIMS
10
80.0
20
458.5
30
0.0
11
1935.0
21
458.5
31
0.0
0
LINE
8
DIMS
10
80.0
20
454.5
30
0.0
11
80.0
21
462.5
31
0.0
0
LINE
8
DIMS
10
1935.0
20
454.5
30
0.0
11
1935.0
21
462.5
31
0.0
0
TEXT
8
DIMS
10
1003.5
20
463.5
30
0.0
40
7.0
1
1855 mm
0
LINE
8
DIMS
10
60.0
20
478.5
30
0.0
11
60.0
21
695.0
31
0.0
0
LINE
8
DIMS
10
56.0
20
478.5
30
0.0
11
64.0
21
478.5
31
0.0
0
LINE
8
DIMS
10
56.0
20
695.0
30
0.0
11
64.0
21
695.0
31
0.0
0
TEXT
8
DIMS
10
65.0
20
586.8
30
0.0
40
7.0
1
217 mm
0
CIRCLE
8
HOLES
10
121.5
20
520.0
30
0.0
40
16.50
0
TEXT
8
TEXT
10
105.0
20
539.5
30
0.0
40
6.0
1
P7349-CPLR-025
0
CIRCLE
8
HOLES
10
121.5
20
653.5
30
0.0
40
16.50
0
TEXT
8
TEXT
10
105.0
20
673.0
30
0.0
40
6.0
1
P7349-CPLR-026
0
CIRCLE
8
HOLES
10
321.5
20
520.0
30
0.0
40
16.50
0
TEXT
8
TEXT
10
305.0
20
539.5
30
0.0
40
6.0
1
P7349-CPLR-027
0
CIRCLE
8
HOLES
10
321.5
20
653.5
30
0.0
40
16.50
0
TEXT
8
TEXT
10
305.0
20
673.0
30
0.0
40
6.0
1
P7349-CPLR-028
0
CIRCLE
8
HOLES
10
521.5
20
520.0
30
0.0
40
16.50
0
TEXT
8
TEXT
10
505.0
20
539.5
30
0.0
40
6.0
1
P7349-CPLR-029
0
CIRCLE
8
HOLES
10
521.5
20
653.5
30
0.0
40
16.50
0
TEXT
8
TEXT
10
505.0
20
673.0
30
0.0
40
6.0
1
P7349-CPLR-030
0
CIRCLE
8
HOLES
10
721.5
20
520.0
30
0.0
40
16.50
0
TEXT
8
TEXT
10
705.0
20
539.5
30
0.0
40
6.0
1
P7349-CPLR-031
0
CIRCLE
8
HOLES
10
721.5
20
653.5
30
0.0
40
16.50
0
TEXT
8
TEXT
10
705.0
20
673.0
30
0.0
40
6.0
1
P7349-CPLR-032
0
CIRCLE
8
HOLES
10
921.5
20
520.0
30
0.0
40
16.50
0
TEXT
8
TEXT
10
905.0
20
539.5
30
0.0
40
6.0
1
P7349-CPLR-033
0
CIRCLE
8
HOLES
10
921.5
20
653.5
30
0.0
40
16.50
0
TEXT
8
TEXT
10
905.0
20
673.0
30
0.0
40
6.0
1
P7349-CPLR-034
0
CIRCLE
8
HOLES
10
1041.5
20
520.0
30
0.0
40
16.50
0
TEXT
8
TEXT
10
1025.0
20
539.5
30
0.0
40
6.0
1
P7349-CPLR-035
0
CIRCLE
8
HOLES
10
1071.5
20
653.5
30
0.0
40
16.50
0
TEXT
8
TEXT
10
1055.0
20
673.0
30
0.0
40
6.0
1
P7349-CPLR-036
0
CIRCLE
8
HOLES
10
1263.5
20
520.0
30
0.0
40
16.50
0
TEXT
8
TEXT
10
1247.0
20
539.5
30
0.0
40
6.0
1
P7349-CPLR-037
0
CIRCLE
8
HOLES
10
1263.5
20
653.5
30
0.0
40
16.50
0
TEXT
8
TEXT
10
1247.0
20
673.0
30
0.0
40
6.0
1
P7349-CPLR-038
0
CIRCLE
8
HOLES
10
1438.5
20
520.0
30
0.0
40
16.50
0
TEXT
8
TEXT
10
1422.0
20
539.5
30
0.0
40
6.0
1
P7349-CPLR-039
0
CIRCLE
8
HOLES
10
1438.5
20
653.5
30
0.0
40
16.50
0
TEXT
8
TEXT
10
1422.0
20
673.0
30
0.0
40
6.0
1
P7349-CPLR-040
0
CIRCLE
8
HOLES
10
1679.5
20
653.5
30
0.0
40
16.50
0
TEXT
8
TEXT
10
1663.0
20
673.0
30
0.0
40
6.0
1
P7349-CPLR-041
0
CIRCLE
8
HOLES
10
1693.5
20
520.0
30
0.0
40
16.50
0
TEXT
8
TEXT
10
1677.0
20
539.5
30
0.0
40
6.0
1
P7349-CPLR-042
0
CIRCLE
8
HOLES
10
1888.5
20
653.5
30
0.0
40
16.50
0
TEXT
8
TEXT
10
1872.0
20
673.0
30
0.0
40
6.0
1
P7349-CPLR-043
0
CIRCLE
8
HOLES
10
1893.5
20
520.0
30
0.0
40
16.50
0
TEXT
8
TEXT
10
1877.0
20
539.5
30
0.0
40
6.0
1
P7349-CPLR-044
0
LINE
8
DIMS
10
80.0
20
520.0
30
0.0
11
105.0
21
520.0
31
0.0
0
LINE
8
DIMS
10
80.0
20
516.0
30
0.0
11
80.0
21
524.0
31
0.0
0
LINE
8
DIMS
10
105.0
20
516.0
30
0.0
11
105.0
21
524.0
31
0.0
0
TEXT
8
DIMS
10
88.5
20
525.0
30
0.0
40
7.0
1
25
0
LINE
8
DIMS
10
1910.0
20
520.0
30
0.0
11
1935.0
21
520.0
31
0.0
0
LINE
8
DIMS
10
1910.0
20
516.0
30
0.0
11
1910.0
21
524.0
31
0.0
0
LINE
8
DIMS
10
1935.0
20
516.0
30
0.0
11
1935.0
21
524.0
31
0.0
0
TEXT
8
DIMS
10
1918.5
20
525.0
30
0.0
40
7.0
1
25
0
LINE
8
DIMS
10
121.5
20
478.5
30
0.0
11
121.5
21
503.5
31
0.0
0
LINE
8
DIMS
10
117.5
20
478.5
30
0.0
11
125.5
21
478.5
31
0.0
0
LINE
8
DIMS
10
117.5
20
503.5
30
0.0
11
125.5
21
503.5
31
0.0
0
TEXT
8
DIMS
10
126.5
20
491.0
30
0.0
40
7.0
1
25
0
LINE
8
DIMS
10
1888.5
20
670.0
30
0.0
11
1888.5
21
695.0
31
0.0
0
LINE
8
DIMS
10
1884.5
20
670.0
30
0.0
11
1892.5
21
670.0
31
0.0
0
LINE
8
DIMS
10
1884.5
20
695.0
30
0.0
11
1892.5
21
695.0
31
0.0
0
TEXT
8
DIMS
10
1893.5
20
682.5
30
0.0
40
7.0
1
25
0
LINE
8
PLATE_OUTLINE
10
80.0
20
837.0
30
0.0
11
1927.0
21
837.0
31
0.0
0
LINE
8
PLATE_OUTLINE
10
1927.0
20
837.0
30
0.0
11
1927.0
21
1055.6
31
0.0
0
LINE
8
PLATE_OUTLINE
10
1927.0
20
1055.6
30
0.0
11
80.0
21
1055.6
31
0.0
0
LINE
8
PLATE_OUTLINE
10
80.0
20
1055.6
30
0.0
11
80.0
21
837.0
31
0.0
0
TEXT
8
TEXT
10
80.0
20
1061.6
30
0.0
40
10.0
1
HS-PLATE-03  1847 x 219 mm  (20 holes)
0
LINE
8
DIMS
10
80.0
20
817.0
30
0.0
11
1927.0
21
817.0
31
0.0
0
LINE
8
DIMS
10
80.0
20
813.0
30
0.0
11
80.0
21
821.0
31
0.0
0
LINE
8
DIMS
10
1927.0
20
813.0
30
0.0
11
1927.0
21
821.0
31
0.0
0
TEXT
8
DIMS
10
999.5
20
822.0
30
0.0
40
7.0
1
1847 mm
0
LINE
8
DIMS
10
60.0
20
837.0
30
0.0
11
60.0
21
1055.6
31
0.0
0
LINE
8
DIMS
10
56.0
20
837.0
30
0.0
11
64.0
21
837.0
31
0.0
0
LINE
8
DIMS
10
56.0
20
1055.6
30
0.0
11
64.0
21
1055.6
31
0.0
0
TEXT
8
DIMS
10
65.0
20
946.3
30
0.0
40
7.0
1
219 mm
0
CIRCLE
8
HOLES
10
121.5
20
880.6
30
0.0
40
16.50
0
TEXT
8
TEXT
10
105.0
20
900.1
30
0.0
40
6.0
1
P7349-CPLR-045
0
CIRCLE
8
HOLES
10
121.5
20
1014.1
30
0.0
40
16.50
0
TEXT
8
TEXT
10
105.0
20
1033.6
30
0.0
40
6.0
1
P7349-CPLR-046
0
CIRCLE
8
HOLES
10
319.5
20
880.6
30
0.0
40
16.50
0
TEXT
8
TEXT
10
303.0
20
900.1
30
0.0
40
6.0
1
P7349-CPLR-047
0
CIRCLE
8
HOLES
10
319.5
20
1014.1
30
0.0
40
16.50
0
TEXT
8
TEXT
10
303.0
20
1033.6
30
0.0
40
6.0
1
P7349-CPLR-048
0
CIRCLE
8
HOLES
10
465.4
20
1013.6
30
0.0
40
16.50
0
TEXT
8
TEXT
10
448.9
20
1033.1
30
0.0
40
6.0
1
P7349-CPLR-049
0
CIRCLE
8
HOLES
10
472.4
20
878.6
30
0.0
40
16.50
0
TEXT
8
TEXT
10
455.9
20
898.1
30
0.0
40
6.0
1
P7349-CPLR-050
0
CIRCLE
8
HOLES
10
685.4
20
878.5
30
0.0
40
16.50
0
TEXT
8
TEXT
10
668.9
20
898.0
30
0.0
40
6.0
1
P7349-CPLR-051
0
CIRCLE
8
HOLES
10
695.5
20
1013.6
30
0.0
40
16.50
0
TEXT
8
TEXT
10
679.0
20
1033.1
30
0.0
40
6.0
1
P7349-CPLR-052
0
CIRCLE
8
HOLES
10
885.5
20
878.6
30
0.0
40
16.50
0
TEXT
8
TEXT
10
869.0
20
898.1
30
0.0
40
6.0
1
P7349-CPLR-053
0
CIRCLE
8
HOLES
10
885.5
20
1013.6
30
0.0
40
16.50
0
TEXT
8
TEXT
10
869.0
20
1033.1
30
0.0
40
6.0
1
P7349-CPLR-054
0
CIRCLE
8
HOLES
10
1065.5
20
878.6
30
0.0
40
16.50
0
TEXT
8
TEXT
10
1049.0
20
898.1
30
0.0
40
6.0
1
P7349-CPLR-055
0
CIRCLE
8
HOLES
10
1065.5
20
1013.6
30
0.0
40
16.50
0
TEXT
8
TEXT
10
1049.0
20
1033.1
30
0.0
40
6.0
1
P7349-CPLR-056
0
CIRCLE
8
HOLES
10
1285.5
20
878.6
30
0.0
40
16.50
0
TEXT
8
TEXT
10
1269.0
20
898.1
30
0.0
40
6.0
1
P7349-CPLR-057
0
CIRCLE
8
HOLES
10
1285.5
20
1013.6
30
0.0
40
16.50
0
TEXT
8
TEXT
10
1269.0
20
1033.1
30
0.0
40
6.0
1
P7349-CPLR-058
0
CIRCLE
8
HOLES
10
1485.5
20
878.6
30
0.0
40
16.50
0
TEXT
8
TEXT
10
1469.0
20
898.1
30
0.0
40
6.0
1
P7349-CPLR-059
0
CIRCLE
8
HOLES
10
1485.5
20
1013.6
30
0.0
40
16.50
0
TEXT
8
TEXT
10
1469.0
20
1033.1
30
0.0
40
6.0
1
P7349-CPLR-060
0
CIRCLE
8
HOLES
10
1685.5
20
878.6
30
0.0
40
16.50
0
TEXT
8
TEXT
10
1669.0
20
898.1
30
0.0
40
6.0
1
P7349-CPLR-061
0
CIRCLE
8
HOLES
10
1685.5
20
1013.6
30
0.0
40
16.50
0
TEXT
8
TEXT
10
1669.0
20
1033.1
30
0.0
40
6.0
1
P7349-CPLR-062
0
CIRCLE
8
HOLES
10
1885.5
20
878.6
30
0.0
40
16.50
0
TEXT
8
TEXT
10
1869.0
20
898.1
30
0.0
40
6.0
1
P7349-CPLR-063
0
CIRCLE
8
HOLES
10
1885.5
20
1013.6
30
0.0
40
16.50
0
TEXT
8
TEXT
10
1869.0
20
1033.1
30
0.0
40
6.0
1
P7349-CPLR-064
0
LINE
8
DIMS
10
80.0
20
880.6
30
0.0
11
105.0
21
880.6
31
0.0
0
LINE
8
DIMS
10
80.0
20
876.6
30
0.0
11
80.0
21
884.6
31
0.0
0
LINE
8
DIMS
10
105.0
20
876.6
30
0.0
11
105.0
21
884.6
31
0.0
0
TEXT
8
DIMS
10
88.5
20
885.6
30
0.0
40
7.0
1
25
0
LINE
8
DIMS
10
1902.0
20
1013.6
30
0.0
11
1927.0
21
1013.6
31
0.0
0
LINE
8
DIMS
10
1902.0
20
1009.6
30
0.0
11
1902.0
21
1017.6
31
0.0
0
LINE
8
DIMS
10
1927.0
20
1009.6
30
0.0
11
1927.0
21
1017.6
31
0.0
0
TEXT
8
DIMS
10
1910.5
20
1018.6
30
0.0
40
7.0
1
25
0
LINE
8
DIMS
10
685.4
20
837.0
30
0.0
11
685.4
21
862.0
31
0.0
0
LINE
8
DIMS
10
681.4
20
837.0
30
0.0
11
689.4
21
837.0
31
0.0
0
LINE
8
DIMS
10
681.4
20
862.0
30
0.0
11
689.4
21
862.0
31
0.0
0
TEXT
8
DIMS
10
690.4
20
849.5
30
0.0
40
7.0
1
25
0
LINE
8
DIMS
10
319.5
20
1030.6
30
0.0
11
319.5
21
1055.6
31
0.0
0
LINE
8
DIMS
10
315.5
20
1030.6
30
0.0
11
323.5
21
1030.6
31
0.0
0
LINE
8
DIMS
10
315.5
20
1055.6
30
0.0
11
323.5
21
1055.6
31
0.0
0
TEXT
8
DIMS
10
324.5
20
1043.1
30
0.0
40
7.0
1
25
0
LINE
8
PLATE_OUTLINE
10
80.0
20
1197.6
30
0.0
11
1973.0
21
1197.6
31
0.0
0
LINE
8
PLATE_OUTLINE
10
1973.0
20
1197.6
30
0.0
11
1973.0
21
1415.6
31
0.0
0
LINE
8
PLATE_OUTLINE
10
1973.0
20
1415.6
30
0.0
11
80.0
21
1415.6
31
0.0
0
LINE
8
PLATE_OUTLINE
10
80.0
20
1415.6
30
0.0
11
80.0
21
1197.6
31
0.0
0
TEXT
8
TEXT
10
80.0
20
1421.6
30
0.0
40
10.0
1
HS-PLATE-04  1893 x 218 mm  (20 holes)
0
LINE
8
DIMS
10
80.0
20
1177.6
30
0.0
11
1973.0
21
1177.6
31
0.0
0
LINE
8
DIMS
10
80.0
20
1173.6
30
0.0
11
80.0
21
1181.6
31
0.0
0
LINE
8
DIMS
10
1973.0
20
1173.6
30
0.0
11
1973.0
21
1181.6
31
0.0
0
TEXT
8
DIMS
10
1022.5
20
1182.6
30
0.0
40
7.0
1
1893 mm
0
LINE
8
DIMS
10
60.0
20
1197.6
30
0.0
11
60.0
21
1415.6
31
0.0
0
LINE
8
DIMS
10
56.0
20
1197.6
30
0.0
11
64.0
21
1197.6
31
0.0
0
LINE
8
DIMS
10
56.0
20
1415.6
30
0.0
11
64.0
21
1415.6
31
0.0
0
TEXT
8
DIMS
10
65.0
20
1306.6
30
0.0
40
7.0
1
218 mm
0
CIRCLE
8
HOLES
10
121.5
20
1239.1
30
0.0
40
16.50
0
TEXT
8
TEXT
10
105.0
20
1258.6
30
0.0
40
6.0
1
P7349-CPLR-065
0
CIRCLE
8
HOLES
10
121.5
20
1374.1
30
0.0
40
16.50
0
TEXT
8
TEXT
10
105.0
20
1393.6
30
0.0
40
6.0
1
P7349-CPLR-066
0
CIRCLE
8
HOLES
10
301.5
20
1239.1
30
0.0
40
16.50
0
TEXT
8
TEXT
10
285.0
20
1258.6
30
0.0
40
6.0
1
P7349-CPLR-067
0
CIRCLE
8
HOLES
10
301.5
20
1374.1
30
0.0
40
16.50
0
TEXT
8
TEXT
10
285.0
20
1393.6
30
0.0
40
6.0
1
P7349-CPLR-068
0
CIRCLE
8
HOLES
10
521.5
20
1239.1
30
0.0
40
16.50
0
TEXT
8
TEXT
10
505.0
20
1258.6
30
0.0
40
6.0
1
P7349-CPLR-069
0
CIRCLE
8
HOLES
10
521.5
20
1374.1
30
0.0
40
16.50
0
TEXT
8
TEXT
10
505.0
20
1393.6
30
0.0
40
6.0
1
P7349-CPLR-070
0
CIRCLE
8
HOLES
10
731.5
20
1239.1
30
0.0
40
16.50
0
TEXT
8
TEXT
10
715.0
20
1258.6
30
0.0
40
6.0
1
P7349-CPLR-071
0
CIRCLE
8
HOLES
10
731.5
20
1374.1
30
0.0
40
16.50
0
TEXT
8
TEXT
10
715.0
20
1393.6
30
0.0
40
6.0
1
P7349-CPLR-072
0
CIRCLE
8
HOLES
10
931.5
20
1239.1
30
0.0
40
16.50
0
TEXT
8
TEXT
10
915.0
20
1258.6
30
0.0
40
6.0
1
P7349-CPLR-073
0
CIRCLE
8
HOLES
10
931.5
20
1374.1
30
0.0
40
16.50
0
TEXT
8
TEXT
10
915.0
20
1393.6
30
0.0
40
6.0
1
P7349-CPLR-074
0
CIRCLE
8
HOLES
10
1131.5
20
1239.1
30
0.0
40
16.50
0
TEXT
8
TEXT
10
1115.0
20
1258.6
30
0.0
40
6.0
1
P7349-CPLR-075
0
CIRCLE
8
HOLES
10
1131.5
20
1374.1
30
0.0
40
16.50
0
TEXT
8
TEXT
10
1115.0
20
1393.6
30
0.0
40
6.0
1
P7349-CPLR-076
0
CIRCLE
8
HOLES
10
1331.5
20
1239.1
30
0.0
40
16.50
0
TEXT
8
TEXT
10
1315.0
20
1258.6
30
0.0
40
6.0
1
P7349-CPLR-077
0
CIRCLE
8
HOLES
10
1331.5
20
1374.1
30
0.0
40
16.50
0
TEXT
8
TEXT
10
1315.0
20
1393.6
30
0.0
40
6.0
1
P7349-CPLR-078
0
CIRCLE
8
HOLES
10
1521.5
20
1239.1
30
0.0
40
16.50
0
TEXT
8
TEXT
10
1505.0
20
1258.6
30
0.0
40
6.0
1
P7349-CPLR-079
0
CIRCLE
8
HOLES
10
1521.5
20
1374.1
30
0.0
40
16.50
0
TEXT
8
TEXT
10
1505.0
20
1393.6
30
0.0
40
6.0
1
P7349-CPLR-080
0
CIRCLE
8
HOLES
10
1721.5
20
1239.1
30
0.0
40
16.50
0
TEXT
8
TEXT
10
1705.0
20
1258.6
30
0.0
40
6.0
1
P7349-CPLR-081
0
CIRCLE
8
HOLES
10
1721.5
20
1374.1
30
0.0
40
16.50
0
TEXT
8
TEXT
10
1705.0
20
1393.6
30
0.0
40
6.0
1
P7349-CPLR-082
0
CIRCLE
8
HOLES
10
1931.5
20
1239.1
30
0.0
40
16.50
0
TEXT
8
TEXT
10
1915.0
20
1258.6
30
0.0
40
6.0
1
P7349-CPLR-083
0
CIRCLE
8
HOLES
10
1931.5
20
1374.1
30
0.0
40
16.50
0
TEXT
8
TEXT
10
1915.0
20
1393.6
30
0.0
40
6.0
1
P7349-CPLR-084
0
LINE
8
DIMS
10
80.0
20
1239.1
30
0.0
11
105.0
21
1239.1
31
0.0
0
LINE
8
DIMS
10
80.0
20
1235.1
30
0.0
11
80.0
21
1243.1
31
0.0
0
LINE
8
DIMS
10
105.0
20
1235.1
30
0.0
11
105.0
21
1243.1
31
0.0
0
TEXT
8
DIMS
10
88.5
20
1244.1
30
0.0
40
7.0
1
25
0
LINE
8
DIMS
10
1948.0
20
1374.1
30
0.0
11
1973.0
21
1374.1
31
0.0
0
LINE
8
DIMS
10
1948.0
20
1370.1
30
0.0
11
1948.0
21
1378.1
31
0.0
0
LINE
8
DIMS
10
1973.0
20
1370.1
30
0.0
11
1973.0
21
1378.1
31
0.0
0
TEXT
8
DIMS
10
1956.5
20
1379.1
30
0.0
40
7.0
1
25
0
LINE
8
DIMS
10
121.5
20
1197.6
30
0.0
11
121.5
21
1222.6
31
0.0
0
LINE
8
DIMS
10
117.5
20
1197.6
30
0.0
11
125.5
21
1197.6
31
0.0
0
LINE
8
DIMS
10
117.5
20
1222.6
30
0.0
11
125.5
21
1222.6
31
0.0
0
TEXT
8
DIMS
10
126.5
20
1210.1
30
0.0
40
7.0
1
25
0
LINE
8
DIMS
10
1931.5
20
1390.6
30
0.0
11
1931.5
21
1415.6
31
0.0
0
LINE
8
DIMS
10
1927.5
20
1390.6
30
0.0
11
1935.5
21
1390.6
31
0.0
0
LINE
8
DIMS
10
1927.5
20
1415.6
30
0.0
11
1935.5
21
1415.6
31
0.0
0
TEXT
8
DIMS
10
1936.5
20
1403.1
30
0.0
40
7.0
1
25
0
LINE
8
PLATE_OUTLINE
10
80.0
20
1557.6
30
0.0
11
363.0
21
1557.6
31
0.0
0
LINE
8
PLATE_OUTLINE
10
363.0
20
1557.6
30
0.0
11
363.0
21
1775.6
31
0.0
0
LINE
8
PLATE_OUTLINE
10
363.0
20
1775.6
30
0.0
11
80.0
21
1775.6
31
0.0
0
LINE
8
PLATE_OUTLINE
10
80.0
20
1775.6
30
0.0
11
80.0
21
1557.6
31
0.0
0
TEXT
8
TEXT
10
80.0
20
1781.6
30
0.0
40
10.0
1
HS-PLATE-05  283 x 218 mm  (4 holes)
0
LINE
8
DIMS
10
80.0
20
1537.6
30
0.0
11
363.0
21
1537.6
31
0.0
0
LINE
8
DIMS
10
80.0
20
1533.6
30
0.0
11
80.0
21
1541.6
31
0.0
0
LINE
8
DIMS
10
363.0
20
1533.6
30
0.0
11
363.0
21
1541.6
31
0.0
0
TEXT
8
DIMS
10
217.5
20
1542.6
30
0.0
40
7.0
1
283 mm
0
LINE
8
DIMS
10
60.0
20
1557.6
30
0.0
11
60.0
21
1775.6
31
0.0
0
LINE
8
DIMS
10
56.0
20
1557.6
30
0.0
11
64.0
21
1557.6
31
0.0
0
LINE
8
DIMS
10
56.0
20
1775.6
30
0.0
11
64.0
21
1775.6
31
0.0
0
TEXT
8
DIMS
10
65.0
20
1666.6
30
0.0
40
7.0
1
218 mm
0
CIRCLE
8
HOLES
10
121.5
20
1599.1
30
0.0
40
16.50
0
TEXT
8
TEXT
10
105.0
20
1618.6
30
0.0
40
6.0
1
P7349-CPLR-085
0
CIRCLE
8
HOLES
10
121.5
20
1734.1
30
0.0
40
16.50
0
TEXT
8
TEXT
10
105.0
20
1753.6
30
0.0
40
6.0
1
P7349-CPLR-086
0
CIRCLE
8
HOLES
10
321.5
20
1599.1
30
0.0
40
16.50
0
TEXT
8
TEXT
10
305.0
20
1618.6
30
0.0
40
6.0
1
P7349-CPLR-087
0
CIRCLE
8
HOLES
10
321.5
20
1734.1
30
0.0
40
16.50
0
TEXT
8
TEXT
10
305.0
20
1753.6
30
0.0
40
6.0
1
P7349-CPLR-088
0
LINE
8
DIMS
10
80.0
20
1599.1
30
0.0
11
105.0
21
1599.1
31
0.0
0
LINE
8
DIMS
10
80.0
20
1595.1
30
0.0
11
80.0
21
1603.1
31
0.0
0
LINE
8
DIMS
10
105.0
20
1595.1
30
0.0
11
105.0
21
1603.1
31
0.0
0
TEXT
8
DIMS
10
88.5
20
1604.1
30
0.0
40
7.0
1
25
0
LINE
8
DIMS
10
338.0
20
1734.1
30
0.0
11
363.0
21
1734.1
31
0.0
0
LINE
8
DIMS
10
338.0
20
1730.1
30
0.0
11
338.0
21
1738.1
31
0.0
0
LINE
8
DIMS
10
363.0
20
1730.1
30
0.0
11
363.0
21
1738.1
31
0.0
0
TEXT
8
DIMS
10
346.5
20
1739.1
30
0.0
40
7.0
1
25
0
LINE
8
DIMS
10
121.5
20
1557.6
30
0.0
11
121.5
21
1582.6
31
0.0
0
LINE
8
DIMS
10
117.5
20
1557.6
30
0.0
11
125.5
21
1557.6
31
0.0
0
LINE
8
DIMS
10
117.5
20
1582.6
30
0.0
11
125.5
21
1582.6
31
0.0
0
TEXT
8
DIMS
10
126.5
20
1570.1
30
0.0
40
7.0
1
25
0
LINE
8
DIMS
10
321.5
20
1750.6
30
0.0
11
321.5
21
1775.6
31
0.0
0
LINE
8
DIMS
10
317.5
20
1750.6
30
0.0
11
325.5
21
1750.6
31
0.0
0
LINE
8
DIMS
10
317.5
20
1775.6
30
0.0
11
325.5
21
1775.6
31
0.0
0
TEXT
8
DIMS
10
326.5
20
1763.1
30
0.0
40
7.0
1
25
0
TEXT
8
TEXT
10
80.0
20
1982.6
30
0.0
40
14.0
1
======  F1A FACE  ======  74 holes  |  2 VS plates + 6 HS plates
0
TEXT
8
TEXT
10
80.0
20
2007.6
30
0.0
40
13.0
1
-- VS PLATES - Vertical Struts --  (2 plates)
0
LINE
8
PLATE_OUTLINE
10
80.0
20
2037.6
30
0.0
11
316.0
21
2037.6
31
0.0
0
LINE
8
PLATE_OUTLINE
10
316.0
20
2037.6
30
0.0
11
316.0
21
3920.6
31
0.0
0
LINE
8
PLATE_OUTLINE
10
316.0
20
3920.6
30
0.0
11
80.0
21
3920.6
31
0.0
0
LINE
8
PLATE_OUTLINE
10
80.0
20
3920.6
30
0.0
11
80.0
21
2037.6
31
0.0
0
TEXT
8
TEXT
10
80.0
20
3926.6
30
0.0
40
10.0
1
VS-PLATE-01  236 x 1883 mm  (19 holes)
0
LINE
8
DIMS
10
80.0
20
2017.6
30
0.0
11
316.0
21
2017.6
31
0.0
0
LINE
8
DIMS
10
80.0
20
2013.6
30
0.0
11
80.0
21
2021.6
31
0.0
0
LINE
8
DIMS
10
316.0
20
2013.6
30
0.0
11
316.0
21
2021.6
31
0.0
0
TEXT
8
DIMS
10
194.0
20
2022.6
30
0.0
40
7.0
1
236 mm
0
LINE
8
DIMS
10
60.0
20
2037.6
30
0.0
11
60.0
21
3920.6
31
0.0
0
LINE
8
DIMS
10
56.0
20
2037.6
30
0.0
11
64.0
21
2037.6
31
0.0
0
LINE
8
DIMS
10
56.0
20
3920.6
30
0.0
11
64.0
21
3920.6
31
0.0
0
TEXT
8
DIMS
10
65.0
20
2979.1
30
0.0
40
7.0
1
1883 mm
0
CIRCLE
8
HOLES
10
121.5
20
2079.1
30
0.0
40
16.50
0
TEXT
8
TEXT
10
105.0
20
2098.6
30
0.0
40
6.0
1
P7349-CPLR-048
0
CIRCLE
8
HOLES
10
274.5
20
2079.1
30
0.0
40
16.50
0
TEXT
8
TEXT
10
258.0
20
2098.6
30
0.0
40
6.0
1
P7349-CPLR-063
0
CIRCLE
8
HOLES
10
121.5
20
2314.1
30
0.0
40
16.50
0
TEXT
8
TEXT
10
105.0
20
2333.6
30
0.0
40
6.0
1
P7349-CPLR-049
0
CIRCLE
8
HOLES
10
274.5
20
2314.1
30
0.0
40
16.50
0
TEXT
8
TEXT
10
258.0
20
2333.6
30
0.0
40
6.0
1
P7349-CPLR-064
0
CIRCLE
8
HOLES
10
121.5
20
2479.1
30
0.0
40
16.50
0
TEXT
8
TEXT
10
105.0
20
2498.6
30
0.0
40
6.0
1
P7349-CPLR-050
0
CIRCLE
8
HOLES
10
274.5
20
2479.1
30
0.0
40
16.50
0
TEXT
8
TEXT
10
258.0
20
2498.6
30
0.0
40
6.0
1
P7349-CPLR-065
0
CIRCLE
8
HOLES
10
121.5
20
2679.1
30
0.0
40
16.50
0
TEXT
8
TEXT
10
105.0
20
2698.6
30
0.0
40
6.0
1
P7349-CPLR-051
0
CIRCLE
8
HOLES
10
274.5
20
2679.1
30
0.0
40
16.50
0
TEXT
8
TEXT
10
258.0
20
2698.6
30
0.0
40
6.0
1
P7349-CPLR-066
0
CIRCLE
8
HOLES
10
121.5
20
2899.1
30
0.0
40
16.50
0
TEXT
8
TEXT
10
105.0
20
2918.6
30
0.0
40
6.0
1
P7349-CPLR-052
0
CIRCLE
8
HOLES
10
121.5
20
3079.1
30
0.0
40
16.50
0
TEXT
8
TEXT
10
105.0
20
3098.6
30
0.0
40
6.0
1
P7349-CPLR-053
0
CIRCLE
8
HOLES
10
274.5
20
3079.1
30
0.0
40
16.50
0
TEXT
8
TEXT
10
258.0
20
3098.6
30
0.0
40
6.0
1
P7349-CPLR-067
0
CIRCLE
8
HOLES
10
121.5
20
3279.1
30
0.0
40
16.50
0
TEXT
8
TEXT
10
105.0
20
3298.6
30
0.0
40
6.0
1
P7349-CPLR-054
0
CIRCLE
8
HOLES
10
274.5
20
3279.1
30
0.0
40
16.50
0
TEXT
8
TEXT
10
258.0
20
3298.6
30
0.0
40
6.0
1
P7349-CPLR-068
0
CIRCLE
8
HOLES
10
121.5
20
3479.1
30
0.0
40
16.50
0
TEXT
8
TEXT
10
105.0
20
3498.6
30
0.0
40
6.0
1
P7349-CPLR-055
0
CIRCLE
8
HOLES
10
274.5
20
3479.1
30
0.0
40
16.50
0
TEXT
8
TEXT
10
258.0
20
3498.6
30
0.0
40
6.0
1
P7349-CPLR-069
0
CIRCLE
8
HOLES
10
121.5
20
3679.1
30
0.0
40
16.50
0
TEXT
8
TEXT
10
105.0
20
3698.6
30
0.0
40
6.0
1
P7349-CPLR-056
0
CIRCLE
8
HOLES
10
274.5
20
3679.1
30
0.0
40
16.50
0
TEXT
8
TEXT
10
258.0
20
3698.6
30
0.0
40
6.0
1
P7349-CPLR-070
0
CIRCLE
8
HOLES
10
121.5
20
3879.1
30
0.0
40
16.50
0
TEXT
8
TEXT
10
105.0
20
3898.6
30
0.0
40
6.0
1
P7349-CPLR-057
0
CIRCLE
8
HOLES
10
274.5
20
3879.1
30
0.0
40
16.50
0
TEXT
8
TEXT
10
258.0
20
3898.6
30
0.0
40
6.0
1
P7349-CPLR-071
0
LINE
8
DIMS
10
80.0
20
2079.1
30
0.0
11
105.0
21
2079.1
31
0.0
0
LINE
8
DIMS
10
80.0
20
2075.1
30
0.0
11
80.0
21
2083.1
31
0.0
0
LINE
8
DIMS
10
105.0
20
2075.1
30
0.0
11
105.0
21
2083.1
31
0.0
0
TEXT
8
DIMS
10
88.5
20
2084.1
30
0.0
40
7.0
1
25
0
LINE
8
DIMS
10
291.0
20
3879.1
30
0.0
11
316.0
21
3879.1
31
0.0
0
LINE
8
DIMS
10
291.0
20
3875.1
30
0.0
11
291.0
21
3883.1
31
0.0
0
LINE
8
DIMS
10
316.0
20
3875.1
30
0.0
11
316.0
21
3883.1
31
0.0
0
TEXT
8
DIMS
10
299.5
20
3884.1
30
0.0
40
7.0
1
25
0
LINE
8
DIMS
10
121.5
20
2037.6
30
0.0
11
121.5
21
2062.6
31
0.0
0
LINE
8
DIMS
10
117.5
20
2037.6
30
0.0
11
125.5
21
2037.6
31
0.0
0
LINE
8
DIMS
10
117.5
20
2062.6
30
0.0
11
125.5
21
2062.6
31
0.0
0
TEXT
8
DIMS
10
126.5
20
2050.1
30
0.0
40
7.0
1
25
0
LINE
8
DIMS
10
274.5
20
3895.6
30
0.0
11
274.5
21
3920.6
31
0.0
0
LINE
8
DIMS
10
270.5
20
3895.6
30
0.0
11
278.5
21
3895.6
31
0.0
0
LINE
8
DIMS
10
270.5
20
3920.6
30
0.0
11
278.5
21
3920.6
31
0.0
0
TEXT
8
DIMS
10
279.5
20
3908.1
30
0.0
40
7.0
1
25
0
LINE
8
PLATE_OUTLINE
10
80.0
20
4062.6
30
0.0
11
316.0
21
4062.6
31
0.0
0
LINE
8
PLATE_OUTLINE
10
316.0
20
4062.6
30
0.0
11
316.0
21
4545.6
31
0.0
0
LINE
8
PLATE_OUTLINE
10
316.0
20
4545.6
30
0.0
11
80.0
21
4545.6
31
0.0
0
LINE
8
PLATE_OUTLINE
10
80.0
20
4545.6
30
0.0
11
80.0
21
4062.6
31
0.0
0
TEXT
8
TEXT
10
80.0
20
4551.6
30
0.0
40
10.0
1
VS-PLATE-02  236 x 483 mm  (6 holes)
0
LINE
8
DIMS
10
80.0
20
4042.6
30
0.0
11
316.0
21
4042.6
31
0.0
0
LINE
8
DIMS
10
80.0
20
4038.6
30
0.0
11
80.0
21
4046.6
31
0.0
0
LINE
8
DIMS
10
316.0
20
4038.6
30
0.0
11
316.0
21
4046.6
31
0.0
0
TEXT
8
DIMS
10
194.0
20
4047.6
30
0.0
40
7.0
1
236 mm
0
LINE
8
DIMS
10
60.0
20
4062.6
30
0.0
11
60.0
21
4545.6
31
0.0
0
LINE
8
DIMS
10
56.0
20
4062.6
30
0.0
11
64.0
21
4062.6
31
0.0
0
LINE
8
DIMS
10
56.0
20
4545.6
30
0.0
11
64.0
21
4545.6
31
0.0
0
TEXT
8
DIMS
10
65.0
20
4304.1
30
0.0
40
7.0
1
483 mm
0
CIRCLE
8
HOLES
10
121.5
20
4104.1
30
0.0
40
16.50
0
TEXT
8
TEXT
10
105.0
20
4123.6
30
0.0
40
6.0
1
P7349-CPLR-058
0
CIRCLE
8
HOLES
10
274.5
20
4104.1
30
0.0
40
16.50
0
TEXT
8
TEXT
10
258.0
20
4123.6
30
0.0
40
6.0
1
P7349-CPLR-072
0
CIRCLE
8
HOLES
10
121.5
20
4304.1
30
0.0
40
16.50
0
TEXT
8
TEXT
10
105.0
20
4323.6
30
0.0
40
6.0
1
P7349-CPLR-059
0
CIRCLE
8
HOLES
10
274.5
20
4304.1
30
0.0
40
16.50
0
TEXT
8
TEXT
10
258.0
20
4323.6
30
0.0
40
6.0
1
P7349-CPLR-073
0
CIRCLE
8
HOLES
10
121.5
20
4504.1
30
0.0
40
16.50
0
TEXT
8
TEXT
10
105.0
20
4523.6
30
0.0
40
6.0
1
P7349-CPLR-060
0
CIRCLE
8
HOLES
10
274.5
20
4504.1
30
0.0
40
16.50
0
TEXT
8
TEXT
10
258.0
20
4523.6
30
0.0
40
6.0
1
P7349-CPLR-074
0
LINE
8
DIMS
10
80.0
20
4104.1
30
0.0
11
105.0
21
4104.1
31
0.0
0
LINE
8
DIMS
10
80.0
20
4100.1
30
0.0
11
80.0
21
4108.1
31
0.0
0
LINE
8
DIMS
10
105.0
20
4100.1
30
0.0
11
105.0
21
4108.1
31
0.0
0
TEXT
8
DIMS
10
88.5
20
4109.1
30
0.0
40
7.0
1
25
0
LINE
8
DIMS
10
291.0
20
4504.1
30
0.0
11
316.0
21
4504.1
31
0.0
0
LINE
8
DIMS
10
291.0
20
4500.1
30
0.0
11
291.0
21
4508.1
31
0.0
0
LINE
8
DIMS
10
316.0
20
4500.1
30
0.0
11
316.0
21
4508.1
31
0.0
0
TEXT
8
DIMS
10
299.5
20
4509.1
30
0.0
40
7.0
1
25
0
LINE
8
DIMS
10
121.5
20
4062.6
30
0.0
11
121.5
21
4087.6
31
0.0
0
LINE
8
DIMS
10
117.5
20
4062.6
30
0.0
11
125.5
21
4062.6
31
0.0
0
LINE
8
DIMS
10
117.5
20
4087.6
30
0.0
11
125.5
21
4087.6
31
0.0
0
TEXT
8
DIMS
10
126.5
20
4075.1
30
0.0
40
7.0
1
25
0
LINE
8
DIMS
10
274.5
20
4520.6
30
0.0
11
274.5
21
4545.6
31
0.0
0
LINE
8
DIMS
10
270.5
20
4520.6
30
0.0
11
278.5
21
4520.6
31
0.0
0
LINE
8
DIMS
10
270.5
20
4545.6
30
0.0
11
278.5
21
4545.6
31
0.0
0
TEXT
8
DIMS
10
279.5
20
4533.1
30
0.0
40
7.0
1
25
0
TEXT
8
TEXT
10
80.0
20
4707.6
30
0.0
40
13.0
1
-- HS PLATES - Horizontal Struts --  (6 plates)
0
LINE
8
PLATE_OUTLINE
10
80.0
20
4737.6
30
0.0
11
1902.0
21
4737.6
31
0.0
0
LINE
8
PLATE_OUTLINE
10
1902.0
20
4737.6
30
0.0
11
1902.0
21
4820.6
31
0.0
0
LINE
8
PLATE_OUTLINE
10
1902.0
20
4820.6
30
0.0
11
80.0
21
4820.6
31
0.0
0
LINE
8
PLATE_OUTLINE
10
80.0
20
4820.6
30
0.0
11
80.0
21
4737.6
31
0.0
0
TEXT
8
TEXT
10
80.0
20
4826.6
30
0.0
40
10.0
1
HS-PLATE-01  1822 x 83 mm  (10 holes)
0
LINE
8
DIMS
10
80.0
20
4717.6
30
0.0
11
1902.0
21
4717.6
31
0.0
0
LINE
8
DIMS
10
80.0
20
4713.6
30
0.0
11
80.0
21
4721.6
31
0.0
0
LINE
8
DIMS
10
1902.0
20
4713.6
30
0.0
11
1902.0
21
4721.6
31
0.0
0
TEXT
8
DIMS
10
987.0
20
4722.6
30
0.0
40
7.0
1
1822 mm
0
LINE
8
DIMS
10
60.0
20
4737.6
30
0.0
11
60.0
21
4820.6
31
0.0
0
LINE
8
DIMS
10
56.0
20
4737.6
30
0.0
11
64.0
21
4737.6
31
0.0
0
LINE
8
DIMS
10
56.0
20
4820.6
30
0.0
11
64.0
21
4820.6
31
0.0
0
TEXT
8
DIMS
10
65.0
20
4779.1
30
0.0
40
7.0
1
83 mm
0
CIRCLE
8
HOLES
10
121.5
20
4779.1
30
0.0
40
16.50
0
TEXT
8
TEXT
10
105.0
20
4798.6
30
0.0
40
6.0
1
P7349-CPLR-001
0
CIRCLE
8
HOLES
10
321.5
20
4779.1
30
0.0
40
16.50
0
TEXT
8
TEXT
10
305.0
20
4798.6
30
0.0
40
6.0
1
P7349-CPLR-003
0
CIRCLE
8
HOLES
10
461.5
20
4779.1
30
0.0
40
16.50
0
TEXT
8
TEXT
10
445.0
20
4798.6
30
0.0
40
6.0
1
P7349-CPLR-005
0
CIRCLE
8
HOLES
10
666.5
20
4779.1
30
0.0
40
16.50
0
TEXT
8
TEXT
10
650.0
20
4798.6
30
0.0
40
6.0
1
P7349-CPLR-007
0
CIRCLE
8
HOLES
10
867.5
20
4779.1
30
0.0
40
16.50
0
TEXT
8
TEXT
10
851.0
20
4798.6
30
0.0
40
6.0
1
P7349-CPLR-009
0
CIRCLE
8
HOLES
10
1060.5
20
4779.1
30
0.0
40
16.50
0
TEXT
8
TEXT
10
1044.0
20
4798.6
30
0.0
40
6.0
1
P7349-CPLR-011
0
CIRCLE
8
HOLES
10
1260.5
20
4779.1
30
0.0
40
16.50
0
TEXT
8
TEXT
10
1244.0
20
4798.6
30
0.0
40
6.0
1
P7349-CPLR-013
0
CIRCLE
8
HOLES
10
1460.5
20
4779.1
30
0.0
40
16.50
0
TEXT
8
TEXT
10
1444.0
20
4798.6
30
0.0
40
6.0
1
P7349-CPLR-015
0
CIRCLE
8
HOLES
10
1660.5
20
4779.1
30
0.0
40
16.50
0
TEXT
8
TEXT
10
1644.0
20
4798.6
30
0.0
40
6.0
1
P7349-CPLR-017
0
CIRCLE
8
HOLES
10
1860.5
20
4779.1
30
0.0
40
16.50
0
TEXT
8
TEXT
10
1844.0
20
4798.6
30
0.0
40
6.0
1
P7349-CPLR-019
0
LINE
8
DIMS
10
80.0
20
4779.1
30
0.0
11
105.0
21
4779.1
31
0.0
0
LINE
8
DIMS
10
80.0
20
4775.1
30
0.0
11
80.0
21
4783.1
31
0.0
0
LINE
8
DIMS
10
105.0
20
4775.1
30
0.0
11
105.0
21
4783.1
31
0.0
0
TEXT
8
DIMS
10
88.5
20
4784.1
30
0.0
40
7.0
1
25
0
LINE
8
DIMS
10
1877.0
20
4779.1
30
0.0
11
1902.0
21
4779.1
31
0.0
0
LINE
8
DIMS
10
1877.0
20
4775.1
30
0.0
11
1877.0
21
4783.1
31
0.0
0
LINE
8
DIMS
10
1902.0
20
4775.1
30
0.0
11
1902.0
21
4783.1
31
0.0
0
TEXT
8
DIMS
10
1885.5
20
4784.1
30
0.0
40
7.0
1
25
0
LINE
8
DIMS
10
121.5
20
4737.6
30
0.0
11
121.5
21
4762.6
31
0.0
0
LINE
8
DIMS
10
117.5
20
4737.6
30
0.0
11
125.5
21
4737.6
31
0.0
0
LINE
8
DIMS
10
117.5
20
4762.6
30
0.0
11
125.5
21
4762.6
31
0.0
0
TEXT
8
DIMS
10
126.5
20
4750.1
30
0.0
40
7.0
1
25
0
LINE
8
DIMS
10
1860.5
20
4795.6
30
0.0
11
1860.5
21
4820.6
31
0.0
0
LINE
8
DIMS
10
1856.5
20
4795.6
30
0.0
11
1864.5
21
4795.6
31
0.0
0
LINE
8
DIMS
10
1856.5
20
4820.6
30
0.0
11
1864.5
21
4820.6
31
0.0
0
TEXT
8
DIMS
10
1865.5
20
4808.1
30
0.0
40
7.0
1
25
0
LINE
8
PLATE_OUTLINE
10
80.0
20
4962.6
30
0.0
11
1859.1
21
4962.6
31
0.0
0
LINE
8
PLATE_OUTLINE
10
1859.1
20
4962.6
30
0.0
11
1859.1
21
5045.6
31
0.0
0
LINE
8
PLATE_OUTLINE
10
1859.1
20
5045.6
30
0.0
11
80.0
21
5045.6
31
0.0
0
LINE
8
PLATE_OUTLINE
10
80.0
20
5045.6
30
0.0
11
80.0
21
4962.6
31
0.0
0
TEXT
8
TEXT
10
80.0
20
5051.6
30
0.0
40
10.0
1
HS-PLATE-02  1779 x 83 mm  (10 holes)
0
LINE
8
DIMS
10
80.0
20
4942.6
30
0.0
11
1859.1
21
4942.6
31
0.0
0
LINE
8
DIMS
10
80.0
20
4938.6
30
0.0
11
80.0
21
4946.6
31
0.0
0
LINE
8
DIMS
10
1859.1
20
4938.6
30
0.0
11
1859.1
21
4946.6
31
0.0
0
TEXT
8
DIMS
10
965.5
20
4947.6
30
0.0
40
7.0
1
1779 mm
0
LINE
8
DIMS
10
60.0
20
4962.6
30
0.0
11
60.0
21
5045.6
31
0.0
0
LINE
8
DIMS
10
56.0
20
4962.6
30
0.0
11
64.0
21
4962.6
31
0.0
0
LINE
8
DIMS
10
56.0
20
5045.6
30
0.0
11
64.0
21
5045.6
31
0.0
0
TEXT
8
DIMS
10
65.0
20
5004.1
30
0.0
40
7.0
1
83 mm
0
CIRCLE
8
HOLES
10
121.5
20
5004.1
30
0.0
40
16.50
0
TEXT
8
TEXT
10
105.0
20
5023.6
30
0.0
40
6.0
1
P7349-CPLR-021
0
CIRCLE
8
HOLES
10
321.5
20
5004.1
30
0.0
40
16.50
0
TEXT
8
TEXT
10
305.0
20
5023.6
30
0.0
40
6.0
1
P7349-CPLR-023
0
CIRCLE
8
HOLES
10
521.5
20
5004.1
30
0.0
40
16.50
0
TEXT
8
TEXT
10
505.0
20
5023.6
30
0.0
40
6.0
1
P7349-CPLR-025
0
CIRCLE
8
HOLES
10
720.5
20
5004.1
30
0.0
40
16.50
0
TEXT
8
TEXT
10
704.0
20
5023.6
30
0.0
40
6.0
1
P7349-CPLR-027
0
CIRCLE
8
HOLES
10
920.5
20
5004.1
30
0.0
40
16.50
0
TEXT
8
TEXT
10
904.0
20
5023.6
30
0.0
40
6.0
1
P7349-CPLR-029
0
CIRCLE
8
HOLES
10
1120.5
20
5004.1
30
0.0
40
16.50
0
TEXT
8
TEXT
10
1104.0
20
5023.6
30
0.0
40
6.0
1
P7349-CPLR-031
0
CIRCLE
8
HOLES
10
1321.5
20
5004.1
30
0.0
40
16.50
0
TEXT
8
TEXT
10
1305.0
20
5023.6
30
0.0
40
6.0
1
P7349-CPLR-033
0
CIRCLE
8
HOLES
10
1481.5
20
5004.1
30
0.0
40
16.50
0
TEXT
8
TEXT
10
1465.0
20
5023.6
30
0.0
40
6.0
1
P7349-CPLR-035
0
CIRCLE
8
HOLES
10
1642.6
20
5004.1
30
0.0
40
16.50
0
TEXT
8
TEXT
10
1626.1
20
5023.6
30
0.0
40
6.0
1
P7349-CPLR-037
0
CIRCLE
8
HOLES
10
1817.6
20
5004.1
30
0.0
40
16.50
0
TEXT
8
TEXT
10
1801.1
20
5023.6
30
0.0
40
6.0
1
P7349-CPLR-039
0
LINE
8
DIMS
10
80.0
20
5004.1
30
0.0
11
105.0
21
5004.1
31
0.0
0
LINE
8
DIMS
10
80.0
20
5000.1
30
0.0
11
80.0
21
5008.1
31
0.0
0
LINE
8
DIMS
10
105.0
20
5000.1
30
0.0
11
105.0
21
5008.1
31
0.0
0
TEXT
8
DIMS
10
88.5
20
5009.1
30
0.0
40
7.0
1
25
0
LINE
8
DIMS
10
1834.1
20
5004.1
30
0.0
11
1859.1
21
5004.1
31
0.0
0
LINE
8
DIMS
10
1834.1
20
5000.1
30
0.0
11
1834.1
21
5008.1
31
0.0
0
LINE
8
DIMS
10
1859.1
20
5000.1
30
0.0
11
1859.1
21
5008.1
31
0.0
0
TEXT
8
DIMS
10
1842.6
20
5009.1
30
0.0
40
7.0
1
25
0
LINE
8
DIMS
10
121.5
20
4962.6
30
0.0
11
121.5
21
4987.6
31
0.0
0
LINE
8
DIMS
10
117.5
20
4962.6
30
0.0
11
125.5
21
4962.6
31
0.0
0
LINE
8
DIMS
10
117.5
20
4987.6
30
0.0
11
125.5
21
4987.6
31
0.0
0
TEXT
8
DIMS
10
126.5
20
4975.1
30
0.0
40
7.0
1
25
0
LINE
8
DIMS
10
1817.6
20
5020.6
30
0.0
11
1817.6
21
5045.6
31
0.0
0
LINE
8
DIMS
10
1813.6
20
5020.6
30
0.0
11
1821.6
21
5020.6
31
0.0
0
LINE
8
DIMS
10
1813.6
20
5045.6
30
0.0
11
1821.6
21
5045.6
31
0.0
0
TEXT
8
DIMS
10
1822.6
20
5033.1
30
0.0
40
7.0
1
25
0
LINE
8
PLATE_OUTLINE
10
80.0
20
5187.6
30
0.0
11
1108.1
21
5187.6
31
0.0
0
LINE
8
PLATE_OUTLINE
10
1108.1
20
5187.6
30
0.0
11
1108.1
21
5271.0
31
0.0
0
LINE
8
PLATE_OUTLINE
10
1108.1
20
5271.0
30
0.0
11
80.0
21
5271.0
31
0.0
0
LINE
8
PLATE_OUTLINE
10
80.0
20
5271.0
30
0.0
11
80.0
21
5187.6
31
0.0
0
TEXT
8
TEXT
10
80.0
20
5277.0
30
0.0
40
10.0
1
HS-PLATE-03  1028 x 83 mm  (4 holes)
0
LINE
8
DIMS
10
80.0
20
5167.6
30
0.0
11
1108.1
21
5167.6
31
0.0
0
LINE
8
DIMS
10
80.0
20
5163.6
30
0.0
11
80.0
21
5171.6
31
0.0
0
LINE
8
DIMS
10
1108.1
20
5163.6
30
0.0
11
1108.1
21
5171.6
31
0.0
0
TEXT
8
DIMS
10
590.0
20
5172.6
30
0.0
40
7.0
1
1028 mm
0
LINE
8
DIMS
10
60.0
20
5187.6
30
0.0
11
60.0
21
5271.0
31
0.0
0
LINE
8
DIMS
10
56.0
20
5187.6
30
0.0
11
64.0
21
5187.6
31
0.0
0
LINE
8
DIMS
10
56.0
20
5271.0
30
0.0
11
64.0
21
5271.0
31
0.0
0
TEXT
8
DIMS
10
65.0
20
5229.3
30
0.0
40
7.0
1
83 mm
0
CIRCLE
8
HOLES
10
121.5
20
5229.1
30
0.0
40
16.50
0
TEXT
8
TEXT
10
105.0
20
5248.6
30
0.0
40
6.0
1
P7349-CPLR-040
0
CIRCLE
8
HOLES
10
341.5
20
5229.1
30
0.0
40
16.50
0
TEXT
8
TEXT
10
325.0
20
5248.6
30
0.0
40
6.0
1
P7349-CPLR-043
0
CIRCLE
8
HOLES
10
946.6
20
5229.5
30
0.0
40
16.50
0
TEXT
8
TEXT
10
930.1
20
5249.0
30
0.0
40
6.0
1
P7349-CPLR-046
0
CIRCLE
8
HOLES
10
1066.6
20
5229.5
30
0.0
40
16.50
0
TEXT
8
TEXT
10
1050.1
20
5249.0
30
0.0
40
6.0
1
P7349-CPLR-061
0
LINE
8
DIMS
10
80.0
20
5229.1
30
0.0
11
105.0
21
5229.1
31
0.0
0
LINE
8
DIMS
10
80.0
20
5225.1
30
0.0
11
80.0
21
5233.1
31
0.0
0
LINE
8
DIMS
10
105.0
20
5225.1
30
0.0
11
105.0
21
5233.1
31
0.0
0
TEXT
8
DIMS
10
88.5
20
5234.1
30
0.0
40
7.0
1
25
0
LINE
8
DIMS
10
1083.1
20
5229.5
30
0.0
11
1108.1
21
5229.5
31
0.0
0
LINE
8
DIMS
10
1083.1
20
5225.5
30
0.0
11
1083.1
21
5233.5
31
0.0
0
LINE
8
DIMS
10
1108.1
20
5225.5
30
0.0
11
1108.1
21
5233.5
31
0.0
0
TEXT
8
DIMS
10
1091.6
20
5234.5
30
0.0
40
7.0
1
25
0
LINE
8
DIMS
10
121.5
20
5187.6
30
0.0
11
121.5
21
5212.6
31
0.0
0
LINE
8
DIMS
10
117.5
20
5187.6
30
0.0
11
125.5
21
5187.6
31
0.0
0
LINE
8
DIMS
10
117.5
20
5212.6
30
0.0
11
125.5
21
5212.6
31
0.0
0
TEXT
8
DIMS
10
126.5
20
5200.1
30
0.0
40
7.0
1
25
0
LINE
8
DIMS
10
1066.6
20
5246.0
30
0.0
11
1066.6
21
5271.0
31
0.0
0
LINE
8
DIMS
10
1062.6
20
5246.0
30
0.0
11
1070.6
21
5246.0
31
0.0
0
LINE
8
DIMS
10
1062.6
20
5271.0
30
0.0
11
1070.6
21
5271.0
31
0.0
0
TEXT
8
DIMS
10
1071.6
20
5258.5
30
0.0
40
7.0
1
25
0
LINE
8
PLATE_OUTLINE
10
80.0
20
5413.0
30
0.0
11
1903.0
21
5413.0
31
0.0
0
LINE
8
PLATE_OUTLINE
10
1903.0
20
5413.0
30
0.0
11
1903.0
21
5496.0
31
0.0
0
LINE
8
PLATE_OUTLINE
10
1903.0
20
5496.0
30
0.0
11
80.0
21
5496.0
31
0.0
0
LINE
8
PLATE_OUTLINE
10
80.0
20
5496.0
30
0.0
11
80.0
21
5413.0
31
0.0
0
TEXT
8
TEXT
10
80.0
20
5502.0
30
0.0
40
10.0
1
HS-PLATE-04  1823 x 83 mm  (10 holes)
0
LINE
8
DIMS
10
80.0
20
5393.0
30
0.0
11
1903.0
21
5393.0
31
0.0
0
LINE
8
DIMS
10
80.0
20
5389.0
30
0.0
11
80.0
21
5397.0
31
0.0
0
LINE
8
DIMS
10
1903.0
20
5389.0
30
0.0
11
1903.0
21
5397.0
31
0.0
0
TEXT
8
DIMS
10
987.5
20
5398.0
30
0.0
40
7.0
1
1823 mm
0
LINE
8
DIMS
10
60.0
20
5413.0
30
0.0
11
60.0
21
5496.0
31
0.0
0
LINE
8
DIMS
10
56.0
20
5413.0
30
0.0
11
64.0
21
5413.0
31
0.0
0
LINE
8
DIMS
10
56.0
20
5496.0
30
0.0
11
64.0
21
5496.0
31
0.0
0
TEXT
8
DIMS
10
65.0
20
5454.5
30
0.0
40
7.0
1
83 mm
0
CIRCLE
8
HOLES
10
121.5
20
5454.5
30
0.0
40
16.50
0
TEXT
8
TEXT
10
105.0
20
5474.0
30
0.0
40
6.0
1
P7349-CPLR-002
0
CIRCLE
8
HOLES
10
261.5
20
5454.5
30
0.0
40
16.50
0
TEXT
8
TEXT
10
245.0
20
5474.0
30
0.0
40
6.0
1
P7349-CPLR-004
0
CIRCLE
8
HOLES
10
461.5
20
5454.5
30
0.0
40
16.50
0
TEXT
8
TEXT
10
445.0
20
5474.0
30
0.0
40
6.0
1
P7349-CPLR-006
0
CIRCLE
8
HOLES
10
661.5
20
5454.5
30
0.0
40
16.50
0
TEXT
8
TEXT
10
645.0
20
5474.0
30
0.0
40
6.0
1
P7349-CPLR-008
0
CIRCLE
8
HOLES
10
861.5
20
5454.5
30
0.0
40
16.50
0
TEXT
8
TEXT
10
845.0
20
5474.0
30
0.0
40
6.0
1
P7349-CPLR-010
0
CIRCLE
8
HOLES
10
1061.5
20
5454.5
30
0.0
40
16.50
0
TEXT
8
TEXT
10
1045.0
20
5474.0
30
0.0
40
6.0
1
P7349-CPLR-012
0
CIRCLE
8
HOLES
10
1261.5
20
5454.5
30
0.0
40
16.50
0
TEXT
8
TEXT
10
1245.0
20
5474.0
30
0.0
40
6.0
1
P7349-CPLR-014
0
CIRCLE
8
HOLES
10
1461.5
20
5454.5
30
0.0
40
16.50
0
TEXT
8
TEXT
10
1445.0
20
5474.0
30
0.0
40
6.0
1
P7349-CPLR-016
0
CIRCLE
8
HOLES
10
1661.5
20
5454.5
30
0.0
40
16.50
0
TEXT
8
TEXT
10
1645.0
20
5474.0
30
0.0
40
6.0
1
P7349-CPLR-018
0
CIRCLE
8
HOLES
10
1861.5
20
5454.5
30
0.0
40
16.50
0
TEXT
8
TEXT
10
1845.0
20
5474.0
30
0.0
40
6.0
1
P7349-CPLR-020
0
LINE
8
DIMS
10
80.0
20
5454.5
30
0.0
11
105.0
21
5454.5
31
0.0
0
LINE
8
DIMS
10
80.0
20
5450.5
30
0.0
11
80.0
21
5458.5
31
0.0
0
LINE
8
DIMS
10
105.0
20
5450.5
30
0.0
11
105.0
21
5458.5
31
0.0
0
TEXT
8
DIMS
10
88.5
20
5459.5
30
0.0
40
7.0
1
25
0
LINE
8
DIMS
10
1878.0
20
5454.5
30
0.0
11
1903.0
21
5454.5
31
0.0
0
LINE
8
DIMS
10
1878.0
20
5450.5
30
0.0
11
1878.0
21
5458.5
31
0.0
0
LINE
8
DIMS
10
1903.0
20
5450.5
30
0.0
11
1903.0
21
5458.5
31
0.0
0
TEXT
8
DIMS
10
1886.5
20
5459.5
30
0.0
40
7.0
1
25
0
LINE
8
DIMS
10
121.5
20
5413.0
30
0.0
11
121.5
21
5438.0
31
0.0
0
LINE
8
DIMS
10
117.5
20
5413.0
30
0.0
11
125.5
21
5413.0
31
0.0
0
LINE
8
DIMS
10
117.5
20
5438.0
30
0.0
11
125.5
21
5438.0
31
0.0
0
TEXT
8
DIMS
10
126.5
20
5425.5
30
0.0
40
7.0
1
25
0
LINE
8
DIMS
10
1861.5
20
5471.0
30
0.0
11
1861.5
21
5496.0
31
0.0
0
LINE
8
DIMS
10
1857.5
20
5471.0
30
0.0
11
1865.5
21
5471.0
31
0.0
0
LINE
8
DIMS
10
1857.5
20
5496.0
30
0.0
11
1865.5
21
5496.0
31
0.0
0
TEXT
8
DIMS
10
1866.5
20
5483.5
30
0.0
40
7.0
1
25
0
LINE
8
PLATE_OUTLINE
10
80.0
20
5638.0
30
0.0
11
1921.0
21
5638.0
31
0.0
0
LINE
8
PLATE_OUTLINE
10
1921.0
20
5638.0
30
0.0
11
1921.0
21
5721.0
31
0.0
0
LINE
8
PLATE_OUTLINE
10
1921.0
20
5721.0
30
0.0
11
80.0
21
5721.0
31
0.0
0
LINE
8
PLATE_OUTLINE
10
80.0
20
5721.0
30
0.0
11
80.0
21
5638.0
31
0.0
0
TEXT
8
TEXT
10
80.0
20
5727.0
30
0.0
40
10.0
1
HS-PLATE-05  1841 x 83 mm  (10 holes)
0
LINE
8
DIMS
10
80.0
20
5618.0
30
0.0
11
1921.0
21
5618.0
31
0.0
0
LINE
8
DIMS
10
80.0
20
5614.0
30
0.0
11
80.0
21
5622.0
31
0.0
0
LINE
8
DIMS
10
1921.0
20
5614.0
30
0.0
11
1921.0
21
5622.0
31
0.0
0
TEXT
8
DIMS
10
996.5
20
5623.0
30
0.0
40
7.0
1
1841 mm
0
LINE
8
DIMS
10
60.0
20
5638.0
30
0.0
11
60.0
21
5721.0
31
0.0
0
LINE
8
DIMS
10
56.0
20
5638.0
30
0.0
11
64.0
21
5638.0
31
0.0
0
LINE
8
DIMS
10
56.0
20
5721.0
30
0.0
11
64.0
21
5721.0
31
0.0
0
TEXT
8
DIMS
10
65.0
20
5679.5
30
0.0
40
7.0
1
83 mm
0
CIRCLE
8
HOLES
10
121.5
20
5679.5
30
0.0
40
16.50
0
TEXT
8
TEXT
10
105.0
20
5699.0
30
0.0
40
6.0
1
P7349-CPLR-022
0
CIRCLE
8
HOLES
10
321.5
20
5679.5
30
0.0
40
16.50
0
TEXT
8
TEXT
10
305.0
20
5699.0
30
0.0
40
6.0
1
P7349-CPLR-024
0
CIRCLE
8
HOLES
10
521.5
20
5679.5
30
0.0
40
16.50
0
TEXT
8
TEXT
10
505.0
20
5699.0
30
0.0
40
6.0
1
P7349-CPLR-026
0
CIRCLE
8
HOLES
10
721.5
20
5679.5
30
0.0
40
16.50
0
TEXT
8
TEXT
10
705.0
20
5699.0
30
0.0
40
6.0
1
P7349-CPLR-028
0
CIRCLE
8
HOLES
10
921.5
20
5679.5
30
0.0
40
16.50
0
TEXT
8
TEXT
10
905.0
20
5699.0
30
0.0
40
6.0
1
P7349-CPLR-030
0
CIRCLE
8
HOLES
10
1121.5
20
5679.5
30
0.0
40
16.50
0
TEXT
8
TEXT
10
1105.0
20
5699.0
30
0.0
40
6.0
1
P7349-CPLR-032
0
CIRCLE
8
HOLES
10
1271.5
20
5679.5
30
0.0
40
16.50
0
TEXT
8
TEXT
10
1255.0
20
5699.0
30
0.0
40
6.0
1
P7349-CPLR-034
0
CIRCLE
8
HOLES
10
1463.5
20
5679.5
30
0.0
40
16.50
0
TEXT
8
TEXT
10
1447.0
20
5699.0
30
0.0
40
6.0
1
P7349-CPLR-036
0
CIRCLE
8
HOLES
10
1638.5
20
5679.5
30
0.0
40
16.50
0
TEXT
8
TEXT
10
1622.0
20
5699.0
30
0.0
40
6.0
1
P7349-CPLR-038
0
CIRCLE
8
HOLES
10
1879.5
20
5679.5
30
0.0
40
16.50
0
TEXT
8
TEXT
10
1863.0
20
5699.0
30
0.0
40
6.0
1
P7349-CPLR-041
0
LINE
8
DIMS
10
80.0
20
5679.5
30
0.0
11
105.0
21
5679.5
31
0.0
0
LINE
8
DIMS
10
80.0
20
5675.5
30
0.0
11
80.0
21
5683.5
31
0.0
0
LINE
8
DIMS
10
105.0
20
5675.5
30
0.0
11
105.0
21
5683.5
31
0.0
0
TEXT
8
DIMS
10
88.5
20
5684.5
30
0.0
40
7.0
1
25
0
LINE
8
DIMS
10
1896.0
20
5679.5
30
0.0
11
1921.0
21
5679.5
31
0.0
0
LINE
8
DIMS
10
1896.0
20
5675.5
30
0.0
11
1896.0
21
5683.5
31
0.0
0
LINE
8
DIMS
10
1921.0
20
5675.5
30
0.0
11
1921.0
21
5683.5
31
0.0
0
TEXT
8
DIMS
10
1904.5
20
5684.5
30
0.0
40
7.0
1
25
0
LINE
8
DIMS
10
121.5
20
5638.0
30
0.0
11
121.5
21
5663.0
31
0.0
0
LINE
8
DIMS
10
117.5
20
5638.0
30
0.0
11
125.5
21
5638.0
31
0.0
0
LINE
8
DIMS
10
117.5
20
5663.0
30
0.0
11
125.5
21
5663.0
31
0.0
0
TEXT
8
DIMS
10
126.5
20
5650.5
30
0.0
40
7.0
1
25
0
LINE
8
DIMS
10
1879.5
20
5696.0
30
0.0
11
1879.5
21
5721.0
31
0.0
0
LINE
8
DIMS
10
1875.5
20
5696.0
30
0.0
11
1883.5
21
5696.0
31
0.0
0
LINE
8
DIMS
10
1875.5
20
5721.0
30
0.0
11
1883.5
21
5721.0
31
0.0
0
TEXT
8
DIMS
10
1884.5
20
5708.5
30
0.0
40
7.0
1
25
0
LINE
8
PLATE_OUTLINE
10
80.0
20
5863.0
30
0.0
11
890.9
21
5863.0
31
0.0
0
LINE
8
PLATE_OUTLINE
10
890.9
20
5863.0
30
0.0
11
890.9
21
5947.0
31
0.0
0
LINE
8
PLATE_OUTLINE
10
890.9
20
5947.0
30
0.0
11
80.0
21
5947.0
31
0.0
0
LINE
8
PLATE_OUTLINE
10
80.0
20
5947.0
30
0.0
11
80.0
21
5863.0
31
0.0
0
TEXT
8
TEXT
10
80.0
20
5953.0
30
0.0
40
10.0
1
HS-PLATE-06  811 x 84 mm  (5 holes)
0
LINE
8
DIMS
10
80.0
20
5843.0
30
0.0
11
890.9
21
5843.0
31
0.0
0
LINE
8
DIMS
10
80.0
20
5839.0
30
0.0
11
80.0
21
5847.0
31
0.0
0
LINE
8
DIMS
10
890.9
20
5839.0
30
0.0
11
890.9
21
5847.0
31
0.0
0
TEXT
8
DIMS
10
481.4
20
5848.0
30
0.0
40
7.0
1
811 mm
0
LINE
8
DIMS
10
60.0
20
5863.0
30
0.0
11
60.0
21
5947.0
31
0.0
0
LINE
8
DIMS
10
56.0
20
5863.0
30
0.0
11
64.0
21
5863.0
31
0.0
0
LINE
8
DIMS
10
56.0
20
5947.0
30
0.0
11
64.0
21
5947.0
31
0.0
0
TEXT
8
DIMS
10
65.0
20
5905.0
30
0.0
40
7.0
1
84 mm
0
CIRCLE
8
HOLES
10
121.5
20
5905.0
30
0.0
40
16.50
0
TEXT
8
TEXT
10
105.0
20
5924.5
30
0.0
40
6.0
1
P7349-CPLR-042
0
CIRCLE
8
HOLES
10
297.5
20
5905.0
30
0.0
40
16.50
0
TEXT
8
TEXT
10
281.0
20
5924.5
30
0.0
40
6.0
1
P7349-CPLR-044
0
CIRCLE
8
HOLES
10
495.5
20
5905.0
30
0.0
40
16.50
0
TEXT
8
TEXT
10
479.0
20
5924.5
30
0.0
40
6.0
1
P7349-CPLR-045
0
CIRCLE
8
HOLES
10
731.4
20
5905.5
30
0.0
40
16.50
0
TEXT
8
TEXT
10
714.9
20
5925.0
30
0.0
40
6.0
1
P7349-CPLR-047
0
CIRCLE
8
HOLES
10
849.4
20
5904.5
30
0.0
40
16.50
0
TEXT
8
TEXT
10
832.9
20
5924.0
30
0.0
40
6.0
1
P7349-CPLR-062
0
LINE
8
DIMS
10
80.0
20
5905.0
30
0.0
11
105.0
21
5905.0
31
0.0
0
LINE
8
DIMS
10
80.0
20
5901.0
30
0.0
11
80.0
21
5909.0
31
0.0
0
LINE
8
DIMS
10
105.0
20
5901.0
30
0.0
11
105.0
21
5909.0
31
0.0
0
TEXT
8
DIMS
10
88.5
20
5910.0
30
0.0
40
7.0
1
25
0
LINE
8
DIMS
10
865.9
20
5904.5
30
0.0
11
890.9
21
5904.5
31
0.0
0
LINE
8
DIMS
10
865.9
20
5900.5
30
0.0
11
865.9
21
5908.5
31
0.0
0
LINE
8
DIMS
10
890.9
20
5900.5
30
0.0
11
890.9
21
5908.5
31
0.0
0
TEXT
8
DIMS
10
874.4
20
5909.5
30
0.0
40
7.0
1
25
0
LINE
8
DIMS
10
849.4
20
5863.0
30
0.0
11
849.4
21
5888.0
31
0.0
0
LINE
8
DIMS
10
845.4
20
5863.0
30
0.0
11
853.4
21
5863.0
31
0.0
0
LINE
8
DIMS
10
845.4
20
5888.0
30
0.0
11
853.4
21
5888.0
31
0.0
0
TEXT
8
DIMS
10
854.4
20
5875.5
30
0.0
40
7.0
1
25
0
LINE
8
DIMS
10
731.4
20
5922.0
30
0.0
11
731.4
21
5947.0
31
0.0
0
LINE
8
DIMS
10
727.4
20
5922.0
30
0.0
11
735.4
21
5922.0
31
0.0
0
LINE
8
DIMS
10
727.4
20
5947.0
30
0.0
11
735.4
21
5947.0
31
0.0
0
TEXT
8
DIMS
10
736.4
20
5934.5
30
0.0
40
7.0
1
25
0
ENDSEC
0
EOF