0
SECTION
2
HEADER
9
$ACADVER
1
AC1009
9
$INSUNITS
70
4
0
ENDSEC
0
SECTION
2
TABLES
0
TABLE
2
LTYPE
70
1
0
LTYPE
2
CONTINUOUS
70
0
3
Solid line
72
65
73
0
40
0.0
0
ENDTAB
0
TABLE
2
LAYER
70
2
0
LAYER
2
BARS
70
0
62
2
6
CONTINUOUS
0
LAYER
2
TEXT
70
0
62
7
6
CONTINUOUS
0
ENDTAB
0
ENDSEC
0
SECTION
2
BLOCKS
0
ENDSEC
0
SECTION
2
ENTITIES
0
LINE
8
BARS
10
10293.020
20
2256.996
30
0.000
11
18.020
21
2256.996
31
0.000
0
LINE
8
BARS
10
10293.020
20
2653.000
30
0.000
11
18.020
21
2653.000
31
0.000
0
LINE
8
BARS
10
10325.000
20
1649.496
30
0.000
11
0.000
21
1649.496
31
0.000
0
LINE
8
BARS
10
10293.007
20
438.000
30
0.000
11
18.007
21
438.000
31
0.000
0
LINE
8
BARS
10
10293.007
20
675.000
30
0.000
11
18.007
21
675.000
31
0.000
0
LINE
8
BARS
10
10293.007
20
823.000
30
0.000
11
18.007
21
823.000
31
0.000
0
LINE
8
BARS
10
10293.007
20
983.000
30
0.000
11
18.007
21
983.000
31
0.000
0
LINE
8
BARS
10
10325.004
20
1428.496
30
0.000
11
0.004
21
1428.496
31
0.000
0
LINE
8
BARS
10
10293.050
20
2053.002
30
0.000
11
18.050
21
2053.002
31
0.000
0
LINE
8
BARS
10
10293.030
20
2453.002
30
0.000
11
18.030
21
2453.002
31
0.000
0
LINE
8
BARS
10
10293.020
20
2853.002
30
0.000
11
18.020
21
2853.002
31
0.000
0
LINE
8
BARS
10
10292.990
20
1202.502
30
0.000
11
17.990
21
1202.502
31
0.000
0
LINE
8
BARS
10
10293.070
20
1890.002
30
0.000
11
18.070
21
1890.002
31
0.000
0
LINE
8
BARS
10
10293.010
20
3002.042
30
0.000
11
18.010
21
3002.042
31
0.000
0
LINE
8
BARS
10
10293.010
20
3253.002
30
0.000
11
18.010
21
3253.002
31
0.000
0
LINE
8
BARS
10
10293.010
20
3453.002
30
0.000
11
18.010
21
3453.002
31
0.000
0
LINE
8
BARS
10
10293.010
20
3653.002
30
0.000
11
18.010
21
3653.002
31
0.000
0
LINE
8
BARS
10
10293.010
20
3853.002
30
0.000
11
18.010
21
3853.002
31
0.000
0
LINE
8
BARS
10
10293.010
20
4052.002
30
0.000
11
18.010
21
4052.002
31
0.000
0
LINE
8
BARS
10
10293.010
20
4253.002
30
0.000
11
18.010
21
4253.002
31
0.000
0
LINE
8
BARS
10
10293.010
20
4458.002
30
0.000
11
18.010
21
4458.002
31
0.000
0
LINE
8
BARS
10
10293.010
20
4653.002
30
0.000
11
18.010
21
4653.002
31
0.000
0
LINE
8
BARS
10
6718.470
20
24.000
30
0.000
11
6718.470
21
5249.000
31
0.000
0
LINE
8
BARS
10
9867.950
20
55.000
30
0.000
11
9867.950
21
5230.000
31
0.000
0
LINE
8
BARS
10
6034.450
20
0.000
30
0.000
11
6034.450
21
5225.000
31
0.000
0
LINE
8
BARS
10
6223.450
20
24.000
30
0.000
11
6223.450
21
5249.000
31
0.000
0
LINE
8
BARS
10
5869.910
20
24.000
30
0.000
11
5869.910
21
5249.000
31
0.000
0
LINE
8
BARS
10
5698.990
20
24.000
30
0.000
11
5698.990
21
5249.000
31
0.000
0
LINE
8
BARS
10
5502.990
20
56.000
30
0.000
11
5502.990
21
5231.000
31
0.000
0
LINE
8
BARS
10
5307.990
20
56.000
30
0.000
11
5307.990
21
5231.000
31
0.000
0
LINE
8
BARS
10
5102.990
20
56.000
30
0.000
11
5102.990
21
5231.000
31
0.000
0
LINE
8
BARS
10
6538.470
20
24.000
30
0.000
11
6538.470
21
5249.000
31
0.000
0
LINE
8
BARS
10
6913.470
20
24.000
30
0.000
11
6913.470
21
5249.000
31
0.000
0
LINE
8
BARS
10
7073.470
20
24.000
30
0.000
11
7073.470
21
5249.000
31
0.000
0
LINE
8
BARS
10
7323.470
20
24.000
30
0.000
11
7323.470
21
5249.000
31
0.000
0
LINE
8
BARS
10
7523.470
20
24.000
30
0.000
11
7523.470
21
5249.000
31
0.000
0
LINE
8
BARS
10
7753.470
20
24.000
30
0.000
11
7753.470
21
5249.000
31
0.000
0
LINE
8
BARS
10
7883.470
20
24.000
30
0.000
11
7883.470
21
5249.000
31
0.000
0
LINE
8
BARS
10
8023.470
20
24.000
30
0.000
11
8023.470
21
5249.000
31
0.000
0
LINE
8
BARS
10
8218.470
20
24.000
30
0.000
11
8218.470
21
5249.000
31
0.000
0
LINE
8
BARS
10
8468.470
20
24.000
30
0.000
11
8468.470
21
5249.000
31
0.000
0
LINE
8
BARS
10
8668.470
20
24.000
30
0.000
11
8668.470
21
5249.000
31
0.000
0
LINE
8
BARS
10
8873.470
20
24.000
30
0.000
11
8873.470
21
5249.000
31
0.000
0
LINE
8
BARS
10
9073.470
20
24.000
30
0.000
11
9073.470
21
5249.000
31
0.000
0
LINE
8
BARS
10
9273.470
20
24.000
30
0.000
11
9273.470
21
5249.000
31
0.000
0
LINE
8
BARS
10
9473.470
20
24.000
30
0.000
11
9473.470
21
5249.000
31
0.000
0
LINE
8
BARS
10
9673.470
20
24.000
30
0.000
11
9673.470
21
5249.000
31
0.000
0
LINE
8
BARS
10
270.980
20
57.000
30
0.000
11
270.980
21
5232.000
31
0.000
0
LINE
8
BARS
10
470.980
20
57.000
30
0.000
11
470.980
21
5232.000
31
0.000
0
LINE
8
BARS
10
732.650
20
56.000
30
0.000
11
732.650
21
5231.000
31
0.000
0
LINE
8
BARS
10
932.650
20
56.000
30
0.000
11
932.650
21
5231.000
31
0.000
0
LINE
8
BARS
10
1132.650
20
56.000
30
0.000
11
1132.650
21
5231.000
31
0.000
0
LINE
8
BARS
10
1332.650
20
56.000
30
0.000
11
1332.650
21
5231.000
31
0.000
0
LINE
8
BARS
10
1532.650
20
56.000
30
0.000
11
1532.650
21
5231.000
31
0.000
0
LINE
8
BARS
10
1727.650
20
56.000
30
0.000
11
1727.650
21
5231.000
31
0.000
0
LINE
8
BARS
10
1932.650
20
56.000
30
0.000
11
1932.650
21
5231.000
31
0.000
0
LINE
8
BARS
10
2132.650
20
56.000
30
0.000
11
2132.650
21
5231.000
31
0.000
0
LINE
8
BARS
10
2332.650
20
56.000
30
0.000
11
2332.650
21
5231.000
31
0.000
0
LINE
8
BARS
10
2532.650
20
56.000
30
0.000
11
2532.650
21
5231.000
31
0.000
0
LINE
8
BARS
10
2729.650
20
56.000
30
0.000
11
2729.650
21
5231.000
31
0.000
0
LINE
8
BARS
10
2932.650
20
56.000
30
0.000
11
2932.650
21
5231.000
31
0.000
0
LINE
8
BARS
10
3150.650
20
56.000
30
0.000
11
3150.650
21
5231.000
31
0.000
0
LINE
8
BARS
10
3332.650
20
56.000
30
0.000
11
3332.650
21
5231.000
31
0.000
0
LINE
8
BARS
10
3532.650
20
56.000
30
0.000
11
3532.650
21
5231.000
31
0.000
0
LINE
8
BARS
10
3692.650
20
56.000
30
0.000
11
3692.650
21
5231.000
31
0.000
0
LINE
8
BARS
10
3932.650
20
56.000
30
0.000
11
3932.650
21
5231.000
31
0.000
0
LINE
8
BARS
10
4103.650
20
56.000
30
0.000
11
4103.650
21
5231.000
31
0.000
0
LINE
8
BARS
10
4347.650
20
56.000
30
0.000
11
4347.650
21
5231.000
31
0.000
0
LINE
8
BARS
10
4492.650
20
56.000
30
0.000
11
4492.650
21
5231.000
31
0.000
0
LINE
8
BARS
10
4702.650
20
56.000
30
0.000
11
4702.650
21
5231.000
31
0.000
0
LINE
8
BARS
10
4902.650
20
56.000
30
0.000
11
4902.650
21
5231.000
31
0.000
0
LINE
8
BARS
10
10058.290
20
4.000
30
0.000
11
10058.290
21
5229.000
31
0.000
0
TEXT
8
TEXT
10
0.000
20
5289.000
30
0.000
40
18.000
1
P7349_C1  |  F1A  |  72 bars  [centreline]
0
ENDSEC
0
EOF
