0
SECTION
2
HEADER
9
$ACADVER
1
AC1009
9
$TEXTSTYLE
7
ARIAL
0
ENDSEC
0
SECTION
2
TABLES
0
TABLE
2
STYLE
70
1
0
STYLE
2
ARIAL
70
0
40
0.0
41
1.0
50
0.0
71
0
42
0.0
3
arial.ttf
4

0
ENDTAB
0
TABLE
2
LAYER
70
5
0
LAYER
2
PLATE_OUTLINE
70
0
62
1
6
CONTINUOUS
0
LAYER
2
TEXT
70
0
62
7
6
CONTINUOUS
0
LAYER
2
DIMS
70
0
62
7
6
CONTINUOUS
0
LAYER
2
HOLES
70
0
62
7
6
CONTINUOUS
0
LAYER
2
SCREW_HOLES
70
0
62
7
6
CONTINUOUS
0
ENDTAB
0
ENDSEC
0
SECTION
2
ENTITIES
0
TEXT
8
TEXT
10
80.0
20
65.0
30
0.0
40
12.00
1
F1A — P7349_C1  |  74 holes  |  2 VS + 6 HS plates
50
0.0
7
ARIAL
0
LINE
8
PLATE_OUTLINE
10
80.0
20
90.0
30
0.0
11
316.0
21
90.0
31
0.0
0
LINE
8
PLATE_OUTLINE
10
316.0
20
90.0
30
0.0
11
316.0
21
1973.0
31
0.0
0
LINE
8
PLATE_OUTLINE
10
316.0
20
1973.0
30
0.0
11
80.0
21
1973.0
31
0.0
0
LINE
8
PLATE_OUTLINE
10
80.0
20
1973.0
30
0.0
11
80.0
21
90.0
31
0.0
0
CIRCLE
8
SCREW_HOLES
10
85.0
20
95.0
30
0.0
40
2.50
0
CIRCLE
8
SCREW_HOLES
10
311.0
20
95.0
30
0.0
40
2.50
0
CIRCLE
8
SCREW_HOLES
10
85.0
20
1968.0
30
0.0
40
2.50
0
CIRCLE
8
SCREW_HOLES
10
311.0
20
1968.0
30
0.0
40
2.50
0
LINE
8
DIMS
10
80.0
20
70.0
30
0.0
11
316.0
21
70.0
31
0.0
0
LINE
8
DIMS
10
80.0
20
66.0
30
0.0
11
80.0
21
74.0
31
0.0
0
LINE
8
DIMS
10
316.0
20
66.0
30
0.0
11
316.0
21
74.0
31
0.0
0
TEXT
8
DIMS
10
198.0
20
75.0
30
0.0
40
6.00
1
236 mm
50
0.0
7
ARIAL
0
LINE
8
DIMS
10
60.0
20
90.0
30
0.0
11
60.0
21
1973.0
31
0.0
0
LINE
8
DIMS
10
56.0
20
90.0
30
0.0
11
64.0
21
90.0
31
0.0
0
LINE
8
DIMS
10
56.0
20
1973.0
30
0.0
11
64.0
21
1973.0
31
0.0
0
TEXT
8
DIMS
10
65.0
20
1031.5
30
0.0
40
6.00
1
1883 mm
50
0.0
7
ARIAL
0
CIRCLE
8
HOLES
10
121.5
20
131.5
30
0.0
40
16.50
0
TEXT
8
TEXT
10
104.0
20
150.0
30
0.0
40
5.00
1
Ø33mm
50
0.0
7
ARIAL
0
CIRCLE
8
HOLES
10
274.5
20
131.5
30
0.0
40
16.50
0
CIRCLE
8
HOLES
10
121.5
20
366.5
30
0.0
40
16.50
0
CIRCLE
8
HOLES
10
274.5
20
366.5
30
0.0
40
16.50
0
CIRCLE
8
HOLES
10
121.5
20
531.5
30
0.0
40
16.50
0
CIRCLE
8
HOLES
10
274.5
20
531.5
30
0.0
40
16.50
0
CIRCLE
8
HOLES
10
121.5
20
731.5
30
0.0
40
16.50
0
CIRCLE
8
HOLES
10
274.5
20
731.5
30
0.0
40
16.50
0
CIRCLE
8
HOLES
10
121.5
20
951.5
30
0.0
40
16.50
0
CIRCLE
8
HOLES
10
121.5
20
1131.5
30
0.0
40
16.50
0
CIRCLE
8
HOLES
10
274.5
20
1131.5
30
0.0
40
16.50
0
CIRCLE
8
HOLES
10
121.5
20
1331.5
30
0.0
40
16.50
0
CIRCLE
8
HOLES
10
274.5
20
1331.5
30
0.0
40
16.50
0
CIRCLE
8
HOLES
10
121.5
20
1531.5
30
0.0
40
16.50
0
CIRCLE
8
HOLES
10
274.5
20
1531.5
30
0.0
40
16.50
0
CIRCLE
8
HOLES
10
121.5
20
1731.5
30
0.0
40
16.50
0
CIRCLE
8
HOLES
10
274.5
20
1731.5
30
0.0
40
16.50
0
CIRCLE
8
HOLES
10
121.5
20
1931.5
30
0.0
40
16.50
0
CIRCLE
8
HOLES
10
274.5
20
1931.5
30
0.0
40
16.50
0
LINE
8
DIMS
10
-4909.9
20
45.0
30
0.0
11
80.0
21
45.0
31
0.0
0
LINE
8
DIMS
10
-4909.9
20
41.0
30
0.0
11
-4909.9
21
49.0
31
0.0
0
LINE
8
DIMS
10
80.0
20
41.0
30
0.0
11
80.0
21
49.0
31
0.0
0
TEXT
8
DIMS
10
-2414.9
20
50.0
30
0.0
40
6.00
1
4990 mm
50
0.0
7
ARIAL
0
LINE
8
DIMS
10
35.0
20
-1510.0
30
0.0
11
35.0
21
90.0
31
0.0
0
LINE
8
DIMS
10
31.0
20
-1510.0
30
0.0
11
39.0
21
-1510.0
31
0.0
0
LINE
8
DIMS
10
31.0
20
90.0
30
0.0
11
39.0
21
90.0
31
0.0
0
TEXT
8
DIMS
10
40.0
20
-710.0
30
0.0
40
6.00
1
1600 mm
50
0.0
7
ARIAL
0
TEXT
8
TEXT
10
198.5
20
1024.6
30
0.0
40
1.00
1
P7349_C1 - F1A-VS - 001
50
90.0
7
ARIAL
0
LINE
8
PLATE_OUTLINE
10
80.0
20
2093.0
30
0.0
11
316.0
21
2093.0
31
0.0
0
LINE
8
PLATE_OUTLINE
10
316.0
20
2093.0
30
0.0
11
316.0
21
2576.0
31
0.0
0
LINE
8
PLATE_OUTLINE
10
316.0
20
2576.0
30
0.0
11
80.0
21
2576.0
31
0.0
0
LINE
8
PLATE_OUTLINE
10
80.0
20
2576.0
30
0.0
11
80.0
21
2093.0
31
0.0
0
CIRCLE
8
SCREW_HOLES
10
85.0
20
2098.0
30
0.0
40
2.50
0
CIRCLE
8
SCREW_HOLES
10
311.0
20
2098.0
30
0.0
40
2.50
0
CIRCLE
8
SCREW_HOLES
10
85.0
20
2571.0
30
0.0
40
2.50
0
CIRCLE
8
SCREW_HOLES
10
311.0
20
2571.0
30
0.0
40
2.50
0
LINE
8
DIMS
10
80.0
20
2073.0
30
0.0
11
316.0
21
2073.0
31
0.0
0
LINE
8
DIMS
10
80.0
20
2069.0
30
0.0
11
80.0
21
2077.0
31
0.0
0
LINE
8
DIMS
10
316.0
20
2069.0
30
0.0
11
316.0
21
2077.0
31
0.0
0
TEXT
8
DIMS
10
198.0
20
2078.0
30
0.0
40
6.00
1
236 mm
50
0.0
7
ARIAL
0
LINE
8
DIMS
10
60.0
20
2093.0
30
0.0
11
60.0
21
2576.0
31
0.0
0
LINE
8
DIMS
10
56.0
20
2093.0
30
0.0
11
64.0
21
2093.0
31
0.0
0
LINE
8
DIMS
10
56.0
20
2576.0
30
0.0
11
64.0
21
2576.0
31
0.0
0
TEXT
8
DIMS
10
65.0
20
2334.5
30
0.0
40
6.00
1
483 mm
50
0.0
7
ARIAL
0
CIRCLE
8
HOLES
10
121.5
20
2134.5
30
0.0
40
16.50
0
TEXT
8
TEXT
10
104.0
20
2153.0
30
0.0
40
5.00
1
Ø33mm
50
0.0
7
ARIAL
0
CIRCLE
8
HOLES
10
274.5
20
2134.5
30
0.0
40
16.50
0
CIRCLE
8
HOLES
10
121.5
20
2334.5
30
0.0
40
16.50
0
CIRCLE
8
HOLES
10
274.5
20
2334.5
30
0.0
40
16.50
0
CIRCLE
8
HOLES
10
121.5
20
2534.5
30
0.0
40
16.50
0
CIRCLE
8
HOLES
10
274.5
20
2534.5
30
0.0
40
16.50
0
LINE
8
DIMS
10
-4909.9
20
2048.0
30
0.0
11
80.0
21
2048.0
31
0.0
0
LINE
8
DIMS
10
-4909.9
20
2044.0
30
0.0
11
-4909.9
21
2052.0
31
0.0
0
LINE
8
DIMS
10
80.0
20
2044.0
30
0.0
11
80.0
21
2052.0
31
0.0
0
TEXT
8
DIMS
10
-2414.9
20
2053.0
30
0.0
40
6.00
1
4990 mm
50
0.0
7
ARIAL
0
LINE
8
DIMS
10
35.0
20
-1507.0
30
0.0
11
35.0
21
2093.0
31
0.0
0
LINE
8
DIMS
10
31.0
20
-1507.0
30
0.0
11
39.0
21
-1507.0
31
0.0
0
LINE
8
DIMS
10
31.0
20
2093.0
30
0.0
11
39.0
21
2093.0
31
0.0
0
TEXT
8
DIMS
10
40.0
20
293.0
30
0.0
40
6.00
1
3600 mm
50
0.0
7
ARIAL
0
TEXT
8
TEXT
10
198.5
20
2327.6
30
0.0
40
1.00
1
P7349_C1 - F1A-VS - 002
50
90.0
7
ARIAL
0
LINE
8
PLATE_OUTLINE
10
80.0
20
2716.0
30
0.0
11
1902.0
21
2716.0
31
0.0
0
LINE
8
PLATE_OUTLINE
10
1902.0
20
2716.0
30
0.0
11
1902.0
21
2799.0
31
0.0
0
LINE
8
PLATE_OUTLINE
10
1902.0
20
2799.0
30
0.0
11
80.0
21
2799.0
31
0.0
0
LINE
8
PLATE_OUTLINE
10
80.0
20
2799.0
30
0.0
11
80.0
21
2716.0
31
0.0
0
CIRCLE
8
SCREW_HOLES
10
85.0
20
2721.0
30
0.0
40
2.50
0
CIRCLE
8
SCREW_HOLES
10
1897.0
20
2721.0
30
0.0
40
2.50
0
CIRCLE
8
SCREW_HOLES
10
85.0
20
2794.0
30
0.0
40
2.50
0
CIRCLE
8
SCREW_HOLES
10
1897.0
20
2794.0
30
0.0
40
2.50
0
LINE
8
DIMS
10
80.0
20
2696.0
30
0.0
11
1902.0
21
2696.0
31
0.0
0
LINE
8
DIMS
10
80.0
20
2692.0
30
0.0
11
80.0
21
2700.0
31
0.0
0
LINE
8
DIMS
10
1902.0
20
2692.0
30
0.0
11
1902.0
21
2700.0
31
0.0
0
TEXT
8
DIMS
10
991.0
20
2701.0
30
0.0
40
6.00
1
1822 mm
50
0.0
7
ARIAL
0
LINE
8
DIMS
10
60.0
20
2716.0
30
0.0
11
60.0
21
2799.0
31
0.0
0
LINE
8
DIMS
10
56.0
20
2716.0
30
0.0
11
64.0
21
2716.0
31
0.0
0
LINE
8
DIMS
10
56.0
20
2799.0
30
0.0
11
64.0
21
2799.0
31
0.0
0
TEXT
8
DIMS
10
65.0
20
2757.5
30
0.0
40
6.00
1
83 mm
50
0.0
7
ARIAL
0
CIRCLE
8
HOLES
10
121.5
20
2757.5
30
0.0
40
16.50
0
TEXT
8
TEXT
10
104.0
20
2776.0
30
0.0
40
5.00
1
Ø33mm
50
0.0
7
ARIAL
0
CIRCLE
8
HOLES
10
321.5
20
2757.5
30
0.0
40
16.50
0
CIRCLE
8
HOLES
10
461.5
20
2757.5
30
0.0
40
16.50
0
CIRCLE
8
HOLES
10
666.5
20
2757.5
30
0.0
40
16.50
0
CIRCLE
8
HOLES
10
867.5
20
2757.5
30
0.0
40
16.50
0
CIRCLE
8
HOLES
10
1060.5
20
2757.5
30
0.0
40
16.50
0
CIRCLE
8
HOLES
10
1260.5
20
2757.5
30
0.0
40
16.50
0
CIRCLE
8
HOLES
10
1460.5
20
2757.5
30
0.0
40
16.50
0
CIRCLE
8
HOLES
10
1660.5
20
2757.5
30
0.0
40
16.50
0
CIRCLE
8
HOLES
10
1860.5
20
2757.5
30
0.0
40
16.50
0
LINE
8
DIMS
10
-204.7
20
2671.0
30
0.0
11
80.0
21
2671.0
31
0.0
0
LINE
8
DIMS
10
-204.7
20
2667.0
30
0.0
11
-204.7
21
2675.0
31
0.0
0
LINE
8
DIMS
10
80.0
20
2667.0
30
0.0
11
80.0
21
2675.0
31
0.0
0
TEXT
8
DIMS
10
-62.3
20
2676.0
30
0.0
40
6.00
1
285 mm
50
0.0
7
ARIAL
0
LINE
8
DIMS
10
35.0
20
-1503.6
30
0.0
11
35.0
21
2716.0
31
0.0
0
LINE
8
DIMS
10
31.0
20
-1503.6
30
0.0
11
39.0
21
-1503.6
31
0.0
0
LINE
8
DIMS
10
31.0
20
2716.0
30
0.0
11
39.0
21
2716.0
31
0.0
0
TEXT
8
DIMS
10
40.0
20
606.2
30
0.0
40
6.00
1
4220 mm
50
0.0
7
ARIAL
0
TEXT
8
TEXT
10
984.1
20
2757.0
30
0.0
40
1.00
1
P7349_C1 - F1A-HS - 001
50
0.0
7
ARIAL
0
LINE
8
PLATE_OUTLINE
10
80.0
20
2919.0
30
0.0
11
1859.1
21
2919.0
31
0.0
0
LINE
8
PLATE_OUTLINE
10
1859.1
20
2919.0
30
0.0
11
1859.1
21
3002.0
31
0.0
0
LINE
8
PLATE_OUTLINE
10
1859.1
20
3002.0
30
0.0
11
80.0
21
3002.0
31
0.0
0
LINE
8
PLATE_OUTLINE
10
80.0
20
3002.0
30
0.0
11
80.0
21
2919.0
31
0.0
0
CIRCLE
8
SCREW_HOLES
10
85.0
20
2924.0
30
0.0
40
2.50
0
CIRCLE
8
SCREW_HOLES
10
1854.1
20
2924.0
30
0.0
40
2.50
0
CIRCLE
8
SCREW_HOLES
10
85.0
20
2997.0
30
0.0
40
2.50
0
CIRCLE
8
SCREW_HOLES
10
1854.1
20
2997.0
30
0.0
40
2.50
0
LINE
8
DIMS
10
80.0
20
2899.0
30
0.0
11
1859.1
21
2899.0
31
0.0
0
LINE
8
DIMS
10
80.0
20
2895.0
30
0.0
11
80.0
21
2903.0
31
0.0
0
LINE
8
DIMS
10
1859.1
20
2895.0
30
0.0
11
1859.1
21
2903.0
31
0.0
0
TEXT
8
DIMS
10
969.5
20
2904.0
30
0.0
40
6.00
1
1779 mm
50
0.0
7
ARIAL
0
LINE
8
DIMS
10
60.0
20
2919.0
30
0.0
11
60.0
21
3002.0
31
0.0
0
LINE
8
DIMS
10
56.0
20
2919.0
30
0.0
11
64.0
21
2919.0
31
0.0
0
LINE
8
DIMS
10
56.0
20
3002.0
30
0.0
11
64.0
21
3002.0
31
0.0
0
TEXT
8
DIMS
10
65.0
20
2960.5
30
0.0
40
6.00
1
83 mm
50
0.0
7
ARIAL
0
CIRCLE
8
HOLES
10
121.5
20
2960.5
30
0.0
40
16.50
0
TEXT
8
TEXT
10
104.0
20
2979.0
30
0.0
40
5.00
1
Ø33mm
50
0.0
7
ARIAL
0
CIRCLE
8
HOLES
10
321.5
20
2960.5
30
0.0
40
16.50
0
CIRCLE
8
HOLES
10
521.5
20
2960.5
30
0.0
40
16.50
0
CIRCLE
8
HOLES
10
720.5
20
2960.5
30
0.0
40
16.50
0
CIRCLE
8
HOLES
10
920.5
20
2960.5
30
0.0
40
16.50
0
CIRCLE
8
HOLES
10
1120.5
20
2960.5
30
0.0
40
16.50
0
CIRCLE
8
HOLES
10
1321.5
20
2960.5
30
0.0
40
16.50
0
CIRCLE
8
HOLES
10
1481.5
20
2960.5
30
0.0
40
16.50
0
CIRCLE
8
HOLES
10
1642.6
20
2960.5
30
0.0
40
16.50
0
CIRCLE
8
HOLES
10
1817.6
20
2960.5
30
0.0
40
16.50
0
LINE
8
DIMS
10
-2143.7
20
2874.0
30
0.0
11
80.0
21
2874.0
31
0.0
0
LINE
8
DIMS
10
-2143.7
20
2870.0
30
0.0
11
-2143.7
21
2878.0
31
0.0
0
LINE
8
DIMS
10
80.0
20
2870.0
30
0.0
11
80.0
21
2878.0
31
0.0
0
TEXT
8
DIMS
10
-1031.8
20
2879.0
30
0.0
40
6.00
1
2224 mm
50
0.0
7
ARIAL
0
LINE
8
DIMS
10
35.0
20
-1300.6
30
0.0
11
35.0
21
2919.0
31
0.0
0
LINE
8
DIMS
10
31.0
20
-1300.6
30
0.0
11
39.0
21
-1300.6
31
0.0
0
LINE
8
DIMS
10
31.0
20
2919.0
30
0.0
11
39.0
21
2919.0
31
0.0
0
TEXT
8
DIMS
10
40.0
20
809.2
30
0.0
40
6.00
1
4220 mm
50
0.0
7
ARIAL
0
TEXT
8
TEXT
10
962.6
20
2960.0
30
0.0
40
1.00
1
P7349_C1 - F1A-HS - 002
50
0.0
7
ARIAL
0
LINE
8
PLATE_OUTLINE
10
80.0
20
3122.0
30
0.0
11
1108.1
21
3122.0
31
0.0
0
LINE
8
PLATE_OUTLINE
10
1108.1
20
3122.0
30
0.0
11
1108.1
21
3205.4
31
0.0
0
LINE
8
PLATE_OUTLINE
10
1108.1
20
3205.4
30
0.0
11
80.0
21
3205.4
31
0.0
0
LINE
8
PLATE_OUTLINE
10
80.0
20
3205.4
30
0.0
11
80.0
21
3122.0
31
0.0
0
CIRCLE
8
SCREW_HOLES
10
85.0
20
3127.0
30
0.0
40
2.50
0
CIRCLE
8
SCREW_HOLES
10
1103.1
20
3127.0
30
0.0
40
2.50
0
CIRCLE
8
SCREW_HOLES
10
85.0
20
3200.4
30
0.0
40
2.50
0
CIRCLE
8
SCREW_HOLES
10
1103.1
20
3200.4
30
0.0
40
2.50
0
LINE
8
DIMS
10
80.0
20
3102.0
30
0.0
11
1108.1
21
3102.0
31
0.0
0
LINE
8
DIMS
10
80.0
20
3098.0
30
0.0
11
80.0
21
3106.0
31
0.0
0
LINE
8
DIMS
10
1108.1
20
3098.0
30
0.0
11
1108.1
21
3106.0
31
0.0
0
TEXT
8
DIMS
10
594.0
20
3107.0
30
0.0
40
6.00
1
1028 mm
50
0.0
7
ARIAL
0
LINE
8
DIMS
10
60.0
20
3122.0
30
0.0
11
60.0
21
3205.4
31
0.0
0
LINE
8
DIMS
10
56.0
20
3122.0
30
0.0
11
64.0
21
3122.0
31
0.0
0
LINE
8
DIMS
10
56.0
20
3205.4
30
0.0
11
64.0
21
3205.4
31
0.0
0
TEXT
8
DIMS
10
65.0
20
3163.7
30
0.0
40
6.00
1
83 mm
50
0.0
7
ARIAL
0
CIRCLE
8
HOLES
10
121.5
20
3163.5
30
0.0
40
16.50
0
TEXT
8
TEXT
10
104.0
20
3182.0
30
0.0
40
5.00
1
Ø33mm
50
0.0
7
ARIAL
0
CIRCLE
8
HOLES
10
341.5
20
3163.5
30
0.0
40
16.50
0
CIRCLE
8
HOLES
10
946.6
20
3163.9
30
0.0
40
16.50
0
CIRCLE
8
HOLES
10
1066.6
20
3163.9
30
0.0
40
16.50
0
LINE
8
DIMS
10
-4069.8
20
3077.0
30
0.0
11
80.0
21
3077.0
31
0.0
0
LINE
8
DIMS
10
-4069.8
20
3073.0
30
0.0
11
-4069.8
21
3081.0
31
0.0
0
LINE
8
DIMS
10
80.0
20
3073.0
30
0.0
11
80.0
21
3081.0
31
0.0
0
TEXT
8
DIMS
10
-1994.9
20
3082.0
30
0.0
40
6.00
1
4150 mm
50
0.0
7
ARIAL
0
LINE
8
DIMS
10
35.0
20
-1097.6
30
0.0
11
35.0
21
3122.0
31
0.0
0
LINE
8
DIMS
10
31.0
20
-1097.6
30
0.0
11
39.0
21
-1097.6
31
0.0
0
LINE
8
DIMS
10
31.0
20
3122.0
30
0.0
11
39.0
21
3122.0
31
0.0
0
TEXT
8
DIMS
10
40.0
20
1012.2
30
0.0
40
6.00
1
4220 mm
50
0.0
7
ARIAL
0
TEXT
8
TEXT
10
587.1
20
3163.2
30
0.0
40
1.00
1
P7349_C1 - F1A-HS - 003
50
0.0
7
ARIAL
0
LINE
8
PLATE_OUTLINE
10
80.0
20
3325.4
30
0.0
11
1903.0
21
3325.4
31
0.0
0
LINE
8
PLATE_OUTLINE
10
1903.0
20
3325.4
30
0.0
11
1903.0
21
3408.4
31
0.0
0
LINE
8
PLATE_OUTLINE
10
1903.0
20
3408.4
30
0.0
11
80.0
21
3408.4
31
0.0
0
LINE
8
PLATE_OUTLINE
10
80.0
20
3408.4
30
0.0
11
80.0
21
3325.4
31
0.0
0
CIRCLE
8
SCREW_HOLES
10
85.0
20
3330.4
30
0.0
40
2.50
0
CIRCLE
8
SCREW_HOLES
10
1898.0
20
3330.4
30
0.0
40
2.50
0
CIRCLE
8
SCREW_HOLES
10
85.0
20
3403.4
30
0.0
40
2.50
0
CIRCLE
8
SCREW_HOLES
10
1898.0
20
3403.4
30
0.0
40
2.50
0
LINE
8
DIMS
10
80.0
20
3305.4
30
0.0
11
1903.0
21
3305.4
31
0.0
0
LINE
8
DIMS
10
80.0
20
3301.4
30
0.0
11
80.0
21
3309.4
31
0.0
0
LINE
8
DIMS
10
1903.0
20
3301.4
30
0.0
11
1903.0
21
3309.4
31
0.0
0
TEXT
8
DIMS
10
991.5
20
3310.4
30
0.0
40
6.00
1
1823 mm
50
0.0
7
ARIAL
0
LINE
8
DIMS
10
60.0
20
3325.4
30
0.0
11
60.0
21
3408.4
31
0.0
0
LINE
8
DIMS
10
56.0
20
3325.4
30
0.0
11
64.0
21
3325.4
31
0.0
0
LINE
8
DIMS
10
56.0
20
3408.4
30
0.0
11
64.0
21
3408.4
31
0.0
0
TEXT
8
DIMS
10
65.0
20
3366.9
30
0.0
40
6.00
1
83 mm
50
0.0
7
ARIAL
0
CIRCLE
8
HOLES
10
121.5
20
3366.9
30
0.0
40
16.50
0
TEXT
8
TEXT
10
104.0
20
3385.4
30
0.0
40
5.00
1
Ø33mm
50
0.0
7
ARIAL
0
CIRCLE
8
HOLES
10
261.5
20
3366.9
30
0.0
40
16.50
0
CIRCLE
8
HOLES
10
461.5
20
3366.9
30
0.0
40
16.50
0
CIRCLE
8
HOLES
10
661.5
20
3366.9
30
0.0
40
16.50
0
CIRCLE
8
HOLES
10
861.5
20
3366.9
30
0.0
40
16.50
0
CIRCLE
8
HOLES
10
1061.5
20
3366.9
30
0.0
40
16.50
0
CIRCLE
8
HOLES
10
1261.5
20
3366.9
30
0.0
40
16.50
0
CIRCLE
8
HOLES
10
1461.5
20
3366.9
30
0.0
40
16.50
0
CIRCLE
8
HOLES
10
1661.5
20
3366.9
30
0.0
40
16.50
0
CIRCLE
8
HOLES
10
1861.5
20
3366.9
30
0.0
40
16.50
0
LINE
8
DIMS
10
-381.0
20
3280.4
30
0.0
11
80.0
21
3280.4
31
0.0
0
LINE
8
DIMS
10
-381.0
20
3276.4
30
0.0
11
-381.0
21
3284.4
31
0.0
0
LINE
8
DIMS
10
80.0
20
3276.4
30
0.0
11
80.0
21
3284.4
31
0.0
0
TEXT
8
DIMS
10
-150.5
20
3285.4
30
0.0
40
6.00
1
461 mm
50
0.0
7
ARIAL
0
LINE
8
DIMS
10
35.0
20
-1128.1
30
0.0
11
35.0
21
3325.4
31
0.0
0
LINE
8
DIMS
10
31.0
20
-1128.1
30
0.0
11
39.0
21
-1128.1
31
0.0
0
LINE
8
DIMS
10
31.0
20
3325.4
30
0.0
11
39.0
21
3325.4
31
0.0
0
TEXT
8
DIMS
10
40.0
20
1098.6
30
0.0
40
6.00
1
4454 mm
50
0.0
7
ARIAL
0
TEXT
8
TEXT
10
984.6
20
3366.4
30
0.0
40
1.00
1
P7349_C1 - F1A-HS - 004
50
0.0
7
ARIAL
0
LINE
8
PLATE_OUTLINE
10
80.0
20
3528.4
30
0.0
11
1921.0
21
3528.4
31
0.0
0
LINE
8
PLATE_OUTLINE
10
1921.0
20
3528.4
30
0.0
11
1921.0
21
3611.4
31
0.0
0
LINE
8
PLATE_OUTLINE
10
1921.0
20
3611.4
30
0.0
11
80.0
21
3611.4
31
0.0
0
LINE
8
PLATE_OUTLINE
10
80.0
20
3611.4
30
0.0
11
80.0
21
3528.4
31
0.0
0
CIRCLE
8
SCREW_HOLES
10
85.0
20
3533.4
30
0.0
40
2.50
0
CIRCLE
8
SCREW_HOLES
10
1916.0
20
3533.4
30
0.0
40
2.50
0
CIRCLE
8
SCREW_HOLES
10
85.0
20
3606.4
30
0.0
40
2.50
0
CIRCLE
8
SCREW_HOLES
10
1916.0
20
3606.4
30
0.0
40
2.50
0
LINE
8
DIMS
10
80.0
20
3508.4
30
0.0
11
1921.0
21
3508.4
31
0.0
0
LINE
8
DIMS
10
80.0
20
3504.4
30
0.0
11
80.0
21
3512.4
31
0.0
0
LINE
8
DIMS
10
1921.0
20
3504.4
30
0.0
11
1921.0
21
3512.4
31
0.0
0
TEXT
8
DIMS
10
1000.5
20
3513.4
30
0.0
40
6.00
1
1841 mm
50
0.0
7
ARIAL
0
LINE
8
DIMS
10
60.0
20
3528.4
30
0.0
11
60.0
21
3611.4
31
0.0
0
LINE
8
DIMS
10
56.0
20
3528.4
30
0.0
11
64.0
21
3528.4
31
0.0
0
LINE
8
DIMS
10
56.0
20
3611.4
30
0.0
11
64.0
21
3611.4
31
0.0
0
TEXT
8
DIMS
10
65.0
20
3569.9
30
0.0
40
6.00
1
83 mm
50
0.0
7
ARIAL
0
CIRCLE
8
HOLES
10
121.5
20
3569.9
30
0.0
40
16.50
0
TEXT
8
TEXT
10
104.0
20
3588.4
30
0.0
40
5.00
1
Ø33mm
50
0.0
7
ARIAL
0
CIRCLE
8
HOLES
10
321.5
20
3569.9
30
0.0
40
16.50
0
CIRCLE
8
HOLES
10
521.5
20
3569.9
30
0.0
40
16.50
0
CIRCLE
8
HOLES
10
721.5
20
3569.9
30
0.0
40
16.50
0
CIRCLE
8
HOLES
10
921.5
20
3569.9
30
0.0
40
16.50
0
CIRCLE
8
HOLES
10
1121.5
20
3569.9
30
0.0
40
16.50
0
CIRCLE
8
HOLES
10
1271.5
20
3569.9
30
0.0
40
16.50
0
CIRCLE
8
HOLES
10
1463.5
20
3569.9
30
0.0
40
16.50
0
CIRCLE
8
HOLES
10
1638.5
20
3569.9
30
0.0
40
16.50
0
CIRCLE
8
HOLES
10
1879.5
20
3569.9
30
0.0
40
16.50
0
LINE
8
DIMS
10
-2321.0
20
3483.4
30
0.0
11
80.0
21
3483.4
31
0.0
0
LINE
8
DIMS
10
-2321.0
20
3479.4
30
0.0
11
-2321.0
21
3487.4
31
0.0
0
LINE
8
DIMS
10
80.0
20
3479.4
30
0.0
11
80.0
21
3487.4
31
0.0
0
TEXT
8
DIMS
10
-1120.5
20
3488.4
30
0.0
40
6.00
1
2401 mm
50
0.0
7
ARIAL
0
LINE
8
DIMS
10
35.0
20
-925.1
30
0.0
11
35.0
21
3528.4
31
0.0
0
LINE
8
DIMS
10
31.0
20
-925.1
30
0.0
11
39.0
21
-925.1
31
0.0
0
LINE
8
DIMS
10
31.0
20
3528.4
30
0.0
11
39.0
21
3528.4
31
0.0
0
TEXT
8
DIMS
10
40.0
20
1301.6
30
0.0
40
6.00
1
4454 mm
50
0.0
7
ARIAL
0
TEXT
8
TEXT
10
993.6
20
3569.4
30
0.0
40
1.00
1
P7349_C1 - F1A-HS - 005
50
0.0
7
ARIAL
0
LINE
8
PLATE_OUTLINE
10
80.0
20
3731.4
30
0.0
11
890.9
21
3731.4
31
0.0
0
LINE
8
PLATE_OUTLINE
10
890.9
20
3731.4
30
0.0
11
890.9
21
3815.4
31
0.0
0
LINE
8
PLATE_OUTLINE
10
890.9
20
3815.4
30
0.0
11
80.0
21
3815.4
31
0.0
0
LINE
8
PLATE_OUTLINE
10
80.0
20
3815.4
30
0.0
11
80.0
21
3731.4
31
0.0
0
CIRCLE
8
SCREW_HOLES
10
85.0
20
3736.4
30
0.0
40
2.50
0
CIRCLE
8
SCREW_HOLES
10
885.9
20
3736.4
30
0.0
40
2.50
0
CIRCLE
8
SCREW_HOLES
10
85.0
20
3810.4
30
0.0
40
2.50
0
CIRCLE
8
SCREW_HOLES
10
885.9
20
3810.4
30
0.0
40
2.50
0
LINE
8
DIMS
10
80.0
20
3711.4
30
0.0
11
890.9
21
3711.4
31
0.0
0
LINE
8
DIMS
10
80.0
20
3707.4
30
0.0
11
80.0
21
3715.4
31
0.0
0
LINE
8
DIMS
10
890.9
20
3707.4
30
0.0
11
890.9
21
3715.4
31
0.0
0
TEXT
8
DIMS
10
485.4
20
3716.4
30
0.0
40
6.00
1
811 mm
50
0.0
7
ARIAL
0
LINE
8
DIMS
10
60.0
20
3731.4
30
0.0
11
60.0
21
3815.4
31
0.0
0
LINE
8
DIMS
10
56.0
20
3731.4
30
0.0
11
64.0
21
3731.4
31
0.0
0
LINE
8
DIMS
10
56.0
20
3815.4
30
0.0
11
64.0
21
3815.4
31
0.0
0
TEXT
8
DIMS
10
65.0
20
3773.4
30
0.0
40
6.00
1
84 mm
50
0.0
7
ARIAL
0
CIRCLE
8
HOLES
10
121.5
20
3773.4
30
0.0
40
16.50
0
TEXT
8
TEXT
10
104.0
20
3791.9
30
0.0
40
5.00
1
Ø33mm
50
0.0
7
ARIAL
0
CIRCLE
8
HOLES
10
297.5
20
3773.4
30
0.0
40
16.50
0
CIRCLE
8
HOLES
10
495.5
20
3773.4
30
0.0
40
16.50
0
CIRCLE
8
HOLES
10
731.4
20
3773.9
30
0.0
40
16.50
0
CIRCLE
8
HOLES
10
849.4
20
3772.9
30
0.0
40
16.50
0
LINE
8
DIMS
10
-4288.0
20
3686.4
30
0.0
11
80.0
21
3686.4
31
0.0
0
LINE
8
DIMS
10
-4288.0
20
3682.4
30
0.0
11
-4288.0
21
3690.4
31
0.0
0
LINE
8
DIMS
10
80.0
20
3682.4
30
0.0
11
80.0
21
3690.4
31
0.0
0
TEXT
8
DIMS
10
-2104.0
20
3691.4
30
0.0
40
6.00
1
4368 mm
50
0.0
7
ARIAL
0
LINE
8
DIMS
10
35.0
20
-721.6
30
0.0
11
35.0
21
3731.4
31
0.0
0
LINE
8
DIMS
10
31.0
20
-721.6
30
0.0
11
39.0
21
-721.6
31
0.0
0
LINE
8
DIMS
10
31.0
20
3731.4
30
0.0
11
39.0
21
3731.4
31
0.0
0
TEXT
8
DIMS
10
40.0
20
1504.9
30
0.0
40
6.00
1
4453 mm
50
0.0
7
ARIAL
0
TEXT
8
TEXT
10
483.4
20
3773.4
30
0.0
40
0.30
1
P7349_C1 - F1A-HS - 006
50
0.0
7
ARIAL
0
ENDSEC
0
EOF