0
SECTION
2
HEADER
9
$ACADVER
1
AC1009
9
$INSUNITS
70
4
0
ENDSEC
0
SECTION
2
TABLES
0
TABLE
2
LTYPE
70
1
0
LTYPE
2
CONTINUOUS
70
0
3
Solid line
72
65
73
0
40
0.0
0
ENDTAB
0
TABLE
2
LAYER
70
2
0
LAYER
2
BARS
70
0
62
2
6
CONTINUOUS
0
LAYER
2
TEXT
70
0
62
7
6
CONTINUOUS
0
ENDTAB
0
ENDSEC
0
SECTION
2
BLOCKS
0
ENDSEC
0
SECTION
2
ENTITIES
0
LINE
8
BARS
10
23.983
20
2246.496
30
0.000
11
23.983
21
2269.496
31
0.000
0
LINE
8
BARS
10
23.983
20
2269.496
30
0.000
11
23.983
21
2280.996
31
0.000
0
LINE
8
BARS
10
23.983
20
2280.996
30
0.000
11
10293.020
21
2280.996
31
0.000
0
LINE
8
BARS
10
10293.020
20
2280.996
30
0.000
11
10293.020
21
2269.496
31
0.000
0
LINE
8
BARS
10
10293.020
20
2269.496
30
0.000
11
10293.020
21
2246.496
31
0.000
0
LINE
8
BARS
10
10293.020
20
2246.496
30
0.000
11
10293.020
21
2234.996
31
0.000
0
LINE
8
BARS
10
10293.020
20
2234.996
30
0.000
11
10293.020
21
2234.996
31
0.000
0
LINE
8
BARS
10
10293.020
20
2234.996
30
0.000
11
23.983
21
2234.996
31
0.000
0
LINE
8
BARS
10
23.983
20
2234.996
30
0.000
11
23.983
21
2246.496
31
0.000
0
LINE
8
BARS
10
23.962
20
2642.500
30
0.000
11
23.962
21
2665.500
31
0.000
0
LINE
8
BARS
10
23.962
20
2665.500
30
0.000
11
23.962
21
2677.000
31
0.000
0
LINE
8
BARS
10
23.962
20
2677.000
30
0.000
11
10293.020
21
2677.000
31
0.000
0
LINE
8
BARS
10
10293.020
20
2677.000
30
0.000
11
10293.020
21
2665.500
31
0.000
0
LINE
8
BARS
10
10293.020
20
2665.500
30
0.000
11
10293.020
21
2642.500
31
0.000
0
LINE
8
BARS
10
10293.020
20
2642.500
30
0.000
11
10293.020
21
2631.000
31
0.000
0
LINE
8
BARS
10
10293.020
20
2631.000
30
0.000
11
10293.020
21
2631.000
31
0.000
0
LINE
8
BARS
10
10293.020
20
2631.000
30
0.000
11
23.962
21
2631.000
31
0.000
0
LINE
8
BARS
10
23.962
20
2631.000
30
0.000
11
23.962
21
2642.500
31
0.000
0
LINE
8
BARS
10
23.967
20
1641.246
30
0.000
11
23.967
21
1659.746
31
0.000
0
LINE
8
BARS
10
23.967
20
1659.746
30
0.000
11
23.967
21
1668.996
31
0.000
0
LINE
8
BARS
10
23.967
20
1668.996
30
0.000
11
10325.000
21
1668.996
31
0.000
0
LINE
8
BARS
10
10325.000
20
1668.996
30
0.000
11
10325.000
21
1659.746
31
0.000
0
LINE
8
BARS
10
10325.000
20
1659.746
30
0.000
11
10325.000
21
1641.246
31
0.000
0
LINE
8
BARS
10
10325.000
20
1641.246
30
0.000
11
10325.000
21
1631.996
31
0.000
0
LINE
8
BARS
10
10325.000
20
1631.996
30
0.000
11
10325.000
21
1631.996
31
0.000
0
LINE
8
BARS
10
10325.000
20
1631.996
30
0.000
11
23.967
21
1631.996
31
0.000
0
LINE
8
BARS
10
23.967
20
1631.996
30
0.000
11
23.967
21
1641.246
31
0.000
0
LINE
8
BARS
10
23.970
20
427.500
30
0.000
11
23.970
21
450.500
31
0.000
0
LINE
8
BARS
10
23.970
20
450.500
30
0.000
11
23.970
21
462.000
31
0.000
0
LINE
8
BARS
10
23.970
20
462.000
30
0.000
11
10293.007
21
462.000
31
0.000
0
LINE
8
BARS
10
10293.007
20
462.000
30
0.000
11
10293.007
21
450.500
31
0.000
0
LINE
8
BARS
10
10293.007
20
450.500
30
0.000
11
10293.007
21
427.500
31
0.000
0
LINE
8
BARS
10
10293.007
20
427.500
30
0.000
11
10293.007
21
416.000
31
0.000
0
LINE
8
BARS
10
10293.007
20
416.000
30
0.000
11
10293.007
21
416.000
31
0.000
0
LINE
8
BARS
10
10293.007
20
416.000
30
0.000
11
23.970
21
416.000
31
0.000
0
LINE
8
BARS
10
23.970
20
416.000
30
0.000
11
23.970
21
427.500
31
0.000
0
LINE
8
BARS
10
23.970
20
664.500
30
0.000
11
23.970
21
687.500
31
0.000
0
LINE
8
BARS
10
23.970
20
687.500
30
0.000
11
23.970
21
699.000
31
0.000
0
LINE
8
BARS
10
23.970
20
699.000
30
0.000
11
10293.007
21
699.000
31
0.000
0
LINE
8
BARS
10
10293.007
20
699.000
30
0.000
11
10293.007
21
687.500
31
0.000
0
LINE
8
BARS
10
10293.007
20
687.500
30
0.000
11
10293.007
21
664.500
31
0.000
0
LINE
8
BARS
10
10293.007
20
664.500
30
0.000
11
10293.007
21
653.000
31
0.000
0
LINE
8
BARS
10
10293.007
20
653.000
30
0.000
11
10293.007
21
653.000
31
0.000
0
LINE
8
BARS
10
10293.007
20
653.000
30
0.000
11
23.970
21
653.000
31
0.000
0
LINE
8
BARS
10
23.970
20
653.000
30
0.000
11
23.970
21
664.500
31
0.000
0
LINE
8
BARS
10
23.970
20
812.500
30
0.000
11
23.970
21
835.500
31
0.000
0
LINE
8
BARS
10
23.970
20
835.500
30
0.000
11
23.970
21
847.000
31
0.000
0
LINE
8
BARS
10
23.970
20
847.000
30
0.000
11
10293.007
21
847.000
31
0.000
0
LINE
8
BARS
10
10293.007
20
847.000
30
0.000
11
10293.007
21
835.500
31
0.000
0
LINE
8
BARS
10
10293.007
20
835.500
30
0.000
11
10293.007
21
812.500
31
0.000
0
LINE
8
BARS
10
10293.007
20
812.500
30
0.000
11
10293.007
21
801.000
31
0.000
0
LINE
8
BARS
10
10293.007
20
801.000
30
0.000
11
10293.007
21
801.000
31
0.000
0
LINE
8
BARS
10
10293.007
20
801.000
30
0.000
11
23.970
21
801.000
31
0.000
0
LINE
8
BARS
10
23.970
20
801.000
30
0.000
11
23.970
21
812.500
31
0.000
0
LINE
8
BARS
10
23.970
20
972.500
30
0.000
11
23.970
21
995.500
31
0.000
0
LINE
8
BARS
10
23.970
20
995.500
30
0.000
11
23.970
21
1007.000
31
0.000
0
LINE
8
BARS
10
23.970
20
1007.000
30
0.000
11
10293.007
21
1007.000
31
0.000
0
LINE
8
BARS
10
10293.007
20
1007.000
30
0.000
11
10293.007
21
995.500
31
0.000
0
LINE
8
BARS
10
10293.007
20
995.500
30
0.000
11
10293.007
21
972.500
31
0.000
0
LINE
8
BARS
10
10293.007
20
972.500
30
0.000
11
10293.007
21
961.000
31
0.000
0
LINE
8
BARS
10
10293.007
20
961.000
30
0.000
11
10293.007
21
961.000
31
0.000
0
LINE
8
BARS
10
10293.007
20
961.000
30
0.000
11
23.970
21
961.000
31
0.000
0
LINE
8
BARS
10
23.970
20
961.000
30
0.000
11
23.970
21
972.500
31
0.000
0
LINE
8
BARS
10
23.967
20
1420.246
30
0.000
11
23.967
21
1438.746
31
0.000
0
LINE
8
BARS
10
23.967
20
1438.746
30
0.000
11
23.967
21
1447.996
31
0.000
0
LINE
8
BARS
10
23.967
20
1447.996
30
0.000
11
10325.004
21
1447.996
31
0.000
0
LINE
8
BARS
10
10325.004
20
1447.996
30
0.000
11
10325.004
21
1438.746
31
0.000
0
LINE
8
BARS
10
10325.004
20
1438.746
30
0.000
11
10325.004
21
1420.246
31
0.000
0
LINE
8
BARS
10
10325.004
20
1420.246
30
0.000
11
10325.004
21
1410.996
31
0.000
0
LINE
8
BARS
10
10325.004
20
1410.996
30
0.000
11
10325.004
21
1410.996
31
0.000
0
LINE
8
BARS
10
10325.004
20
1410.996
30
0.000
11
23.967
21
1410.996
31
0.000
0
LINE
8
BARS
10
23.967
20
1410.996
30
0.000
11
23.967
21
1420.246
31
0.000
0
LINE
8
BARS
10
23.983
20
2042.502
30
0.000
11
23.983
21
2065.502
31
0.000
0
LINE
8
BARS
10
23.983
20
2065.502
30
0.000
11
23.983
21
2077.002
31
0.000
0
LINE
8
BARS
10
23.983
20
2077.002
30
0.000
11
10293.050
21
2077.002
31
0.000
0
LINE
8
BARS
10
10293.050
20
2077.002
30
0.000
11
10293.050
21
2065.502
31
0.000
0
LINE
8
BARS
10
10293.050
20
2065.502
30
0.000
11
10293.050
21
2042.502
31
0.000
0
LINE
8
BARS
10
10293.050
20
2042.502
30
0.000
11
10293.050
21
2031.002
31
0.000
0
LINE
8
BARS
10
10293.050
20
2031.002
30
0.000
11
10293.050
21
2031.002
31
0.000
0
LINE
8
BARS
10
10293.050
20
2031.002
30
0.000
11
23.983
21
2031.002
31
0.000
0
LINE
8
BARS
10
23.983
20
2031.002
30
0.000
11
23.983
21
2042.502
31
0.000
0
LINE
8
BARS
10
23.973
20
2442.502
30
0.000
11
23.973
21
2465.502
31
0.000
0
LINE
8
BARS
10
23.973
20
2465.502
30
0.000
11
23.973
21
2477.002
31
0.000
0
LINE
8
BARS
10
23.973
20
2477.002
30
0.000
11
10293.030
21
2477.002
31
0.000
0
LINE
8
BARS
10
10293.030
20
2477.002
30
0.000
11
10293.030
21
2465.502
31
0.000
0
LINE
8
BARS
10
10293.030
20
2465.502
30
0.000
11
10293.030
21
2442.502
31
0.000
0
LINE
8
BARS
10
10293.030
20
2442.502
30
0.000
11
10293.030
21
2431.002
31
0.000
0
LINE
8
BARS
10
10293.030
20
2431.002
30
0.000
11
10293.030
21
2431.002
31
0.000
0
LINE
8
BARS
10
10293.030
20
2431.002
30
0.000
11
23.973
21
2431.002
31
0.000
0
LINE
8
BARS
10
23.973
20
2431.002
30
0.000
11
23.973
21
2442.502
31
0.000
0
LINE
8
BARS
10
23.963
20
2842.502
30
0.000
11
23.963
21
2865.502
31
0.000
0
LINE
8
BARS
10
23.963
20
2865.502
30
0.000
11
23.963
21
2877.002
31
0.000
0
LINE
8
BARS
10
23.963
20
2877.002
30
0.000
11
10293.020
21
2877.002
31
0.000
0
LINE
8
BARS
10
10293.020
20
2877.002
30
0.000
11
10293.020
21
2865.502
31
0.000
0
LINE
8
BARS
10
10293.020
20
2865.502
30
0.000
11
10293.020
21
2842.502
31
0.000
0
LINE
8
BARS
10
10293.020
20
2842.502
30
0.000
11
10293.020
21
2831.002
31
0.000
0
LINE
8
BARS
10
10293.020
20
2831.002
30
0.000
11
10293.020
21
2831.002
31
0.000
0
LINE
8
BARS
10
10293.020
20
2831.002
30
0.000
11
23.963
21
2831.002
31
0.000
0
LINE
8
BARS
10
23.963
20
2831.002
30
0.000
11
23.963
21
2842.502
31
0.000
0
LINE
8
BARS
10
23.953
20
1192.002
30
0.000
11
23.953
21
1215.002
31
0.000
0
LINE
8
BARS
10
23.953
20
1215.002
30
0.000
11
23.953
21
1226.502
31
0.000
0
LINE
8
BARS
10
23.953
20
1226.502
30
0.000
11
10292.990
21
1226.502
31
0.000
0
LINE
8
BARS
10
10292.990
20
1226.502
30
0.000
11
10292.990
21
1215.002
31
0.000
0
LINE
8
BARS
10
10292.990
20
1215.002
30
0.000
11
10292.990
21
1192.002
31
0.000
0
LINE
8
BARS
10
10292.990
20
1192.002
30
0.000
11
10292.990
21
1180.502
31
0.000
0
LINE
8
BARS
10
10292.990
20
1180.502
30
0.000
11
10292.990
21
1180.502
31
0.000
0
LINE
8
BARS
10
10292.990
20
1180.502
30
0.000
11
23.953
21
1180.502
31
0.000
0
LINE
8
BARS
10
23.953
20
1180.502
30
0.000
11
23.953
21
1192.002
31
0.000
0
LINE
8
BARS
10
23.953
20
1879.502
30
0.000
11
23.953
21
1902.502
31
0.000
0
LINE
8
BARS
10
23.953
20
1902.502
30
0.000
11
23.953
21
1914.002
31
0.000
0
LINE
8
BARS
10
23.953
20
1914.002
30
0.000
11
10293.070
21
1914.002
31
0.000
0
LINE
8
BARS
10
10293.070
20
1914.002
30
0.000
11
10293.070
21
1902.502
31
0.000
0
LINE
8
BARS
10
10293.070
20
1902.502
30
0.000
11
10293.070
21
1879.502
31
0.000
0
LINE
8
BARS
10
10293.070
20
1879.502
30
0.000
11
10293.070
21
1868.002
31
0.000
0
LINE
8
BARS
10
10293.070
20
1868.002
30
0.000
11
10293.070
21
1868.002
31
0.000
0
LINE
8
BARS
10
10293.070
20
1868.002
30
0.000
11
23.953
21
1868.002
31
0.000
0
LINE
8
BARS
10
23.953
20
1868.002
30
0.000
11
23.953
21
1879.502
31
0.000
0
LINE
8
BARS
10
23.953
20
2991.542
30
0.000
11
23.953
21
3014.542
31
0.000
0
LINE
8
BARS
10
23.953
20
3014.542
30
0.000
11
23.953
21
3026.042
31
0.000
0
LINE
8
BARS
10
23.953
20
3026.042
30
0.000
11
10293.010
21
3026.042
31
0.000
0
LINE
8
BARS
10
10293.010
20
3026.042
30
0.000
11
10293.010
21
3014.542
31
0.000
0
LINE
8
BARS
10
10293.010
20
3014.542
30
0.000
11
10293.010
21
2991.542
31
0.000
0
LINE
8
BARS
10
10293.010
20
2991.542
30
0.000
11
10293.010
21
2980.042
31
0.000
0
LINE
8
BARS
10
10293.010
20
2980.042
30
0.000
11
10293.010
21
2980.042
31
0.000
0
LINE
8
BARS
10
10293.010
20
2980.042
30
0.000
11
23.953
21
2980.042
31
0.000
0
LINE
8
BARS
10
23.953
20
2980.042
30
0.000
11
23.953
21
2991.542
31
0.000
0
LINE
8
BARS
10
23.953
20
3242.502
30
0.000
11
23.953
21
3265.502
31
0.000
0
LINE
8
BARS
10
23.953
20
3265.502
30
0.000
11
23.953
21
3277.002
31
0.000
0
LINE
8
BARS
10
23.953
20
3277.002
30
0.000
11
10293.010
21
3277.002
31
0.000
0
LINE
8
BARS
10
10293.010
20
3277.002
30
0.000
11
10293.010
21
3265.502
31
0.000
0
LINE
8
BARS
10
10293.010
20
3265.502
30
0.000
11
10293.010
21
3242.502
31
0.000
0
LINE
8
BARS
10
10293.010
20
3242.502
30
0.000
11
10293.010
21
3231.002
31
0.000
0
LINE
8
BARS
10
10293.010
20
3231.002
30
0.000
11
10293.010
21
3231.002
31
0.000
0
LINE
8
BARS
10
10293.010
20
3231.002
30
0.000
11
23.953
21
3231.002
31
0.000
0
LINE
8
BARS
10
23.953
20
3231.002
30
0.000
11
23.953
21
3242.502
31
0.000
0
LINE
8
BARS
10
23.953
20
3442.502
30
0.000
11
23.953
21
3465.502
31
0.000
0
LINE
8
BARS
10
23.953
20
3465.502
30
0.000
11
23.953
21
3477.002
31
0.000
0
LINE
8
BARS
10
23.953
20
3477.002
30
0.000
11
10293.010
21
3477.002
31
0.000
0
LINE
8
BARS
10
10293.010
20
3477.002
30
0.000
11
10293.010
21
3465.502
31
0.000
0
LINE
8
BARS
10
10293.010
20
3465.502
30
0.000
11
10293.010
21
3442.502
31
0.000
0
LINE
8
BARS
10
10293.010
20
3442.502
30
0.000
11
10293.010
21
3431.002
31
0.000
0
LINE
8
BARS
10
10293.010
20
3431.002
30
0.000
11
10293.010
21
3431.002
31
0.000
0
LINE
8
BARS
10
10293.010
20
3431.002
30
0.000
11
23.953
21
3431.002
31
0.000
0
LINE
8
BARS
10
23.953
20
3431.002
30
0.000
11
23.953
21
3442.502
31
0.000
0
LINE
8
BARS
10
23.953
20
3642.502
30
0.000
11
23.953
21
3665.502
31
0.000
0
LINE
8
BARS
10
23.953
20
3665.502
30
0.000
11
23.953
21
3677.002
31
0.000
0
LINE
8
BARS
10
23.953
20
3677.002
30
0.000
11
10293.010
21
3677.002
31
0.000
0
LINE
8
BARS
10
10293.010
20
3677.002
30
0.000
11
10293.010
21
3665.502
31
0.000
0
LINE
8
BARS
10
10293.010
20
3665.502
30
0.000
11
10293.010
21
3642.502
31
0.000
0
LINE
8
BARS
10
10293.010
20
3642.502
30
0.000
11
10293.010
21
3631.002
31
0.000
0
LINE
8
BARS
10
10293.010
20
3631.002
30
0.000
11
10293.010
21
3631.002
31
0.000
0
LINE
8
BARS
10
10293.010
20
3631.002
30
0.000
11
23.953
21
3631.002
31
0.000
0
LINE
8
BARS
10
23.953
20
3631.002
30
0.000
11
23.953
21
3642.502
31
0.000
0
LINE
8
BARS
10
23.953
20
3842.502
30
0.000
11
23.953
21
3865.502
31
0.000
0
LINE
8
BARS
10
23.953
20
3865.502
30
0.000
11
23.953
21
3877.002
31
0.000
0
LINE
8
BARS
10
23.953
20
3877.002
30
0.000
11
10293.010
21
3877.002
31
0.000
0
LINE
8
BARS
10
10293.010
20
3877.002
30
0.000
11
10293.010
21
3865.502
31
0.000
0
LINE
8
BARS
10
10293.010
20
3865.502
30
0.000
11
10293.010
21
3842.502
31
0.000
0
LINE
8
BARS
10
10293.010
20
3842.502
30
0.000
11
10293.010
21
3831.002
31
0.000
0
LINE
8
BARS
10
10293.010
20
3831.002
30
0.000
11
10293.010
21
3831.002
31
0.000
0
LINE
8
BARS
10
10293.010
20
3831.002
30
0.000
11
23.953
21
3831.002
31
0.000
0
LINE
8
BARS
10
23.953
20
3831.002
30
0.000
11
23.953
21
3842.502
31
0.000
0
LINE
8
BARS
10
23.953
20
4041.502
30
0.000
11
23.953
21
4064.502
31
0.000
0
LINE
8
BARS
10
23.953
20
4064.502
30
0.000
11
23.953
21
4076.002
31
0.000
0
LINE
8
BARS
10
23.953
20
4076.002
30
0.000
11
10293.010
21
4076.002
31
0.000
0
LINE
8
BARS
10
10293.010
20
4076.002
30
0.000
11
10293.010
21
4064.502
31
0.000
0
LINE
8
BARS
10
10293.010
20
4064.502
30
0.000
11
10293.010
21
4041.502
31
0.000
0
LINE
8
BARS
10
10293.010
20
4041.502
30
0.000
11
10293.010
21
4030.002
31
0.000
0
LINE
8
BARS
10
10293.010
20
4030.002
30
0.000
11
10293.010
21
4030.002
31
0.000
0
LINE
8
BARS
10
10293.010
20
4030.002
30
0.000
11
23.953
21
4030.002
31
0.000
0
LINE
8
BARS
10
23.953
20
4030.002
30
0.000
11
23.953
21
4041.502
31
0.000
0
LINE
8
BARS
10
23.953
20
4242.502
30
0.000
11
23.953
21
4265.502
31
0.000
0
LINE
8
BARS
10
23.953
20
4265.502
30
0.000
11
23.953
21
4277.002
31
0.000
0
LINE
8
BARS
10
23.953
20
4277.002
30
0.000
11
10293.010
21
4277.002
31
0.000
0
LINE
8
BARS
10
10293.010
20
4277.002
30
0.000
11
10293.010
21
4265.502
31
0.000
0
LINE
8
BARS
10
10293.010
20
4265.502
30
0.000
11
10293.010
21
4242.502
31
0.000
0
LINE
8
BARS
10
10293.010
20
4242.502
30
0.000
11
10293.010
21
4231.002
31
0.000
0
LINE
8
BARS
10
10293.010
20
4231.002
30
0.000
11
10293.010
21
4231.002
31
0.000
0
LINE
8
BARS
10
10293.010
20
4231.002
30
0.000
11
23.953
21
4231.002
31
0.000
0
LINE
8
BARS
10
23.953
20
4231.002
30
0.000
11
23.953
21
4242.502
31
0.000
0
LINE
8
BARS
10
23.953
20
4447.502
30
0.000
11
23.953
21
4470.502
31
0.000
0
LINE
8
BARS
10
23.953
20
4470.502
30
0.000
11
23.953
21
4482.002
31
0.000
0
LINE
8
BARS
10
23.953
20
4482.002
30
0.000
11
10293.010
21
4482.002
31
0.000
0
LINE
8
BARS
10
10293.010
20
4482.002
30
0.000
11
10293.010
21
4470.502
31
0.000
0
LINE
8
BARS
10
10293.010
20
4470.502
30
0.000
11
10293.010
21
4447.502
31
0.000
0
LINE
8
BARS
10
10293.010
20
4447.502
30
0.000
11
10293.010
21
4436.002
31
0.000
0
LINE
8
BARS
10
10293.010
20
4436.002
30
0.000
11
10293.010
21
4436.002
31
0.000
0
LINE
8
BARS
10
10293.010
20
4436.002
30
0.000
11
23.953
21
4436.002
31
0.000
0
LINE
8
BARS
10
23.953
20
4436.002
30
0.000
11
23.953
21
4447.502
31
0.000
0
LINE
8
BARS
10
23.953
20
4642.502
30
0.000
11
23.953
21
4665.502
31
0.000
0
LINE
8
BARS
10
23.953
20
4665.502
30
0.000
11
23.953
21
4677.002
31
0.000
0
LINE
8
BARS
10
23.953
20
4677.002
30
0.000
11
10293.010
21
4677.002
31
0.000
0
LINE
8
BARS
10
10293.010
20
4677.002
30
0.000
11
10293.010
21
4665.502
31
0.000
0
LINE
8
BARS
10
10293.010
20
4665.502
30
0.000
11
10293.010
21
4642.502
31
0.000
0
LINE
8
BARS
10
10293.010
20
4642.502
30
0.000
11
10293.010
21
4631.002
31
0.000
0
LINE
8
BARS
10
10293.010
20
4631.002
30
0.000
11
10293.010
21
4631.002
31
0.000
0
LINE
8
BARS
10
10293.010
20
4631.002
30
0.000
11
23.953
21
4631.002
31
0.000
0
LINE
8
BARS
10
23.953
20
4631.002
30
0.000
11
23.953
21
4642.502
31
0.000
0
LINE
8
BARS
10
6702.449
20
25.000
30
0.000
11
6702.449
21
25.000
31
0.000
0
LINE
8
BARS
10
6702.449
20
25.000
30
0.000
11
6702.449
21
5226.000
31
0.000
0
LINE
8
BARS
10
6702.449
20
5226.000
30
0.000
11
6718.470
21
5226.000
31
0.000
0
LINE
8
BARS
10
6718.470
20
5226.000
30
0.000
11
6734.492
21
5226.000
31
0.000
0
LINE
8
BARS
10
6734.492
20
5226.000
30
0.000
11
6734.492
21
5226.000
31
0.000
0
LINE
8
BARS
10
6734.492
20
5226.000
30
0.000
11
6734.492
21
25.000
31
0.000
0
LINE
8
BARS
10
6734.492
20
25.000
30
0.000
11
6734.492
21
25.000
31
0.000
0
LINE
8
BARS
10
6734.492
20
25.000
30
0.000
11
6718.470
21
25.000
31
0.000
0
LINE
8
BARS
10
6718.470
20
25.000
30
0.000
11
6702.449
21
25.000
31
0.000
0
LINE
8
BARS
10
9851.929
20
56.000
30
0.000
11
9851.929
21
56.000
31
0.000
0
LINE
8
BARS
10
9851.929
20
56.000
30
0.000
11
9851.929
21
5226.000
31
0.000
0
LINE
8
BARS
10
9851.929
20
5226.000
30
0.000
11
9867.950
21
5226.000
31
0.000
0
LINE
8
BARS
10
9867.950
20
5226.000
30
0.000
11
9883.972
21
5226.000
31
0.000
0
LINE
8
BARS
10
9883.972
20
5226.000
30
0.000
11
9883.972
21
5226.000
31
0.000
0
LINE
8
BARS
10
9883.972
20
5226.000
30
0.000
11
9883.972
21
56.000
31
0.000
0
LINE
8
BARS
10
9883.972
20
56.000
30
0.000
11
9883.972
21
56.000
31
0.000
0
LINE
8
BARS
10
9883.972
20
56.000
30
0.000
11
9867.950
21
56.000
31
0.000
0
LINE
8
BARS
10
9867.950
20
56.000
30
0.000
11
9851.929
21
56.000
31
0.000
0
LINE
8
BARS
10
6021.893
20
1.000
30
0.000
11
6021.893
21
1.000
31
0.000
0
LINE
8
BARS
10
6021.893
20
1.000
30
0.000
11
6021.893
21
5226.000
31
0.000
0
LINE
8
BARS
10
6021.893
20
5226.000
30
0.000
11
6034.450
21
5226.000
31
0.000
0
LINE
8
BARS
10
6034.450
20
5226.000
30
0.000
11
6047.007
21
5226.000
31
0.000
0
LINE
8
BARS
10
6047.007
20
5226.000
30
0.000
11
6047.007
21
5226.000
31
0.000
0
LINE
8
BARS
10
6047.007
20
5226.000
30
0.000
11
6047.007
21
1.000
31
0.000
0
LINE
8
BARS
10
6047.007
20
1.000
30
0.000
11
6047.007
21
1.000
31
0.000
0
LINE
8
BARS
10
6047.007
20
1.000
30
0.000
11
6034.450
21
1.000
31
0.000
0
LINE
8
BARS
10
6034.450
20
1.000
30
0.000
11
6021.893
21
1.000
31
0.000
0
LINE
8
BARS
10
6207.429
20
25.000
30
0.000
11
6207.429
21
25.000
31
0.000
0
LINE
8
BARS
10
6207.429
20
25.000
30
0.000
11
6207.429
21
5226.000
31
0.000
0
LINE
8
BARS
10
6207.429
20
5226.000
30
0.000
11
6223.450
21
5226.000
31
0.000
0
LINE
8
BARS
10
6223.450
20
5226.000
30
0.000
11
6239.472
21
5226.000
31
0.000
0
LINE
8
BARS
10
6239.472
20
5226.000
30
0.000
11
6239.472
21
5226.000
31
0.000
0
LINE
8
BARS
10
6239.472
20
5226.000
30
0.000
11
6239.472
21
25.000
31
0.000
0
LINE
8
BARS
10
6239.472
20
25.000
30
0.000
11
6239.472
21
25.000
31
0.000
0
LINE
8
BARS
10
6239.472
20
25.000
30
0.000
11
6223.450
21
25.000
31
0.000
0
LINE
8
BARS
10
6223.450
20
25.000
30
0.000
11
6207.429
21
25.000
31
0.000
0
LINE
8
BARS
10
5853.889
20
25.000
30
0.000
11
5853.889
21
25.000
31
0.000
0
LINE
8
BARS
10
5853.889
20
25.000
30
0.000
11
5853.889
21
5226.000
31
0.000
0
LINE
8
BARS
10
5853.889
20
5226.000
30
0.000
11
5869.910
21
5226.000
31
0.000
0
LINE
8
BARS
10
5869.910
20
5226.000
30
0.000
11
5885.932
21
5226.000
31
0.000
0
LINE
8
BARS
10
5885.932
20
5226.000
30
0.000
11
5885.932
21
5226.000
31
0.000
0
LINE
8
BARS
10
5885.932
20
5226.000
30
0.000
11
5885.932
21
25.000
31
0.000
0
LINE
8
BARS
10
5885.932
20
25.000
30
0.000
11
5885.932
21
25.000
31
0.000
0
LINE
8
BARS
10
5885.932
20
25.000
30
0.000
11
5869.910
21
25.000
31
0.000
0
LINE
8
BARS
10
5869.910
20
25.000
30
0.000
11
5853.889
21
25.000
31
0.000
0
LINE
8
BARS
10
5682.969
20
25.000
30
0.000
11
5682.969
21
25.000
31
0.000
0
LINE
8
BARS
10
5682.969
20
25.000
30
0.000
11
5682.969
21
5226.000
31
0.000
0
LINE
8
BARS
10
5682.969
20
5226.000
30
0.000
11
5698.990
21
5226.000
31
0.000
0
LINE
8
BARS
10
5698.990
20
5226.000
30
0.000
11
5715.012
21
5226.000
31
0.000
0
LINE
8
BARS
10
5715.012
20
5226.000
30
0.000
11
5715.012
21
5226.000
31
0.000
0
LINE
8
BARS
10
5715.012
20
5226.000
30
0.000
11
5715.012
21
25.000
31
0.000
0
LINE
8
BARS
10
5715.012
20
25.000
30
0.000
11
5715.012
21
25.000
31
0.000
0
LINE
8
BARS
10
5715.012
20
25.000
30
0.000
11
5698.990
21
25.000
31
0.000
0
LINE
8
BARS
10
5698.990
20
25.000
30
0.000
11
5682.969
21
25.000
31
0.000
0
LINE
8
BARS
10
5483.071
20
57.000
30
0.000
11
5483.071
21
57.000
31
0.000
0
LINE
8
BARS
10
5483.071
20
57.000
30
0.000
11
5483.071
21
5226.000
31
0.000
0
LINE
8
BARS
10
5483.071
20
5226.000
30
0.000
11
5502.990
21
5226.000
31
0.000
0
LINE
8
BARS
10
5502.990
20
5226.000
30
0.000
11
5522.909
21
5226.000
31
0.000
0
LINE
8
BARS
10
5522.909
20
5226.000
30
0.000
11
5522.909
21
5226.000
31
0.000
0
LINE
8
BARS
10
5522.909
20
5226.000
30
0.000
11
5522.909
21
57.000
31
0.000
0
LINE
8
BARS
10
5522.909
20
57.000
30
0.000
11
5522.909
21
57.000
31
0.000
0
LINE
8
BARS
10
5522.909
20
57.000
30
0.000
11
5502.990
21
57.000
31
0.000
0
LINE
8
BARS
10
5502.990
20
57.000
30
0.000
11
5483.071
21
57.000
31
0.000
0
LINE
8
BARS
10
5288.071
20
57.000
30
0.000
11
5288.071
21
57.000
31
0.000
0
LINE
8
BARS
10
5288.071
20
57.000
30
0.000
11
5288.071
21
5226.000
31
0.000
0
LINE
8
BARS
10
5288.071
20
5226.000
30
0.000
11
5307.990
21
5226.000
31
0.000
0
LINE
8
BARS
10
5307.990
20
5226.000
30
0.000
11
5327.909
21
5226.000
31
0.000
0
LINE
8
BARS
10
5327.909
20
5226.000
30
0.000
11
5327.909
21
5226.000
31
0.000
0
LINE
8
BARS
10
5327.909
20
5226.000
30
0.000
11
5327.909
21
57.000
31
0.000
0
LINE
8
BARS
10
5327.909
20
57.000
30
0.000
11
5327.909
21
57.000
31
0.000
0
LINE
8
BARS
10
5327.909
20
57.000
30
0.000
11
5307.990
21
57.000
31
0.000
0
LINE
8
BARS
10
5307.990
20
57.000
30
0.000
11
5288.071
21
57.000
31
0.000
0
LINE
8
BARS
10
5083.071
20
57.000
30
0.000
11
5083.071
21
57.000
31
0.000
0
LINE
8
BARS
10
5083.071
20
57.000
30
0.000
11
5083.071
21
5226.000
31
0.000
0
LINE
8
BARS
10
5083.071
20
5226.000
30
0.000
11
5102.990
21
5226.000
31
0.000
0
LINE
8
BARS
10
5102.990
20
5226.000
30
0.000
11
5122.909
21
5226.000
31
0.000
0
LINE
8
BARS
10
5122.909
20
5226.000
30
0.000
11
5122.909
21
5226.000
31
0.000
0
LINE
8
BARS
10
5122.909
20
5226.000
30
0.000
11
5122.909
21
57.000
31
0.000
0
LINE
8
BARS
10
5122.909
20
57.000
30
0.000
11
5122.909
21
57.000
31
0.000
0
LINE
8
BARS
10
5122.909
20
57.000
30
0.000
11
5102.990
21
57.000
31
0.000
0
LINE
8
BARS
10
5102.990
20
57.000
30
0.000
11
5083.071
21
57.000
31
0.000
0
LINE
8
BARS
10
6522.449
20
25.000
30
0.000
11
6522.449
21
25.000
31
0.000
0
LINE
8
BARS
10
6522.449
20
25.000
30
0.000
11
6522.449
21
5226.000
31
0.000
0
LINE
8
BARS
10
6522.449
20
5226.000
30
0.000
11
6538.470
21
5226.000
31
0.000
0
LINE
8
BARS
10
6538.470
20
5226.000
30
0.000
11
6554.492
21
5226.000
31
0.000
0
LINE
8
BARS
10
6554.492
20
5226.000
30
0.000
11
6554.492
21
5226.000
31
0.000
0
LINE
8
BARS
10
6554.492
20
5226.000
30
0.000
11
6554.492
21
25.000
31
0.000
0
LINE
8
BARS
10
6554.492
20
25.000
30
0.000
11
6554.492
21
25.000
31
0.000
0
LINE
8
BARS
10
6554.492
20
25.000
30
0.000
11
6538.470
21
25.000
31
0.000
0
LINE
8
BARS
10
6538.470
20
25.000
30
0.000
11
6522.449
21
25.000
31
0.000
0
LINE
8
BARS
10
6897.449
20
25.000
30
0.000
11
6897.449
21
25.000
31
0.000
0
LINE
8
BARS
10
6897.449
20
25.000
30
0.000
11
6897.449
21
5226.000
31
0.000
0
LINE
8
BARS
10
6897.449
20
5226.000
30
0.000
11
6913.470
21
5226.000
31
0.000
0
LINE
8
BARS
10
6913.470
20
5226.000
30
0.000
11
6929.492
21
5226.000
31
0.000
0
LINE
8
BARS
10
6929.492
20
5226.000
30
0.000
11
6929.492
21
5226.000
31
0.000
0
LINE
8
BARS
10
6929.492
20
5226.000
30
0.000
11
6929.492
21
25.000
31
0.000
0
LINE
8
BARS
10
6929.492
20
25.000
30
0.000
11
6929.492
21
25.000
31
0.000
0
LINE
8
BARS
10
6929.492
20
25.000
30
0.000
11
6913.470
21
25.000
31
0.000
0
LINE
8
BARS
10
6913.470
20
25.000
30
0.000
11
6897.449
21
25.000
31
0.000
0
LINE
8
BARS
10
7057.449
20
25.000
30
0.000
11
7057.449
21
25.000
31
0.000
0
LINE
8
BARS
10
7057.449
20
25.000
30
0.000
11
7057.449
21
5226.000
31
0.000
0
LINE
8
BARS
10
7057.449
20
5226.000
30
0.000
11
7073.470
21
5226.000
31
0.000
0
LINE
8
BARS
10
7073.470
20
5226.000
30
0.000
11
7089.492
21
5226.000
31
0.000
0
LINE
8
BARS
10
7089.492
20
5226.000
30
0.000
11
7089.492
21
5226.000
31
0.000
0
LINE
8
BARS
10
7089.492
20
5226.000
30
0.000
11
7089.492
21
25.000
31
0.000
0
LINE
8
BARS
10
7089.492
20
25.000
30
0.000
11
7089.492
21
25.000
31
0.000
0
LINE
8
BARS
10
7089.492
20
25.000
30
0.000
11
7073.470
21
25.000
31
0.000
0
LINE
8
BARS
10
7073.470
20
25.000
30
0.000
11
7057.449
21
25.000
31
0.000
0
LINE
8
BARS
10
7307.449
20
25.000
30
0.000
11
7307.449
21
25.000
31
0.000
0
LINE
8
BARS
10
7307.449
20
25.000
30
0.000
11
7307.449
21
5226.000
31
0.000
0
LINE
8
BARS
10
7307.449
20
5226.000
30
0.000
11
7323.470
21
5226.000
31
0.000
0
LINE
8
BARS
10
7323.470
20
5226.000
30
0.000
11
7339.492
21
5226.000
31
0.000
0
LINE
8
BARS
10
7339.492
20
5226.000
30
0.000
11
7339.492
21
5226.000
31
0.000
0
LINE
8
BARS
10
7339.492
20
5226.000
30
0.000
11
7339.492
21
25.000
31
0.000
0
LINE
8
BARS
10
7339.492
20
25.000
30
0.000
11
7339.492
21
25.000
31
0.000
0
LINE
8
BARS
10
7339.492
20
25.000
30
0.000
11
7323.470
21
25.000
31
0.000
0
LINE
8
BARS
10
7323.470
20
25.000
30
0.000
11
7307.449
21
25.000
31
0.000
0
LINE
8
BARS
10
7507.449
20
25.000
30
0.000
11
7507.449
21
25.000
31
0.000
0
LINE
8
BARS
10
7507.449
20
25.000
30
0.000
11
7507.449
21
5226.000
31
0.000
0
LINE
8
BARS
10
7507.449
20
5226.000
30
0.000
11
7523.470
21
5226.000
31
0.000
0
LINE
8
BARS
10
7523.470
20
5226.000
30
0.000
11
7539.492
21
5226.000
31
0.000
0
LINE
8
BARS
10
7539.492
20
5226.000
30
0.000
11
7539.492
21
5226.000
31
0.000
0
LINE
8
BARS
10
7539.492
20
5226.000
30
0.000
11
7539.492
21
25.000
31
0.000
0
LINE
8
BARS
10
7539.492
20
25.000
30
0.000
11
7539.492
21
25.000
31
0.000
0
LINE
8
BARS
10
7539.492
20
25.000
30
0.000
11
7523.470
21
25.000
31
0.000
0
LINE
8
BARS
10
7523.470
20
25.000
30
0.000
11
7507.449
21
25.000
31
0.000
0
LINE
8
BARS
10
7737.449
20
25.000
30
0.000
11
7737.449
21
25.000
31
0.000
0
LINE
8
BARS
10
7737.449
20
25.000
30
0.000
11
7737.449
21
5226.000
31
0.000
0
LINE
8
BARS
10
7737.449
20
5226.000
30
0.000
11
7753.470
21
5226.000
31
0.000
0
LINE
8
BARS
10
7753.470
20
5226.000
30
0.000
11
7769.492
21
5226.000
31
0.000
0
LINE
8
BARS
10
7769.492
20
5226.000
30
0.000
11
7769.492
21
5226.000
31
0.000
0
LINE
8
BARS
10
7769.492
20
5226.000
30
0.000
11
7769.492
21
25.000
31
0.000
0
LINE
8
BARS
10
7769.492
20
25.000
30
0.000
11
7769.492
21
25.000
31
0.000
0
LINE
8
BARS
10
7769.492
20
25.000
30
0.000
11
7753.470
21
25.000
31
0.000
0
LINE
8
BARS
10
7753.470
20
25.000
30
0.000
11
7737.449
21
25.000
31
0.000
0
LINE
8
BARS
10
7867.449
20
25.000
30
0.000
11
7867.449
21
25.000
31
0.000
0
LINE
8
BARS
10
7867.449
20
25.000
30
0.000
11
7867.449
21
5226.000
31
0.000
0
LINE
8
BARS
10
7867.449
20
5226.000
30
0.000
11
7883.470
21
5226.000
31
0.000
0
LINE
8
BARS
10
7883.470
20
5226.000
30
0.000
11
7899.492
21
5226.000
31
0.000
0
LINE
8
BARS
10
7899.492
20
5226.000
30
0.000
11
7899.492
21
5226.000
31
0.000
0
LINE
8
BARS
10
7899.492
20
5226.000
30
0.000
11
7899.492
21
25.000
31
0.000
0
LINE
8
BARS
10
7899.492
20
25.000
30
0.000
11
7899.492
21
25.000
31
0.000
0
LINE
8
BARS
10
7899.492
20
25.000
30
0.000
11
7883.470
21
25.000
31
0.000
0
LINE
8
BARS
10
7883.470
20
25.000
30
0.000
11
7867.449
21
25.000
31
0.000
0
LINE
8
BARS
10
8007.449
20
25.000
30
0.000
11
8007.449
21
25.000
31
0.000
0
LINE
8
BARS
10
8007.449
20
25.000
30
0.000
11
8007.449
21
5226.000
31
0.000
0
LINE
8
BARS
10
8007.449
20
5226.000
30
0.000
11
8023.470
21
5226.000
31
0.000
0
LINE
8
BARS
10
8023.470
20
5226.000
30
0.000
11
8039.492
21
5226.000
31
0.000
0
LINE
8
BARS
10
8039.492
20
5226.000
30
0.000
11
8039.492
21
5226.000
31
0.000
0
LINE
8
BARS
10
8039.492
20
5226.000
30
0.000
11
8039.492
21
25.000
31
0.000
0
LINE
8
BARS
10
8039.492
20
25.000
30
0.000
11
8039.492
21
25.000
31
0.000
0
LINE
8
BARS
10
8039.492
20
25.000
30
0.000
11
8023.470
21
25.000
31
0.000
0
LINE
8
BARS
10
8023.470
20
25.000
30
0.000
11
8007.449
21
25.000
31
0.000
0
LINE
8
BARS
10
8202.449
20
25.000
30
0.000
11
8202.449
21
25.000
31
0.000
0
LINE
8
BARS
10
8202.449
20
25.000
30
0.000
11
8202.449
21
5226.000
31
0.000
0
LINE
8
BARS
10
8202.449
20
5226.000
30
0.000
11
8218.470
21
5226.000
31
0.000
0
LINE
8
BARS
10
8218.470
20
5226.000
30
0.000
11
8234.492
21
5226.000
31
0.000
0
LINE
8
BARS
10
8234.492
20
5226.000
30
0.000
11
8234.492
21
5226.000
31
0.000
0
LINE
8
BARS
10
8234.492
20
5226.000
30
0.000
11
8234.492
21
25.000
31
0.000
0
LINE
8
BARS
10
8234.492
20
25.000
30
0.000
11
8234.492
21
25.000
31
0.000
0
LINE
8
BARS
10
8234.492
20
25.000
30
0.000
11
8218.470
21
25.000
31
0.000
0
LINE
8
BARS
10
8218.470
20
25.000
30
0.000
11
8202.449
21
25.000
31
0.000
0
LINE
8
BARS
10
8452.449
20
25.000
30
0.000
11
8452.449
21
25.000
31
0.000
0
LINE
8
BARS
10
8452.449
20
25.000
30
0.000
11
8452.449
21
5226.000
31
0.000
0
LINE
8
BARS
10
8452.449
20
5226.000
30
0.000
11
8468.470
21
5226.000
31
0.000
0
LINE
8
BARS
10
8468.470
20
5226.000
30
0.000
11
8484.492
21
5226.000
31
0.000
0
LINE
8
BARS
10
8484.492
20
5226.000
30
0.000
11
8484.492
21
5226.000
31
0.000
0
LINE
8
BARS
10
8484.492
20
5226.000
30
0.000
11
8484.492
21
25.000
31
0.000
0
LINE
8
BARS
10
8484.492
20
25.000
30
0.000
11
8484.492
21
25.000
31
0.000
0
LINE
8
BARS
10
8484.492
20
25.000
30
0.000
11
8468.470
21
25.000
31
0.000
0
LINE
8
BARS
10
8468.470
20
25.000
30
0.000
11
8452.449
21
25.000
31
0.000
0
LINE
8
BARS
10
8652.449
20
25.000
30
0.000
11
8652.449
21
25.000
31
0.000
0
LINE
8
BARS
10
8652.449
20
25.000
30
0.000
11
8652.449
21
5226.000
31
0.000
0
LINE
8
BARS
10
8652.449
20
5226.000
30
0.000
11
8668.470
21
5226.000
31
0.000
0
LINE
8
BARS
10
8668.470
20
5226.000
30
0.000
11
8684.492
21
5226.000
31
0.000
0
LINE
8
BARS
10
8684.492
20
5226.000
30
0.000
11
8684.492
21
5226.000
31
0.000
0
LINE
8
BARS
10
8684.492
20
5226.000
30
0.000
11
8684.492
21
25.000
31
0.000
0
LINE
8
BARS
10
8684.492
20
25.000
30
0.000
11
8684.492
21
25.000
31
0.000
0
LINE
8
BARS
10
8684.492
20
25.000
30
0.000
11
8668.470
21
25.000
31
0.000
0
LINE
8
BARS
10
8668.470
20
25.000
30
0.000
11
8652.449
21
25.000
31
0.000
0
LINE
8
BARS
10
8857.449
20
25.000
30
0.000
11
8857.449
21
25.000
31
0.000
0
LINE
8
BARS
10
8857.449
20
25.000
30
0.000
11
8857.449
21
5226.000
31
0.000
0
LINE
8
BARS
10
8857.449
20
5226.000
30
0.000
11
8873.470
21
5226.000
31
0.000
0
LINE
8
BARS
10
8873.470
20
5226.000
30
0.000
11
8889.492
21
5226.000
31
0.000
0
LINE
8
BARS
10
8889.492
20
5226.000
30
0.000
11
8889.492
21
5226.000
31
0.000
0
LINE
8
BARS
10
8889.492
20
5226.000
30
0.000
11
8889.492
21
25.000
31
0.000
0
LINE
8
BARS
10
8889.492
20
25.000
30
0.000
11
8889.492
21
25.000
31
0.000
0
LINE
8
BARS
10
8889.492
20
25.000
30
0.000
11
8873.470
21
25.000
31
0.000
0
LINE
8
BARS
10
8873.470
20
25.000
30
0.000
11
8857.449
21
25.000
31
0.000
0
LINE
8
BARS
10
9057.449
20
25.000
30
0.000
11
9057.449
21
25.000
31
0.000
0
LINE
8
BARS
10
9057.449
20
25.000
30
0.000
11
9057.449
21
5226.000
31
0.000
0
LINE
8
BARS
10
9057.449
20
5226.000
30
0.000
11
9073.470
21
5226.000
31
0.000
0
LINE
8
BARS
10
9073.470
20
5226.000
30
0.000
11
9089.492
21
5226.000
31
0.000
0
LINE
8
BARS
10
9089.492
20
5226.000
30
0.000
11
9089.492
21
5226.000
31
0.000
0
LINE
8
BARS
10
9089.492
20
5226.000
30
0.000
11
9089.492
21
25.000
31
0.000
0
LINE
8
BARS
10
9089.492
20
25.000
30
0.000
11
9089.492
21
25.000
31
0.000
0
LINE
8
BARS
10
9089.492
20
25.000
30
0.000
11
9073.470
21
25.000
31
0.000
0
LINE
8
BARS
10
9073.470
20
25.000
30
0.000
11
9057.449
21
25.000
31
0.000
0
LINE
8
BARS
10
9257.449
20
25.000
30
0.000
11
9257.449
21
25.000
31
0.000
0
LINE
8
BARS
10
9257.449
20
25.000
30
0.000
11
9257.449
21
5226.000
31
0.000
0
LINE
8
BARS
10
9257.449
20
5226.000
30
0.000
11
9273.470
21
5226.000
31
0.000
0
LINE
8
BARS
10
9273.470
20
5226.000
30
0.000
11
9289.492
21
5226.000
31
0.000
0
LINE
8
BARS
10
9289.492
20
5226.000
30
0.000
11
9289.492
21
5226.000
31
0.000
0
LINE
8
BARS
10
9289.492
20
5226.000
30
0.000
11
9289.492
21
25.000
31
0.000
0
LINE
8
BARS
10
9289.492
20
25.000
30
0.000
11
9289.492
21
25.000
31
0.000
0
LINE
8
BARS
10
9289.492
20
25.000
30
0.000
11
9273.470
21
25.000
31
0.000
0
LINE
8
BARS
10
9273.470
20
25.000
30
0.000
11
9257.449
21
25.000
31
0.000
0
LINE
8
BARS
10
9457.449
20
25.000
30
0.000
11
9457.449
21
25.000
31
0.000
0
LINE
8
BARS
10
9457.449
20
25.000
30
0.000
11
9457.449
21
5226.000
31
0.000
0
LINE
8
BARS
10
9457.449
20
5226.000
30
0.000
11
9473.470
21
5226.000
31
0.000
0
LINE
8
BARS
10
9473.470
20
5226.000
30
0.000
11
9489.492
21
5226.000
31
0.000
0
LINE
8
BARS
10
9489.492
20
5226.000
30
0.000
11
9489.492
21
5226.000
31
0.000
0
LINE
8
BARS
10
9489.492
20
5226.000
30
0.000
11
9489.492
21
25.000
31
0.000
0
LINE
8
BARS
10
9489.492
20
25.000
30
0.000
11
9489.492
21
25.000
31
0.000
0
LINE
8
BARS
10
9489.492
20
25.000
30
0.000
11
9473.470
21
25.000
31
0.000
0
LINE
8
BARS
10
9473.470
20
25.000
30
0.000
11
9457.449
21
25.000
31
0.000
0
LINE
8
BARS
10
9657.449
20
25.000
30
0.000
11
9657.449
21
25.000
31
0.000
0
LINE
8
BARS
10
9657.449
20
25.000
30
0.000
11
9657.449
21
5226.000
31
0.000
0
LINE
8
BARS
10
9657.449
20
5226.000
30
0.000
11
9673.470
21
5226.000
31
0.000
0
LINE
8
BARS
10
9673.470
20
5226.000
30
0.000
11
9689.492
21
5226.000
31
0.000
0
LINE
8
BARS
10
9689.492
20
5226.000
30
0.000
11
9689.492
21
5226.000
31
0.000
0
LINE
8
BARS
10
9689.492
20
5226.000
30
0.000
11
9689.492
21
25.000
31
0.000
0
LINE
8
BARS
10
9689.492
20
25.000
30
0.000
11
9689.492
21
25.000
31
0.000
0
LINE
8
BARS
10
9689.492
20
25.000
30
0.000
11
9673.470
21
25.000
31
0.000
0
LINE
8
BARS
10
9673.470
20
25.000
30
0.000
11
9657.449
21
25.000
31
0.000
0
LINE
8
BARS
10
251.061
20
58.000
30
0.000
11
251.061
21
58.000
31
0.000
0
LINE
8
BARS
10
251.061
20
58.000
30
0.000
11
251.061
21
5227.000
31
0.000
0
LINE
8
BARS
10
251.061
20
5227.000
30
0.000
11
270.980
21
5227.000
31
0.000
0
LINE
8
BARS
10
270.980
20
5227.000
30
0.000
11
290.899
21
5227.000
31
0.000
0
LINE
8
BARS
10
290.899
20
5227.000
30
0.000
11
290.899
21
5227.000
31
0.000
0
LINE
8
BARS
10
290.899
20
5227.000
30
0.000
11
290.899
21
58.000
31
0.000
0
LINE
8
BARS
10
290.899
20
58.000
30
0.000
11
290.899
21
58.000
31
0.000
0
LINE
8
BARS
10
290.899
20
58.000
30
0.000
11
270.980
21
58.000
31
0.000
0
LINE
8
BARS
10
270.980
20
58.000
30
0.000
11
251.061
21
58.000
31
0.000
0
LINE
8
BARS
10
451.061
20
58.000
30
0.000
11
451.061
21
58.000
31
0.000
0
LINE
8
BARS
10
451.061
20
58.000
30
0.000
11
451.061
21
5227.000
31
0.000
0
LINE
8
BARS
10
451.061
20
5227.000
30
0.000
11
470.980
21
5227.000
31
0.000
0
LINE
8
BARS
10
470.980
20
5227.000
30
0.000
11
490.899
21
5227.000
31
0.000
0
LINE
8
BARS
10
490.899
20
5227.000
30
0.000
11
490.899
21
5227.000
31
0.000
0
LINE
8
BARS
10
490.899
20
5227.000
30
0.000
11
490.899
21
58.000
31
0.000
0
LINE
8
BARS
10
490.899
20
58.000
30
0.000
11
490.899
21
58.000
31
0.000
0
LINE
8
BARS
10
490.899
20
58.000
30
0.000
11
470.980
21
58.000
31
0.000
0
LINE
8
BARS
10
470.980
20
58.000
30
0.000
11
451.061
21
58.000
31
0.000
0
LINE
8
BARS
10
712.731
20
57.000
30
0.000
11
712.731
21
57.000
31
0.000
0
LINE
8
BARS
10
712.731
20
57.000
30
0.000
11
712.731
21
5226.000
31
0.000
0
LINE
8
BARS
10
712.731
20
5226.000
30
0.000
11
732.650
21
5226.000
31
0.000
0
LINE
8
BARS
10
732.650
20
5226.000
30
0.000
11
752.569
21
5226.000
31
0.000
0
LINE
8
BARS
10
752.569
20
5226.000
30
0.000
11
752.569
21
5226.000
31
0.000
0
LINE
8
BARS
10
752.569
20
5226.000
30
0.000
11
752.569
21
57.000
31
0.000
0
LINE
8
BARS
10
752.569
20
57.000
30
0.000
11
752.569
21
57.000
31
0.000
0
LINE
8
BARS
10
752.569
20
57.000
30
0.000
11
732.650
21
57.000
31
0.000
0
LINE
8
BARS
10
732.650
20
57.000
30
0.000
11
712.731
21
57.000
31
0.000
0
LINE
8
BARS
10
912.731
20
57.000
30
0.000
11
912.731
21
57.000
31
0.000
0
LINE
8
BARS
10
912.731
20
57.000
30
0.000
11
912.731
21
5226.000
31
0.000
0
LINE
8
BARS
10
912.731
20
5226.000
30
0.000
11
932.650
21
5226.000
31
0.000
0
LINE
8
BARS
10
932.650
20
5226.000
30
0.000
11
952.569
21
5226.000
31
0.000
0
LINE
8
BARS
10
952.569
20
5226.000
30
0.000
11
952.569
21
5226.000
31
0.000
0
LINE
8
BARS
10
952.569
20
5226.000
30
0.000
11
952.569
21
57.000
31
0.000
0
LINE
8
BARS
10
952.569
20
57.000
30
0.000
11
952.569
21
57.000
31
0.000
0
LINE
8
BARS
10
952.569
20
57.000
30
0.000
11
932.650
21
57.000
31
0.000
0
LINE
8
BARS
10
932.650
20
57.000
30
0.000
11
912.731
21
57.000
31
0.000
0
LINE
8
BARS
10
1112.731
20
57.000
30
0.000
11
1112.731
21
57.000
31
0.000
0
LINE
8
BARS
10
1112.731
20
57.000
30
0.000
11
1112.731
21
5226.000
31
0.000
0
LINE
8
BARS
10
1112.731
20
5226.000
30
0.000
11
1132.650
21
5226.000
31
0.000
0
LINE
8
BARS
10
1132.650
20
5226.000
30
0.000
11
1152.569
21
5226.000
31
0.000
0
LINE
8
BARS
10
1152.569
20
5226.000
30
0.000
11
1152.569
21
5226.000
31
0.000
0
LINE
8
BARS
10
1152.569
20
5226.000
30
0.000
11
1152.569
21
57.000
31
0.000
0
LINE
8
BARS
10
1152.569
20
57.000
30
0.000
11
1152.569
21
57.000
31
0.000
0
LINE
8
BARS
10
1152.569
20
57.000
30
0.000
11
1132.650
21
57.000
31
0.000
0
LINE
8
BARS
10
1132.650
20
57.000
30
0.000
11
1112.731
21
57.000
31
0.000
0
LINE
8
BARS
10
1312.731
20
57.000
30
0.000
11
1312.731
21
57.000
31
0.000
0
LINE
8
BARS
10
1312.731
20
57.000
30
0.000
11
1312.731
21
5226.000
31
0.000
0
LINE
8
BARS
10
1312.731
20
5226.000
30
0.000
11
1332.650
21
5226.000
31
0.000
0
LINE
8
BARS
10
1332.650
20
5226.000
30
0.000
11
1352.569
21
5226.000
31
0.000
0
LINE
8
BARS
10
1352.569
20
5226.000
30
0.000
11
1352.569
21
5226.000
31
0.000
0
LINE
8
BARS
10
1352.569
20
5226.000
30
0.000
11
1352.569
21
57.000
31
0.000
0
LINE
8
BARS
10
1352.569
20
57.000
30
0.000
11
1352.569
21
57.000
31
0.000
0
LINE
8
BARS
10
1352.569
20
57.000
30
0.000
11
1332.650
21
57.000
31
0.000
0
LINE
8
BARS
10
1332.650
20
57.000
30
0.000
11
1312.731
21
57.000
31
0.000
0
LINE
8
BARS
10
1512.731
20
57.000
30
0.000
11
1512.731
21
57.000
31
0.000
0
LINE
8
BARS
10
1512.731
20
57.000
30
0.000
11
1512.731
21
5226.000
31
0.000
0
LINE
8
BARS
10
1512.731
20
5226.000
30
0.000
11
1532.650
21
5226.000
31
0.000
0
LINE
8
BARS
10
1532.650
20
5226.000
30
0.000
11
1552.569
21
5226.000
31
0.000
0
LINE
8
BARS
10
1552.569
20
5226.000
30
0.000
11
1552.569
21
5226.000
31
0.000
0
LINE
8
BARS
10
1552.569
20
5226.000
30
0.000
11
1552.569
21
57.000
31
0.000
0
LINE
8
BARS
10
1552.569
20
57.000
30
0.000
11
1552.569
21
57.000
31
0.000
0
LINE
8
BARS
10
1552.569
20
57.000
30
0.000
11
1532.650
21
57.000
31
0.000
0
LINE
8
BARS
10
1532.650
20
57.000
30
0.000
11
1512.731
21
57.000
31
0.000
0
LINE
8
BARS
10
1707.731
20
57.000
30
0.000
11
1707.731
21
57.000
31
0.000
0
LINE
8
BARS
10
1707.731
20
57.000
30
0.000
11
1707.731
21
5226.000
31
0.000
0
LINE
8
BARS
10
1707.731
20
5226.000
30
0.000
11
1727.650
21
5226.000
31
0.000
0
LINE
8
BARS
10
1727.650
20
5226.000
30
0.000
11
1747.569
21
5226.000
31
0.000
0
LINE
8
BARS
10
1747.569
20
5226.000
30
0.000
11
1747.569
21
5226.000
31
0.000
0
LINE
8
BARS
10
1747.569
20
5226.000
30
0.000
11
1747.569
21
57.000
31
0.000
0
LINE
8
BARS
10
1747.569
20
57.000
30
0.000
11
1747.569
21
57.000
31
0.000
0
LINE
8
BARS
10
1747.569
20
57.000
30
0.000
11
1727.650
21
57.000
31
0.000
0
LINE
8
BARS
10
1727.650
20
57.000
30
0.000
11
1707.731
21
57.000
31
0.000
0
LINE
8
BARS
10
1912.731
20
57.000
30
0.000
11
1912.731
21
57.000
31
0.000
0
LINE
8
BARS
10
1912.731
20
57.000
30
0.000
11
1912.731
21
5226.000
31
0.000
0
LINE
8
BARS
10
1912.731
20
5226.000
30
0.000
11
1932.650
21
5226.000
31
0.000
0
LINE
8
BARS
10
1932.650
20
5226.000
30
0.000
11
1952.569
21
5226.000
31
0.000
0
LINE
8
BARS
10
1952.569
20
5226.000
30
0.000
11
1952.569
21
5226.000
31
0.000
0
LINE
8
BARS
10
1952.569
20
5226.000
30
0.000
11
1952.569
21
57.000
31
0.000
0
LINE
8
BARS
10
1952.569
20
57.000
30
0.000
11
1952.569
21
57.000
31
0.000
0
LINE
8
BARS
10
1952.569
20
57.000
30
0.000
11
1932.650
21
57.000
31
0.000
0
LINE
8
BARS
10
1932.650
20
57.000
30
0.000
11
1912.731
21
57.000
31
0.000
0
LINE
8
BARS
10
2112.731
20
57.000
30
0.000
11
2112.731
21
57.000
31
0.000
0
LINE
8
BARS
10
2112.731
20
57.000
30
0.000
11
2112.731
21
5226.000
31
0.000
0
LINE
8
BARS
10
2112.731
20
5226.000
30
0.000
11
2132.650
21
5226.000
31
0.000
0
LINE
8
BARS
10
2132.650
20
5226.000
30
0.000
11
2152.569
21
5226.000
31
0.000
0
LINE
8
BARS
10
2152.569
20
5226.000
30
0.000
11
2152.569
21
5226.000
31
0.000
0
LINE
8
BARS
10
2152.569
20
5226.000
30
0.000
11
2152.569
21
57.000
31
0.000
0
LINE
8
BARS
10
2152.569
20
57.000
30
0.000
11
2152.569
21
57.000
31
0.000
0
LINE
8
BARS
10
2152.569
20
57.000
30
0.000
11
2132.650
21
57.000
31
0.000
0
LINE
8
BARS
10
2132.650
20
57.000
30
0.000
11
2112.731
21
57.000
31
0.000
0
LINE
8
BARS
10
2312.731
20
57.000
30
0.000
11
2312.731
21
57.000
31
0.000
0
LINE
8
BARS
10
2312.731
20
57.000
30
0.000
11
2312.731
21
5226.000
31
0.000
0
LINE
8
BARS
10
2312.731
20
5226.000
30
0.000
11
2332.650
21
5226.000
31
0.000
0
LINE
8
BARS
10
2332.650
20
5226.000
30
0.000
11
2352.569
21
5226.000
31
0.000
0
LINE
8
BARS
10
2352.569
20
5226.000
30
0.000
11
2352.569
21
5226.000
31
0.000
0
LINE
8
BARS
10
2352.569
20
5226.000
30
0.000
11
2352.569
21
57.000
31
0.000
0
LINE
8
BARS
10
2352.569
20
57.000
30
0.000
11
2352.569
21
57.000
31
0.000
0
LINE
8
BARS
10
2352.569
20
57.000
30
0.000
11
2332.650
21
57.000
31
0.000
0
LINE
8
BARS
10
2332.650
20
57.000
30
0.000
11
2312.731
21
57.000
31
0.000
0
LINE
8
BARS
10
2512.731
20
57.000
30
0.000
11
2512.731
21
57.000
31
0.000
0
LINE
8
BARS
10
2512.731
20
57.000
30
0.000
11
2512.731
21
5226.000
31
0.000
0
LINE
8
BARS
10
2512.731
20
5226.000
30
0.000
11
2532.650
21
5226.000
31
0.000
0
LINE
8
BARS
10
2532.650
20
5226.000
30
0.000
11
2552.569
21
5226.000
31
0.000
0
LINE
8
BARS
10
2552.569
20
5226.000
30
0.000
11
2552.569
21
5226.000
31
0.000
0
LINE
8
BARS
10
2552.569
20
5226.000
30
0.000
11
2552.569
21
57.000
31
0.000
0
LINE
8
BARS
10
2552.569
20
57.000
30
0.000
11
2552.569
21
57.000
31
0.000
0
LINE
8
BARS
10
2552.569
20
57.000
30
0.000
11
2532.650
21
57.000
31
0.000
0
LINE
8
BARS
10
2532.650
20
57.000
30
0.000
11
2512.731
21
57.000
31
0.000
0
LINE
8
BARS
10
2709.731
20
57.000
30
0.000
11
2709.731
21
57.000
31
0.000
0
LINE
8
BARS
10
2709.731
20
57.000
30
0.000
11
2709.731
21
5226.000
31
0.000
0
LINE
8
BARS
10
2709.731
20
5226.000
30
0.000
11
2729.650
21
5226.000
31
0.000
0
LINE
8
BARS
10
2729.650
20
5226.000
30
0.000
11
2749.569
21
5226.000
31
0.000
0
LINE
8
BARS
10
2749.569
20
5226.000
30
0.000
11
2749.569
21
5226.000
31
0.000
0
LINE
8
BARS
10
2749.569
20
5226.000
30
0.000
11
2749.569
21
57.000
31
0.000
0
LINE
8
BARS
10
2749.569
20
57.000
30
0.000
11
2749.569
21
57.000
31
0.000
0
LINE
8
BARS
10
2749.569
20
57.000
30
0.000
11
2729.650
21
57.000
31
0.000
0
LINE
8
BARS
10
2729.650
20
57.000
30
0.000
11
2709.731
21
57.000
31
0.000
0
LINE
8
BARS
10
2912.731
20
57.000
30
0.000
11
2912.731
21
57.000
31
0.000
0
LINE
8
BARS
10
2912.731
20
57.000
30
0.000
11
2912.731
21
5226.000
31
0.000
0
LINE
8
BARS
10
2912.731
20
5226.000
30
0.000
11
2932.650
21
5226.000
31
0.000
0
LINE
8
BARS
10
2932.650
20
5226.000
30
0.000
11
2952.569
21
5226.000
31
0.000
0
LINE
8
BARS
10
2952.569
20
5226.000
30
0.000
11
2952.569
21
5226.000
31
0.000
0
LINE
8
BARS
10
2952.569
20
5226.000
30
0.000
11
2952.569
21
57.000
31
0.000
0
LINE
8
BARS
10
2952.569
20
57.000
30
0.000
11
2952.569
21
57.000
31
0.000
0
LINE
8
BARS
10
2952.569
20
57.000
30
0.000
11
2932.650
21
57.000
31
0.000
0
LINE
8
BARS
10
2932.650
20
57.000
30
0.000
11
2912.731
21
57.000
31
0.000
0
LINE
8
BARS
10
3130.731
20
57.000
30
0.000
11
3130.731
21
57.000
31
0.000
0
LINE
8
BARS
10
3130.731
20
57.000
30
0.000
11
3130.731
21
5226.000
31
0.000
0
LINE
8
BARS
10
3130.731
20
5226.000
30
0.000
11
3150.650
21
5226.000
31
0.000
0
LINE
8
BARS
10
3150.650
20
5226.000
30
0.000
11
3170.569
21
5226.000
31
0.000
0
LINE
8
BARS
10
3170.569
20
5226.000
30
0.000
11
3170.569
21
5226.000
31
0.000
0
LINE
8
BARS
10
3170.569
20
5226.000
30
0.000
11
3170.569
21
57.000
31
0.000
0
LINE
8
BARS
10
3170.569
20
57.000
30
0.000
11
3170.569
21
57.000
31
0.000
0
LINE
8
BARS
10
3170.569
20
57.000
30
0.000
11
3150.650
21
57.000
31
0.000
0
LINE
8
BARS
10
3150.650
20
57.000
30
0.000
11
3130.731
21
57.000
31
0.000
0
LINE
8
BARS
10
3312.731
20
57.000
30
0.000
11
3312.731
21
57.000
31
0.000
0
LINE
8
BARS
10
3312.731
20
57.000
30
0.000
11
3312.731
21
5226.000
31
0.000
0
LINE
8
BARS
10
3312.731
20
5226.000
30
0.000
11
3332.650
21
5226.000
31
0.000
0
LINE
8
BARS
10
3332.650
20
5226.000
30
0.000
11
3352.569
21
5226.000
31
0.000
0
LINE
8
BARS
10
3352.569
20
5226.000
30
0.000
11
3352.569
21
5226.000
31
0.000
0
LINE
8
BARS
10
3352.569
20
5226.000
30
0.000
11
3352.569
21
57.000
31
0.000
0
LINE
8
BARS
10
3352.569
20
57.000
30
0.000
11
3352.569
21
57.000
31
0.000
0
LINE
8
BARS
10
3352.569
20
57.000
30
0.000
11
3332.650
21
57.000
31
0.000
0
LINE
8
BARS
10
3332.650
20
57.000
30
0.000
11
3312.731
21
57.000
31
0.000
0
LINE
8
BARS
10
3512.731
20
57.000
30
0.000
11
3512.731
21
57.000
31
0.000
0
LINE
8
BARS
10
3512.731
20
57.000
30
0.000
11
3512.731
21
5226.000
31
0.000
0
LINE
8
BARS
10
3512.731
20
5226.000
30
0.000
11
3532.650
21
5226.000
31
0.000
0
LINE
8
BARS
10
3532.650
20
5226.000
30
0.000
11
3552.569
21
5226.000
31
0.000
0
LINE
8
BARS
10
3552.569
20
5226.000
30
0.000
11
3552.569
21
5226.000
31
0.000
0
LINE
8
BARS
10
3552.569
20
5226.000
30
0.000
11
3552.569
21
57.000
31
0.000
0
LINE
8
BARS
10
3552.569
20
57.000
30
0.000
11
3552.569
21
57.000
31
0.000
0
LINE
8
BARS
10
3552.569
20
57.000
30
0.000
11
3532.650
21
57.000
31
0.000
0
LINE
8
BARS
10
3532.650
20
57.000
30
0.000
11
3512.731
21
57.000
31
0.000
0
LINE
8
BARS
10
3672.731
20
57.000
30
0.000
11
3672.731
21
57.000
31
0.000
0
LINE
8
BARS
10
3672.731
20
57.000
30
0.000
11
3672.731
21
5226.000
31
0.000
0
LINE
8
BARS
10
3672.731
20
5226.000
30
0.000
11
3692.650
21
5226.000
31
0.000
0
LINE
8
BARS
10
3692.650
20
5226.000
30
0.000
11
3712.569
21
5226.000
31
0.000
0
LINE
8
BARS
10
3712.569
20
5226.000
30
0.000
11
3712.569
21
5226.000
31
0.000
0
LINE
8
BARS
10
3712.569
20
5226.000
30
0.000
11
3712.569
21
57.000
31
0.000
0
LINE
8
BARS
10
3712.569
20
57.000
30
0.000
11
3712.569
21
57.000
31
0.000
0
LINE
8
BARS
10
3712.569
20
57.000
30
0.000
11
3692.650
21
57.000
31
0.000
0
LINE
8
BARS
10
3692.650
20
57.000
30
0.000
11
3672.731
21
57.000
31
0.000
0
LINE
8
BARS
10
3912.731
20
57.000
30
0.000
11
3912.731
21
57.000
31
0.000
0
LINE
8
BARS
10
3912.731
20
57.000
30
0.000
11
3912.731
21
5226.000
31
0.000
0
LINE
8
BARS
10
3912.731
20
5226.000
30
0.000
11
3932.650
21
5226.000
31
0.000
0
LINE
8
BARS
10
3932.650
20
5226.000
30
0.000
11
3952.569
21
5226.000
31
0.000
0
LINE
8
BARS
10
3952.569
20
5226.000
30
0.000
11
3952.569
21
5226.000
31
0.000
0
LINE
8
BARS
10
3952.569
20
5226.000
30
0.000
11
3952.569
21
57.000
31
0.000
0
LINE
8
BARS
10
3952.569
20
57.000
30
0.000
11
3952.569
21
57.000
31
0.000
0
LINE
8
BARS
10
3952.569
20
57.000
30
0.000
11
3932.650
21
57.000
31
0.000
0
LINE
8
BARS
10
3932.650
20
57.000
30
0.000
11
3912.731
21
57.000
31
0.000
0
LINE
8
BARS
10
4083.731
20
57.000
30
0.000
11
4083.731
21
57.000
31
0.000
0
LINE
8
BARS
10
4083.731
20
57.000
30
0.000
11
4083.731
21
5226.000
31
0.000
0
LINE
8
BARS
10
4083.731
20
5226.000
30
0.000
11
4103.650
21
5226.000
31
0.000
0
LINE
8
BARS
10
4103.650
20
5226.000
30
0.000
11
4123.569
21
5226.000
31
0.000
0
LINE
8
BARS
10
4123.569
20
5226.000
30
0.000
11
4123.569
21
5226.000
31
0.000
0
LINE
8
BARS
10
4123.569
20
5226.000
30
0.000
11
4123.569
21
57.000
31
0.000
0
LINE
8
BARS
10
4123.569
20
57.000
30
0.000
11
4123.569
21
57.000
31
0.000
0
LINE
8
BARS
10
4123.569
20
57.000
30
0.000
11
4103.650
21
57.000
31
0.000
0
LINE
8
BARS
10
4103.650
20
57.000
30
0.000
11
4083.731
21
57.000
31
0.000
0
LINE
8
BARS
10
4327.731
20
57.000
30
0.000
11
4327.731
21
57.000
31
0.000
0
LINE
8
BARS
10
4327.731
20
57.000
30
0.000
11
4327.731
21
5226.000
31
0.000
0
LINE
8
BARS
10
4327.731
20
5226.000
30
0.000
11
4347.650
21
5226.000
31
0.000
0
LINE
8
BARS
10
4347.650
20
5226.000
30
0.000
11
4367.569
21
5226.000
31
0.000
0
LINE
8
BARS
10
4367.569
20
5226.000
30
0.000
11
4367.569
21
5226.000
31
0.000
0
LINE
8
BARS
10
4367.569
20
5226.000
30
0.000
11
4367.569
21
57.000
31
0.000
0
LINE
8
BARS
10
4367.569
20
57.000
30
0.000
11
4367.569
21
57.000
31
0.000
0
LINE
8
BARS
10
4367.569
20
57.000
30
0.000
11
4347.650
21
57.000
31
0.000
0
LINE
8
BARS
10
4347.650
20
57.000
30
0.000
11
4327.731
21
57.000
31
0.000
0
LINE
8
BARS
10
4472.731
20
57.000
30
0.000
11
4472.731
21
57.000
31
0.000
0
LINE
8
BARS
10
4472.731
20
57.000
30
0.000
11
4472.731
21
5226.000
31
0.000
0
LINE
8
BARS
10
4472.731
20
5226.000
30
0.000
11
4492.650
21
5226.000
31
0.000
0
LINE
8
BARS
10
4492.650
20
5226.000
30
0.000
11
4512.569
21
5226.000
31
0.000
0
LINE
8
BARS
10
4512.569
20
5226.000
30
0.000
11
4512.569
21
5226.000
31
0.000
0
LINE
8
BARS
10
4512.569
20
5226.000
30
0.000
11
4512.569
21
57.000
31
0.000
0
LINE
8
BARS
10
4512.569
20
57.000
30
0.000
11
4512.569
21
57.000
31
0.000
0
LINE
8
BARS
10
4512.569
20
57.000
30
0.000
11
4492.650
21
57.000
31
0.000
0
LINE
8
BARS
10
4492.650
20
57.000
30
0.000
11
4472.731
21
57.000
31
0.000
0
LINE
8
BARS
10
4682.731
20
57.000
30
0.000
11
4682.731
21
57.000
31
0.000
0
LINE
8
BARS
10
4682.731
20
57.000
30
0.000
11
4682.731
21
5226.000
31
0.000
0
LINE
8
BARS
10
4682.731
20
5226.000
30
0.000
11
4702.650
21
5226.000
31
0.000
0
LINE
8
BARS
10
4702.650
20
5226.000
30
0.000
11
4722.569
21
5226.000
31
0.000
0
LINE
8
BARS
10
4722.569
20
5226.000
30
0.000
11
4722.569
21
5226.000
31
0.000
0
LINE
8
BARS
10
4722.569
20
5226.000
30
0.000
11
4722.569
21
57.000
31
0.000
0
LINE
8
BARS
10
4722.569
20
57.000
30
0.000
11
4722.569
21
57.000
31
0.000
0
LINE
8
BARS
10
4722.569
20
57.000
30
0.000
11
4702.650
21
57.000
31
0.000
0
LINE
8
BARS
10
4702.650
20
57.000
30
0.000
11
4682.731
21
57.000
31
0.000
0
LINE
8
BARS
10
4882.731
20
57.000
30
0.000
11
4882.731
21
57.000
31
0.000
0
LINE
8
BARS
10
4882.731
20
57.000
30
0.000
11
4882.731
21
5226.000
31
0.000
0
LINE
8
BARS
10
4882.731
20
5226.000
30
0.000
11
4902.650
21
5226.000
31
0.000
0
LINE
8
BARS
10
4902.650
20
5226.000
30
0.000
11
4922.569
21
5226.000
31
0.000
0
LINE
8
BARS
10
4922.569
20
5226.000
30
0.000
11
4922.569
21
5226.000
31
0.000
0
LINE
8
BARS
10
4922.569
20
5226.000
30
0.000
11
4922.569
21
57.000
31
0.000
0
LINE
8
BARS
10
4922.569
20
57.000
30
0.000
11
4922.569
21
57.000
31
0.000
0
LINE
8
BARS
10
4922.569
20
57.000
30
0.000
11
4902.650
21
57.000
31
0.000
0
LINE
8
BARS
10
4902.650
20
57.000
30
0.000
11
4882.731
21
57.000
31
0.000
0
LINE
8
BARS
10
10042.269
20
5.000
30
0.000
11
10042.269
21
5.000
31
0.000
0
LINE
8
BARS
10
10042.269
20
5.000
30
0.000
11
10042.269
21
5226.000
31
0.000
0
LINE
8
BARS
10
10042.269
20
5226.000
30
0.000
11
10058.290
21
5226.000
31
0.000
0
LINE
8
BARS
10
10058.290
20
5226.000
30
0.000
11
10074.312
21
5226.000
31
0.000
0
LINE
8
BARS
10
10074.312
20
5226.000
30
0.000
11
10074.312
21
5226.000
31
0.000
0
LINE
8
BARS
10
10074.312
20
5226.000
30
0.000
11
10074.312
21
5.000
31
0.000
0
LINE
8
BARS
10
10074.312
20
5.000
30
0.000
11
10074.312
21
5.000
31
0.000
0
LINE
8
BARS
10
10074.312
20
5.000
30
0.000
11
10058.290
21
5.000
31
0.000
0
LINE
8
BARS
10
10058.290
20
5.000
30
0.000
11
10042.269
21
5.000
31
0.000
0
TEXT
8
TEXT
10
0.000
20
5267.000
30
0.000
40
18.000
1
P7349_C1  |  F1A  |  72 bars  [BREP]
0
ENDSEC
0
EOF
