0
SECTION
2
HEADER
9
$ACADVER
1
AC1009
9
$TEXTSTYLE
7
ARIAL
0
ENDSEC
0
SECTION
2
TABLES
0
TABLE
2
STYLE
70
1
0
STYLE
2
ARIAL
70
0
40
0.0
41
1.0
50
0.0
71
0
42
0.0
3
arial.ttf
4

0
ENDTAB
0
TABLE
2
LAYER
70
5
0
LAYER
2
PLATE_OUTLINE
70
0
62
1
6
CONTINUOUS
0
LAYER
2
TEXT
70
0
62
7
6
CONTINUOUS
0
LAYER
2
DIMS
70
0
62
7
6
CONTINUOUS
0
LAYER
2
HOLES
70
0
62
7
6
CONTINUOUS
0
LAYER
2
SCREW_HOLES
70
0
62
7
6
CONTINUOUS
0
ENDTAB
0
ENDSEC
0
SECTION
2
ENTITIES
0
TEXT
8
TEXT
10
80.0
20
65.0
30
0.0
40
12.00
1
N1A — P7349_C1  |  88 holes  |  0 VS + 5 HS plates
50
0.0
7
ARIAL
0
LINE
8
PLATE_OUTLINE
10
80.0
20
90.0
30
0.0
11
1963.0
21
90.0
31
0.0
0
LINE
8
PLATE_OUTLINE
10
1963.0
20
90.0
30
0.0
11
1963.0
21
306.5
31
0.0
0
LINE
8
PLATE_OUTLINE
10
1963.0
20
306.5
30
0.0
11
80.0
21
306.5
31
0.0
0
LINE
8
PLATE_OUTLINE
10
80.0
20
306.5
30
0.0
11
80.0
21
90.0
31
0.0
0
CIRCLE
8
SCREW_HOLES
10
85.0
20
95.0
30
0.0
40
2.50
0
CIRCLE
8
SCREW_HOLES
10
1958.0
20
95.0
30
0.0
40
2.50
0
CIRCLE
8
SCREW_HOLES
10
85.0
20
301.5
30
0.0
40
2.50
0
CIRCLE
8
SCREW_HOLES
10
1958.0
20
301.5
30
0.0
40
2.50
0
LINE
8
DIMS
10
80.0
20
70.0
30
0.0
11
1963.0
21
70.0
31
0.0
0
LINE
8
DIMS
10
80.0
20
66.0
30
0.0
11
80.0
21
74.0
31
0.0
0
LINE
8
DIMS
10
1963.0
20
66.0
30
0.0
11
1963.0
21
74.0
31
0.0
0
TEXT
8
DIMS
10
1021.5
20
75.0
30
0.0
40
6.00
1
1883 mm
50
0.0
7
ARIAL
0
LINE
8
DIMS
10
60.0
20
90.0
30
0.0
11
60.0
21
306.5
31
0.0
0
LINE
8
DIMS
10
56.0
20
90.0
30
0.0
11
64.0
21
90.0
31
0.0
0
LINE
8
DIMS
10
56.0
20
306.5
30
0.0
11
64.0
21
306.5
31
0.0
0
TEXT
8
DIMS
10
65.0
20
198.3
30
0.0
40
6.00
1
217 mm
50
0.0
7
ARIAL
0
CIRCLE
8
HOLES
10
121.5
20
265.0
30
0.0
40
16.50
0
TEXT
8
TEXT
10
104.0
20
283.5
30
0.0
40
5.00
1
Ø33mm
50
0.0
7
ARIAL
0
CIRCLE
8
HOLES
10
125.5
20
131.5
30
0.0
40
16.50
0
CIRCLE
8
HOLES
10
157.5
20
131.5
30
0.0
40
16.50
0
CIRCLE
8
HOLES
10
157.5
20
265.0
30
0.0
40
16.50
0
CIRCLE
8
HOLES
10
321.5
20
131.5
30
0.0
40
16.50
0
CIRCLE
8
HOLES
10
321.5
20
265.0
30
0.0
40
16.50
0
CIRCLE
8
HOLES
10
354.5
20
131.5
30
0.0
40
16.50
0
CIRCLE
8
HOLES
10
354.5
20
265.0
30
0.0
40
16.50
0
CIRCLE
8
HOLES
10
521.5
20
131.5
30
0.0
40
16.50
0
CIRCLE
8
HOLES
10
521.5
20
265.0
30
0.0
40
16.50
0
CIRCLE
8
HOLES
10
721.5
20
131.5
30
0.0
40
16.50
0
CIRCLE
8
HOLES
10
721.5
20
265.0
30
0.0
40
16.50
0
CIRCLE
8
HOLES
10
921.5
20
131.5
30
0.0
40
16.50
0
CIRCLE
8
HOLES
10
921.5
20
265.0
30
0.0
40
16.50
0
CIRCLE
8
HOLES
10
1121.5
20
131.5
30
0.0
40
16.50
0
CIRCLE
8
HOLES
10
1121.5
20
265.0
30
0.0
40
16.50
0
CIRCLE
8
HOLES
10
1321.5
20
131.5
30
0.0
40
16.50
0
CIRCLE
8
HOLES
10
1321.5
20
265.0
30
0.0
40
16.50
0
CIRCLE
8
HOLES
10
1521.5
20
131.5
30
0.0
40
16.50
0
CIRCLE
8
HOLES
10
1521.5
20
265.0
30
0.0
40
16.50
0
CIRCLE
8
HOLES
10
1721.5
20
131.5
30
0.0
40
16.50
0
CIRCLE
8
HOLES
10
1721.5
20
265.0
30
0.0
40
16.50
0
CIRCLE
8
HOLES
10
1921.5
20
131.5
30
0.0
40
16.50
0
CIRCLE
8
HOLES
10
1921.5
20
265.0
30
0.0
40
16.50
0
LINE
8
DIMS
10
-522.9
20
45.0
30
0.0
11
80.0
21
45.0
31
0.0
0
LINE
8
DIMS
10
-522.9
20
41.0
30
0.0
11
-522.9
21
49.0
31
0.0
0
LINE
8
DIMS
10
80.0
20
41.0
30
0.0
11
80.0
21
49.0
31
0.0
0
TEXT
8
DIMS
10
-221.5
20
50.0
30
0.0
40
6.00
1
603 mm
50
0.0
7
ARIAL
0
LINE
8
DIMS
10
35.0
20
-4230.0
30
0.0
11
35.0
21
90.0
31
0.0
0
LINE
8
DIMS
10
31.0
20
-4230.0
30
0.0
11
39.0
21
-4230.0
31
0.0
0
LINE
8
DIMS
10
31.0
20
90.0
30
0.0
11
39.0
21
90.0
31
0.0
0
TEXT
8
DIMS
10
40.0
20
-2070.0
30
0.0
40
6.00
1
4320 mm
50
0.0
7
ARIAL
0
TEXT
8
TEXT
10
1014.6
20
197.8
30
0.0
40
1.00
1
P7349_C1 - N1A-HS - 001
50
0.0
7
ARIAL
0
LINE
8
PLATE_OUTLINE
10
80.0
20
426.5
30
0.0
11
1935.0
21
426.5
31
0.0
0
LINE
8
PLATE_OUTLINE
10
1935.0
20
426.5
30
0.0
11
1935.0
21
643.0
31
0.0
0
LINE
8
PLATE_OUTLINE
10
1935.0
20
643.0
30
0.0
11
80.0
21
643.0
31
0.0
0
LINE
8
PLATE_OUTLINE
10
80.0
20
643.0
30
0.0
11
80.0
21
426.5
31
0.0
0
CIRCLE
8
SCREW_HOLES
10
85.0
20
431.5
30
0.0
40
2.50
0
CIRCLE
8
SCREW_HOLES
10
1930.0
20
431.5
30
0.0
40
2.50
0
CIRCLE
8
SCREW_HOLES
10
85.0
20
638.0
30
0.0
40
2.50
0
CIRCLE
8
SCREW_HOLES
10
1930.0
20
638.0
30
0.0
40
2.50
0
LINE
8
DIMS
10
80.0
20
406.5
30
0.0
11
1935.0
21
406.5
31
0.0
0
LINE
8
DIMS
10
80.0
20
402.5
30
0.0
11
80.0
21
410.5
31
0.0
0
LINE
8
DIMS
10
1935.0
20
402.5
30
0.0
11
1935.0
21
410.5
31
0.0
0
TEXT
8
DIMS
10
1007.5
20
411.5
30
0.0
40
6.00
1
1855 mm
50
0.0
7
ARIAL
0
LINE
8
DIMS
10
60.0
20
426.5
30
0.0
11
60.0
21
643.0
31
0.0
0
LINE
8
DIMS
10
56.0
20
426.5
30
0.0
11
64.0
21
426.5
31
0.0
0
LINE
8
DIMS
10
56.0
20
643.0
30
0.0
11
64.0
21
643.0
31
0.0
0
TEXT
8
DIMS
10
65.0
20
534.8
30
0.0
40
6.00
1
217 mm
50
0.0
7
ARIAL
0
CIRCLE
8
HOLES
10
121.5
20
468.0
30
0.0
40
16.50
0
TEXT
8
TEXT
10
104.0
20
486.5
30
0.0
40
5.00
1
Ø33mm
50
0.0
7
ARIAL
0
CIRCLE
8
HOLES
10
121.5
20
601.5
30
0.0
40
16.50
0
CIRCLE
8
HOLES
10
321.5
20
468.0
30
0.0
40
16.50
0
CIRCLE
8
HOLES
10
321.5
20
601.5
30
0.0
40
16.50
0
CIRCLE
8
HOLES
10
521.5
20
468.0
30
0.0
40
16.50
0
CIRCLE
8
HOLES
10
521.5
20
601.5
30
0.0
40
16.50
0
CIRCLE
8
HOLES
10
721.5
20
468.0
30
0.0
40
16.50
0
CIRCLE
8
HOLES
10
721.5
20
601.5
30
0.0
40
16.50
0
CIRCLE
8
HOLES
10
921.5
20
468.0
30
0.0
40
16.50
0
CIRCLE
8
HOLES
10
921.5
20
601.5
30
0.0
40
16.50
0
CIRCLE
8
HOLES
10
1041.5
20
468.0
30
0.0
40
16.50
0
CIRCLE
8
HOLES
10
1071.5
20
601.5
30
0.0
40
16.50
0
CIRCLE
8
HOLES
10
1263.5
20
468.0
30
0.0
40
16.50
0
CIRCLE
8
HOLES
10
1263.5
20
601.5
30
0.0
40
16.50
0
CIRCLE
8
HOLES
10
1438.5
20
468.0
30
0.0
40
16.50
0
CIRCLE
8
HOLES
10
1438.5
20
601.5
30
0.0
40
16.50
0
CIRCLE
8
HOLES
10
1679.5
20
601.5
30
0.0
40
16.50
0
CIRCLE
8
HOLES
10
1693.5
20
468.0
30
0.0
40
16.50
0
CIRCLE
8
HOLES
10
1888.5
20
601.5
30
0.0
40
16.50
0
CIRCLE
8
HOLES
10
1893.5
20
468.0
30
0.0
40
16.50
0
LINE
8
DIMS
10
-2522.9
20
381.5
30
0.0
11
80.0
21
381.5
31
0.0
0
LINE
8
DIMS
10
-2522.9
20
377.5
30
0.0
11
-2522.9
21
385.5
31
0.0
0
LINE
8
DIMS
10
80.0
20
377.5
30
0.0
11
80.0
21
385.5
31
0.0
0
TEXT
8
DIMS
10
-1221.5
20
386.5
30
0.0
40
6.00
1
2603 mm
50
0.0
7
ARIAL
0
LINE
8
DIMS
10
35.0
20
-3893.5
30
0.0
11
35.0
21
426.5
31
0.0
0
LINE
8
DIMS
10
31.0
20
-3893.5
30
0.0
11
39.0
21
-3893.5
31
0.0
0
LINE
8
DIMS
10
31.0
20
426.5
30
0.0
11
39.0
21
426.5
31
0.0
0
TEXT
8
DIMS
10
40.0
20
-1733.5
30
0.0
40
6.00
1
4320 mm
50
0.0
7
ARIAL
0
TEXT
8
TEXT
10
1000.6
20
534.3
30
0.0
40
1.00
1
P7349_C1 - N1A-HS - 002
50
0.0
7
ARIAL
0
LINE
8
PLATE_OUTLINE
10
80.0
20
763.0
30
0.0
11
1927.0
21
763.0
31
0.0
0
LINE
8
PLATE_OUTLINE
10
1927.0
20
763.0
30
0.0
11
1927.0
21
981.6
31
0.0
0
LINE
8
PLATE_OUTLINE
10
1927.0
20
981.6
30
0.0
11
80.0
21
981.6
31
0.0
0
LINE
8
PLATE_OUTLINE
10
80.0
20
981.6
30
0.0
11
80.0
21
763.0
31
0.0
0
CIRCLE
8
SCREW_HOLES
10
85.0
20
768.0
30
0.0
40
2.50
0
CIRCLE
8
SCREW_HOLES
10
1922.0
20
768.0
30
0.0
40
2.50
0
CIRCLE
8
SCREW_HOLES
10
85.0
20
976.6
30
0.0
40
2.50
0
CIRCLE
8
SCREW_HOLES
10
1922.0
20
976.6
30
0.0
40
2.50
0
LINE
8
DIMS
10
80.0
20
743.0
30
0.0
11
1927.0
21
743.0
31
0.0
0
LINE
8
DIMS
10
80.0
20
739.0
30
0.0
11
80.0
21
747.0
31
0.0
0
LINE
8
DIMS
10
1927.0
20
739.0
30
0.0
11
1927.0
21
747.0
31
0.0
0
TEXT
8
DIMS
10
1003.5
20
748.0
30
0.0
40
6.00
1
1847 mm
50
0.0
7
ARIAL
0
LINE
8
DIMS
10
60.0
20
763.0
30
0.0
11
60.0
21
981.6
31
0.0
0
LINE
8
DIMS
10
56.0
20
763.0
30
0.0
11
64.0
21
763.0
31
0.0
0
LINE
8
DIMS
10
56.0
20
981.6
30
0.0
11
64.0
21
981.6
31
0.0
0
TEXT
8
DIMS
10
65.0
20
872.3
30
0.0
40
6.00
1
219 mm
50
0.0
7
ARIAL
0
CIRCLE
8
HOLES
10
121.5
20
806.6
30
0.0
40
16.50
0
TEXT
8
TEXT
10
104.0
20
825.1
30
0.0
40
5.00
1
Ø33mm
50
0.0
7
ARIAL
0
CIRCLE
8
HOLES
10
121.5
20
940.1
30
0.0
40
16.50
0
CIRCLE
8
HOLES
10
319.5
20
806.6
30
0.0
40
16.50
0
CIRCLE
8
HOLES
10
319.5
20
940.1
30
0.0
40
16.50
0
CIRCLE
8
HOLES
10
465.4
20
939.6
30
0.0
40
16.50
0
CIRCLE
8
HOLES
10
472.4
20
804.6
30
0.0
40
16.50
0
CIRCLE
8
HOLES
10
685.4
20
804.5
30
0.0
40
16.50
0
CIRCLE
8
HOLES
10
695.5
20
939.6
30
0.0
40
16.50
0
CIRCLE
8
HOLES
10
885.5
20
804.6
30
0.0
40
16.50
0
CIRCLE
8
HOLES
10
885.5
20
939.6
30
0.0
40
16.50
0
CIRCLE
8
HOLES
10
1065.5
20
804.6
30
0.0
40
16.50
0
CIRCLE
8
HOLES
10
1065.5
20
939.6
30
0.0
40
16.50
0
CIRCLE
8
HOLES
10
1285.5
20
804.6
30
0.0
40
16.50
0
CIRCLE
8
HOLES
10
1285.5
20
939.6
30
0.0
40
16.50
0
CIRCLE
8
HOLES
10
1485.5
20
804.6
30
0.0
40
16.50
0
CIRCLE
8
HOLES
10
1485.5
20
939.6
30
0.0
40
16.50
0
CIRCLE
8
HOLES
10
1685.5
20
804.6
30
0.0
40
16.50
0
CIRCLE
8
HOLES
10
1685.5
20
939.6
30
0.0
40
16.50
0
CIRCLE
8
HOLES
10
1885.5
20
804.6
30
0.0
40
16.50
0
CIRCLE
8
HOLES
10
1885.5
20
939.6
30
0.0
40
16.50
0
LINE
8
DIMS
10
-4465.9
20
718.0
30
0.0
11
80.0
21
718.0
31
0.0
0
LINE
8
DIMS
10
-4465.9
20
714.0
30
0.0
11
-4465.9
21
722.0
31
0.0
0
LINE
8
DIMS
10
80.0
20
714.0
30
0.0
11
80.0
21
722.0
31
0.0
0
TEXT
8
DIMS
10
-2193.0
20
723.0
30
0.0
40
6.00
1
4546 mm
50
0.0
7
ARIAL
0
LINE
8
DIMS
10
35.0
20
-3554.9
30
0.0
11
35.0
21
763.0
31
0.0
0
LINE
8
DIMS
10
31.0
20
-3554.9
30
0.0
11
39.0
21
-3554.9
31
0.0
0
LINE
8
DIMS
10
31.0
20
763.0
30
0.0
11
39.0
21
763.0
31
0.0
0
TEXT
8
DIMS
10
40.0
20
-1395.9
30
0.0
40
6.00
1
4318 mm
50
0.0
7
ARIAL
0
TEXT
8
TEXT
10
996.6
20
871.8
30
0.0
40
1.00
1
P7349_C1 - N1A-HS - 003
50
0.0
7
ARIAL
0
LINE
8
PLATE_OUTLINE
10
80.0
20
1101.6
30
0.0
11
1973.0
21
1101.6
31
0.0
0
LINE
8
PLATE_OUTLINE
10
1973.0
20
1101.6
30
0.0
11
1973.0
21
1319.6
31
0.0
0
LINE
8
PLATE_OUTLINE
10
1973.0
20
1319.6
30
0.0
11
80.0
21
1319.6
31
0.0
0
LINE
8
PLATE_OUTLINE
10
80.0
20
1319.6
30
0.0
11
80.0
21
1101.6
31
0.0
0
CIRCLE
8
SCREW_HOLES
10
85.0
20
1106.6
30
0.0
40
2.50
0
CIRCLE
8
SCREW_HOLES
10
1968.0
20
1106.6
30
0.0
40
2.50
0
CIRCLE
8
SCREW_HOLES
10
85.0
20
1314.6
30
0.0
40
2.50
0
CIRCLE
8
SCREW_HOLES
10
1968.0
20
1314.6
30
0.0
40
2.50
0
LINE
8
DIMS
10
80.0
20
1081.6
30
0.0
11
1973.0
21
1081.6
31
0.0
0
LINE
8
DIMS
10
80.0
20
1077.6
30
0.0
11
80.0
21
1085.6
31
0.0
0
LINE
8
DIMS
10
1973.0
20
1077.6
30
0.0
11
1973.0
21
1085.6
31
0.0
0
TEXT
8
DIMS
10
1026.5
20
1086.6
30
0.0
40
6.00
1
1893 mm
50
0.0
7
ARIAL
0
LINE
8
DIMS
10
60.0
20
1101.6
30
0.0
11
60.0
21
1319.6
31
0.0
0
LINE
8
DIMS
10
56.0
20
1101.6
30
0.0
11
64.0
21
1101.6
31
0.0
0
LINE
8
DIMS
10
56.0
20
1319.6
30
0.0
11
64.0
21
1319.6
31
0.0
0
TEXT
8
DIMS
10
65.0
20
1210.6
30
0.0
40
6.00
1
218 mm
50
0.0
7
ARIAL
0
CIRCLE
8
HOLES
10
121.5
20
1143.1
30
0.0
40
16.50
0
TEXT
8
TEXT
10
104.0
20
1161.6
30
0.0
40
5.00
1
Ø33mm
50
0.0
7
ARIAL
0
CIRCLE
8
HOLES
10
121.5
20
1278.1
30
0.0
40
16.50
0
CIRCLE
8
HOLES
10
301.5
20
1143.1
30
0.0
40
16.50
0
CIRCLE
8
HOLES
10
301.5
20
1278.1
30
0.0
40
16.50
0
CIRCLE
8
HOLES
10
521.5
20
1143.1
30
0.0
40
16.50
0
CIRCLE
8
HOLES
10
521.5
20
1278.1
30
0.0
40
16.50
0
CIRCLE
8
HOLES
10
731.5
20
1143.1
30
0.0
40
16.50
0
CIRCLE
8
HOLES
10
731.5
20
1278.1
30
0.0
40
16.50
0
CIRCLE
8
HOLES
10
931.5
20
1143.1
30
0.0
40
16.50
0
CIRCLE
8
HOLES
10
931.5
20
1278.1
30
0.0
40
16.50
0
CIRCLE
8
HOLES
10
1131.5
20
1143.1
30
0.0
40
16.50
0
CIRCLE
8
HOLES
10
1131.5
20
1278.1
30
0.0
40
16.50
0
CIRCLE
8
HOLES
10
1331.5
20
1143.1
30
0.0
40
16.50
0
CIRCLE
8
HOLES
10
1331.5
20
1278.1
30
0.0
40
16.50
0
CIRCLE
8
HOLES
10
1521.5
20
1143.1
30
0.0
40
16.50
0
CIRCLE
8
HOLES
10
1521.5
20
1278.1
30
0.0
40
16.50
0
CIRCLE
8
HOLES
10
1721.5
20
1143.1
30
0.0
40
16.50
0
CIRCLE
8
HOLES
10
1721.5
20
1278.1
30
0.0
40
16.50
0
CIRCLE
8
HOLES
10
1931.5
20
1143.1
30
0.0
40
16.50
0
CIRCLE
8
HOLES
10
1931.5
20
1278.1
30
0.0
40
16.50
0
LINE
8
DIMS
10
-6449.9
20
1056.6
30
0.0
11
80.0
21
1056.6
31
0.0
0
LINE
8
DIMS
10
-6449.9
20
1052.6
30
0.0
11
-6449.9
21
1060.6
31
0.0
0
LINE
8
DIMS
10
80.0
20
1052.6
30
0.0
11
80.0
21
1060.6
31
0.0
0
TEXT
8
DIMS
10
-3185.0
20
1061.6
30
0.0
40
6.00
1
6530 mm
50
0.0
7
ARIAL
0
LINE
8
DIMS
10
35.0
20
-3216.4
30
0.0
11
35.0
21
1101.6
31
0.0
0
LINE
8
DIMS
10
31.0
20
-3216.4
30
0.0
11
39.0
21
-3216.4
31
0.0
0
LINE
8
DIMS
10
31.0
20
1101.6
30
0.0
11
39.0
21
1101.6
31
0.0
0
TEXT
8
DIMS
10
40.0
20
-1057.4
30
0.0
40
6.00
1
4318 mm
50
0.0
7
ARIAL
0
TEXT
8
TEXT
10
1019.6
20
1210.1
30
0.0
40
1.00
1
P7349_C1 - N1A-HS - 004
50
0.0
7
ARIAL
0
LINE
8
PLATE_OUTLINE
10
80.0
20
1439.6
30
0.0
11
363.0
21
1439.6
31
0.0
0
LINE
8
PLATE_OUTLINE
10
363.0
20
1439.6
30
0.0
11
363.0
21
1657.6
31
0.0
0
LINE
8
PLATE_OUTLINE
10
363.0
20
1657.6
30
0.0
11
80.0
21
1657.6
31
0.0
0
LINE
8
PLATE_OUTLINE
10
80.0
20
1657.6
30
0.0
11
80.0
21
1439.6
31
0.0
0
CIRCLE
8
SCREW_HOLES
10
85.0
20
1444.6
30
0.0
40
2.50
0
CIRCLE
8
SCREW_HOLES
10
358.0
20
1444.6
30
0.0
40
2.50
0
CIRCLE
8
SCREW_HOLES
10
85.0
20
1652.6
30
0.0
40
2.50
0
CIRCLE
8
SCREW_HOLES
10
358.0
20
1652.6
30
0.0
40
2.50
0
LINE
8
DIMS
10
80.0
20
1419.6
30
0.0
11
363.0
21
1419.6
31
0.0
0
LINE
8
DIMS
10
80.0
20
1415.6
30
0.0
11
80.0
21
1423.6
31
0.0
0
LINE
8
DIMS
10
363.0
20
1415.6
30
0.0
11
363.0
21
1423.6
31
0.0
0
TEXT
8
DIMS
10
221.5
20
1424.6
30
0.0
40
6.00
1
283 mm
50
0.0
7
ARIAL
0
LINE
8
DIMS
10
60.0
20
1439.6
30
0.0
11
60.0
21
1657.6
31
0.0
0
LINE
8
DIMS
10
56.0
20
1439.6
30
0.0
11
64.0
21
1439.6
31
0.0
0
LINE
8
DIMS
10
56.0
20
1657.6
30
0.0
11
64.0
21
1657.6
31
0.0
0
TEXT
8
DIMS
10
65.0
20
1548.6
30
0.0
40
6.00
1
218 mm
50
0.0
7
ARIAL
0
CIRCLE
8
HOLES
10
121.5
20
1481.1
30
0.0
40
16.50
0
TEXT
8
TEXT
10
104.0
20
1499.6
30
0.0
40
5.00
1
Ø33mm
50
0.0
7
ARIAL
0
CIRCLE
8
HOLES
10
121.5
20
1616.1
30
0.0
40
16.50
0
CIRCLE
8
HOLES
10
321.5
20
1481.1
30
0.0
40
16.50
0
CIRCLE
8
HOLES
10
321.5
20
1616.1
30
0.0
40
16.50
0
LINE
8
DIMS
10
-8459.9
20
1394.6
30
0.0
11
80.0
21
1394.6
31
0.0
0
LINE
8
DIMS
10
-8459.9
20
1390.6
30
0.0
11
-8459.9
21
1398.6
31
0.0
0
LINE
8
DIMS
10
80.0
20
1390.6
30
0.0
11
80.0
21
1398.6
31
0.0
0
TEXT
8
DIMS
10
-4190.0
20
1399.6
30
0.0
40
6.00
1
8540 mm
50
0.0
7
ARIAL
0
LINE
8
DIMS
10
35.0
20
-2878.4
30
0.0
11
35.0
21
1439.6
31
0.0
0
LINE
8
DIMS
10
31.0
20
-2878.4
30
0.0
11
39.0
21
-2878.4
31
0.0
0
LINE
8
DIMS
10
31.0
20
1439.6
30
0.0
11
39.0
21
1439.6
31
0.0
0
TEXT
8
DIMS
10
40.0
20
-719.4
30
0.0
40
6.00
1
4318 mm
50
0.0
7
ARIAL
0
TEXT
8
TEXT
10
214.6
20
1548.1
30
0.0
40
1.00
1
P7349_C1 - N1A-HS - 005
50
0.0
7
ARIAL
0
ENDSEC
0
EOF